<svg width="128" height="128" fill="#459df5" xmlns="http://www.w3.org/2000/svg" id="status_passed" viewBox="0 0 32 32">
    <title>status_passed</title>
    <path d="M2.32 22.364c0.018 0.003 0.033 0.006 0.051 0.009 0 0.109 0.018 0.224-0.003 0.327-0.036 0.166 0.021 0.302 0.079 0.454 0.061-0.659-0.136-1.258-0.363-1.836-0.082-0.009-0.157-0.018-0.248-0.027 0.124 0.384 0.248 0.765 0.375 1.152 0.042-0.030 0.076-0.054 0.109-0.079z"></path>
    <path d="M26.858 19.475c0 0 0 0 0 0-0.003 0.003-0.003 0.003 0 0v0z"></path>
    <path d="M28.352 16.853c0.018-0.233 0.030-0.469 0.045-0.708 0.045 0.015 0.079 0.024 0.127 0.042-0.054-0.082-0.097-0.145-0.151-0.227 1.143-0.375 2.265-0.741 3.4-1.113-0.064-0.191-0.118-0.372-0.181-0.55-0.064-0.175-0.139-0.348-0.2-0.526-0.057-0.178-0.1-0.366-0.151-0.544-0.054-0.184-0.115-0.363-0.175-0.544s-0.121-0.363-0.178-0.544c-0.061-0.188-0.121-0.372-0.181-0.56-0.061-0.181-0.118-0.363-0.178-0.544s-0.121-0.363-0.178-0.544c-0.061-0.181-0.109-0.369-0.181-0.544-0.070-0.169-0.051-0.378-0.221-0.502 0.076-0.2-0.1-0.342-0.103-0.523-0.163 0.057-0.212 0.142-0.163 0.284 0.181 0.553 0.36 1.11 0.541 1.664 0.336 1.022 0.677 2.045 1.010 3.067 0.088 0.263 0.163 0.532 0.245 0.808-0.139 0.045-0.269 0.088-0.396 0.13-0.033 0.012-0.091 0.033-0.088 0.045 0.018 0.2-0.142 0.109-0.224 0.136-0.030 0.012-0.082 0-0.091 0.015-0.076 0.145-0.197 0.109-0.315 0.094-0.045-0.006-0.1-0.021-0.139-0.006-0.974 0.312-1.951 0.623-2.925 0.941-0.544 0.178-1.086 0.369-1.63 0.55-0.623 0.206-1.249 0.408-1.875 0.614-0.039 0.012-0.079 0.033-0.115 0.051 0.033 0.136 0.1 0.175 0.221 0.118 0.048-0.024 0.103-0.039 0.157-0.054 0.302-0.082 0.605-0.157 0.904-0.251 0.181-0.057 0.354-0.148 0.532-0.218 0.051-0.021 0.112-0.018 0.175-0.027-0.003 0.061-0.003 0.094-0.006 0.13-0.133 1.18-0.475 2.293-1.004 3.351-0.030 0.061-0.027 0.136-0.045 0.227-0.2 0.039-0.194 0.287-0.312 0.411 0.042 0.082 0.082 0.151 0.118 0.221 0.076-0.079 0.106-0.106 0.112-0.136 0.021-0.094 0.157-0.139 0.103-0.275-0.012-0.033 0.115-0.112 0.151-0.181 0.526-0.974 0.871-2.011 1.050-3.103 0.033-0.194 0.103-0.393 0.030-0.596 0.051-0.015 0.103-0.033 0.151-0.048-0.033-0.024-0.061-0.042-0.088-0.064 0.036-0.027 0.067-0.067 0.109-0.082 0.169-0.064 0.339-0.118 0.511-0.175 0.251-0.082 0.502-0.16 0.805-0.26-0.073 0.569-0.118 1.101-0.212 1.624s-0.239 1.040-0.363 1.564c0.027-0.003 0.054-0.006 0.085-0.009 0.16-0.227 0.269-0.677 0.203-0.723 0.030-0.051 0.067-0.1 0.088-0.151 0.048-0.121 0.042-0.254 0.067-0.381 0.106-0.529 0.154-1.068 0.233-1.6 0.027-0.184-0.030-0.414 0.251-0.496 0.112 0.212-0.003 0.442 0.039 0.662 0.067-0.018 0.136-0.036 0.203-0.054 0.003 0.009 0.006 0.018 0.009 0.030-0.039 0.021-0.076 0.042-0.109 0.064 0.006 0.042 0.012 0.076 0.018 0.112-0.012 0.003-0.021 0.009-0.033 0.012-0.033-0.027-0.067-0.057-0.112-0.097 0.006 0.215-0.124 0.423 0.088 0.599-0.012 0.009-0.021 0.015-0.033 0.024-0.036-0.021-0.073-0.039-0.109-0.061-0.018 0.115-0.048 0.239-0.054 0.366-0.003 0.070 0.030 0.139 0.048 0.209 0.015 0 0.030 0 0.045-0.003-0.036 0.021-0.076 0.042-0.106 0.061 0.067 0.015 0.13 0.030 0.194 0.045 0 0.015-0.003 0.027-0.003 0.042-0.051 0.015-0.106 0.024-0.151 0.045-0.042 0.021-0.106 0.048-0.115 0.085-0.057 0.203-0.088 0.411-0.151 0.611-0.136 0.448-0.272 0.895-0.436 1.334-0.127 0.342-0.29 0.671-0.433 0.995-0.073-0.009-0.121-0.012-0.236-0.024 0.188 0.163 0.094 0.287 0.024 0.402-0.278 0.451-0.566 0.895-0.856 1.343-0.054 0.085-0.1 0.191-0.236 0.172-0.009 0-0.024 0.039-0.051 0.085 0.057-0.027 0.085-0.039 0.142-0.067-0.532 0.708-1.125 1.307-1.769 1.86-0.145 0.124-0.287 0.172-0.466 0.067 0.127-0.148 0.299-0.239 0.426-0.387 0.224-0.257 0.493-0.475 0.735-0.717 0.067-0.067 0.097-0.169 0.145-0.257 0.191 0.13 0.242 0.124 0.308-0.082-0.045 0.039-0.091 0.079-0.148 0.127-0.009-0.015-0.033-0.042-0.030-0.048 0.157-0.194 0.315-0.384 0.478-0.581 0.027 0.024 0.051 0.045 0.076 0.070 0.036-0.045 0.067-0.085 0.106-0.133-0.045-0.009-0.076-0.015-0.115-0.024 0.015-0.021 0.024-0.045 0.039-0.064 0.197-0.26 0.408-0.511 0.59-0.783 0.136-0.203 0.239-0.433 0.351-0.653 0.16-0.315 0.315-0.626 0.466-0.944 0.021-0.045 0.003-0.112 0.003-0.166-0.018-0.003-0.036-0.006-0.054-0.009-0.227 0.433-0.439 0.874-0.69 1.291-0.254 0.423-0.52 0.847-0.841 1.222-0.29 0.342-0.514 0.753-0.926 0.986-0.251 0.439-0.696 0.671-1.031 1.010-0.045-0.030-0.070-0.048-0.088-0.061 0.057-0.061 0.1-0.106 0.142-0.151-0.009-0.009-0.018-0.018-0.027-0.027-0.057 0.030-0.115 0.061-0.181 0.097 0.012-0.045 0.018-0.079 0.021-0.091-0.272 0.024-0.541 0.048-0.811 0.073 0.172 0.082 0.375 0.054 0.475 0.272 0.051-0.061 0.094-0.106 0.13-0.151 0.027 0.051 0.051 0.094 0.076 0.136 0.048-0.039 0.082-0.064 0.118-0.091 0.009 0.012 0.021 0.021 0.030 0.033-0.033 0.039-0.061 0.085-0.1 0.112-0.248 0.166-0.511 0.315-0.747 0.499-0.118 0.091-0.166 0.082-0.254-0.036 0.009 0.057 0.015 0.115 0.027 0.194-0.103 0.1-0.154-0.124-0.239-0.097-0.067 0.079-0.121 0.142-0.175 0.203 0.018 0.021 0.036 0.042 0.054 0.061-0.030 0.024-0.057 0.064-0.091 0.073-0.091 0.018-0.181 0.024-0.296 0.036-0.006-0.048-0.015-0.103-0.024-0.157 0.121 0.012 0.215-0.009 0.209-0.16-0.024-0.006-0.045-0.012-0.051-0.012 0 0 0 0 0 0-0.067 0.067-0.115 0.112-0.163 0.16-0.115 0.024-0.233 0.048-0.348 0.073 0.003 0.015 0.009 0.033 0.012 0.048 0.097-0.021 0.194-0.039 0.29-0.061 0.003 0.012 0.009 0.024 0.012 0.039-0.079 0.036-0.16 0.073-0.26 0.118 0.127 0.015 0.224 0.024 0.321 0.036 0.003 0.018 0.006 0.036 0.006 0.057-0.478 0.2-0.953 0.396-1.406 0.584-0.033-0.067-0.042-0.109-0.064-0.118-0.027-0.012-0.064 0.006-0.097 0.012 0.003-0.039 0.009-0.082 0.012-0.112-0.151 0.051-0.305 0.1-0.463 0.154 0.015-0.054 0.021-0.085 0.030-0.115-0.027 0.003-0.057-0.006-0.079 0.009-0.112 0.073-0.224 0.127-0.36 0.051-0.021-0.012-0.054-0.015-0.079-0.009-0.1 0.033-0.197 0.070-0.302 0.109 0.024 0.106 0.048 0.218-0.1 0.266-0.012 0.003-0.003 0.079-0.003 0.145-0.16 0.027-0.348 0.067-0.535 0.088-0.054 0.006-0.112-0.027-0.191-0.051-0.085 0.009-0.197 0.015-0.305 0.036-0.061 0.009-0.115 0.042-0.172 0.064-0.030 0.012-0.061 0.021-0.091 0.030 0-0.030 0-0.064 0-0.094-0.009-0.003-0.018-0.006-0.024-0.009-0.021 0.064-0.042 0.127-0.054 0.16-0.312-0.067-0.617 0.018-0.922-0.006 0.006 0.142 0.070 0.166 0.206 0.151 0.215-0.024 0.433-0.021 0.647-0.030 0.015 0 0.036 0 0.042 0.009 0.1 0.136 0.166 0.039 0.239-0.033 0.067 0.064 0.133 0.121 0.227 0.036 0.024-0.021 0.082-0.021 0.115-0.012 0.136 0.039 0.269 0.088 0.405 0.133-0.154 0.030-0.299 0.133-0.454 0.030-0.018-0.012-0.057-0.003-0.088 0.006-0.133 0.033-0.266 0.094-0.402 0.1-0.339 0.015-0.681 0.033-1.016 0.003-0.448-0.039-0.892-0.127-1.34-0.191-0.073-0.009-0.148 0.006-0.218-0.015-0.366-0.112-0.732-0.23-1.116-0.354 0.006 0.091 0.012 0.154 0.018 0.242-0.257-0.070-0.496-0.133-0.747-0.2 0 0.118 0 0.224 0 0.33 0 0.070 0 0.136 0.003 0.206-0.064-0.018-0.13-0.039-0.194-0.057-0.006-0.003-0.012 0.003-0.018 0.003 0.197 0.224 0.478 0.236 0.735 0.318 0.003-0.054 0.006-0.094 0.009-0.133 0.018 0 0.033 0 0.051-0.003 0.006 0.051 0.009 0.1 0.015 0.163 0.060-0.018 0.154-0.073 0.178-0.051 0.136 0.13 0.318 0.097 0.472 0.145 0.079 0.024 0.16 0.033 0.272 0.057-0.209-0.097-0.387-0.178-0.575-0.266-0.036-0.003-0.094-0.006-0.194-0.015 0.106-0.057 0.172-0.094 0.239-0.13-0.003 0.012-0.006 0.027-0.009 0.039 0.057 0.033 0.118 0.070 0.172 0.1-0.006-0.079-0.012-0.127-0.015-0.172 0.048 0.018 0.097 0.030 0.145 0.051 0.030 0.012 0.054 0.036 0.085 0.057 0.006-0.030 0.012-0.051 0.018-0.085 0.039 0.082 0.070 0.151 0.103 0.218 0.036-0.051 0.073-0.103 0.133-0.194 0.009 0.082 0.027 0.184 0.018 0.188-0.188 0.045-0.027 0.127-0.018 0.194-0.048 0.030-0.097 0.064-0.115 0.073 0.073 0.024 0.184 0.1 0.269 0.076 0.133-0.036 0.254-0.012 0.378-0.003 0.399 0.033 0.802 0.088 1.201 0.097 0.387 0.006 0.774-0.027 1.161-0.054 1.161-0.085 2.29-0.336 3.381-0.735 0.43-0.157 0.856-0.321 1.285-0.472 0.076-0.027 0.169 0.003 0.245-0.024 0.227-0.082 0.457-0.163 0.674-0.269 0.163-0.082 0.321-0.184 0.457-0.305 0.115-0.1 0.188-0.242 0.354-0.281 0.024-0.006 0.064-0.067 0.061-0.070-0.091-0.1 0.024-0.121 0.064-0.151 0.257-0.194 0.517-0.384 0.783-0.569 0.082-0.057 0.181-0.094 0.278-0.127 0.039-0.015 0.091 0.006 0.109 0.009-0.006-0.088-0.027-0.151-0.009-0.194 0.012-0.024 0.091-0.018 0.124-0.021 0.036-0.067 0.064-0.139 0.109-0.2 0.051-0.064 0.115-0.118 0.181-0.169 0.109-0.085 0.221-0.16 0.33-0.242 0.030-0.021 0.054-0.054 0.070-0.088 0.015-0.030 0.009-0.079 0.027-0.103 0.342-0.426 0.699-0.841 1.031-1.273 0.269-0.348 0.493-0.729 0.705-1.116 0.009-0.018 0.024-0.030 0.036-0.048 0.018 0.024 0.036 0.045 0.070 0.085 0.039-0.094 0.115-0.184 0.094-0.251-0.036-0.118 0.018-0.191 0.057-0.281 0.142-0.321 0.281-0.647 0.43-0.965 0.064-0.133 0.148-0.257 0.218-0.375-0.003 0-0.033 0-0.076 0 0.057-0.178 0.115-0.348 0.166-0.52 0.088-0.299 0.188-0.596 0.242-0.898 0.024-0.127 0.124-0.254 0.054-0.399-0.015-0.030-0.006-0.073-0.009-0.118-0.103-0.027-0.118-0.021-0.139 0.070-0.082 0.327-0.148 0.656-0.245 0.977-0.13 0.43-0.287 0.85-0.43 1.273-0.018-0.006-0.033-0.012-0.051-0.018 0.094-0.266 0.188-0.535 0.281-0.811-0.042-0.012-0.073-0.024-0.112-0.036 0.154-0.036 0.188-0.097 0.133-0.175 0.042-0.097 0.094-0.175 0.115-0.263 0.094-0.405 0.184-0.814 0.269-1.225 0.018-0.082-0.009-0.175-0.015-0.278 0.018-0.030 0.070-0.082 0.079-0.142 0.039-0.233 0.061-0.463 0.079-0.696z"></path>
    <path d="M3.602 15.828c0.006 0.048 0.012 0.097 0.021 0.151 0.057-0.018 0.103-0.036 0.151-0.045 0.145-0.024 0.197-0.097 0.175-0.248-0.018-0.118-0.003-0.242-0.003-0.36 0.012 0 0.027 0 0.039-0.003 0.012 0.169 0.024 0.339 0.039 0.526 0.327-0.106 0.632-0.203 0.938-0.302 0.302-0.097 0.602-0.197 0.904-0.296 0.305-0.1 0.611-0.2 0.916-0.302 0.296-0.097 0.596-0.191 0.892-0.293s0.59-0.218 0.889-0.315c0.284-0.094 0.575-0.169 0.859-0.257 0.305-0.097 0.611-0.197 0.926-0.299-0.006-0.039-0.009-0.076-0.012-0.115 0.175-0.057 0.354-0.112 0.529-0.169 0.070-0.021 0.145-0.039 0.188-0.082-0.003 0.033 0.006 0.070 0.021 0.115 0.051-0.012 0.1-0.021 0.148-0.036 1.44-0.472 2.876-0.944 4.316-1.412 0.118-0.039 0.242-0.067 0.363-0.097 0.054-0.018 0.106-0.036 0.16-0.057 0.085-0.030 0.169-0.060 0.263-0.097-0.094 0.033-0.178 0.067-0.263 0.097-0.054 0.018-0.106 0.036-0.16 0.057-0.042 0.024-0.088 0.048-0.13 0.070-0.151 0.073-0.324 0.118-0.445 0.224-0.236 0.203-0.529 0.239-0.808 0.321-0.194 0.057-0.405 0.054-0.602 0.1-0.136 0.033-0.263 0.112-0.399 0.163-0.124 0.048-0.251 0.094-0.381 0.127-0.076 0.021-0.16 0.003-0.233 0.027-0.097 0.033-0.181 0.094-0.275 0.133-0.23 0.097-0.463 0.194-0.699 0.278-0.351 0.124-0.705 0.239-1.056 0.36-0.097 0.033-0.191 0.076-0.287 0.112-0.188 0.073-0.378 0.145-0.566 0.221 0.339-0.073 0.668-0.178 0.998-0.284 0.668-0.212 1.34-0.423 2.008-0.638 0.245-0.079 0.481-0.172 0.726-0.254 0.33-0.109 0.662-0.206 0.992-0.312 0.287-0.091 0.575-0.184 0.859-0.281 0.968-0.33 1.933-0.662 2.898-0.995 0.145-0.051 0.287-0.112 0.433-0.169-0.006-0.012-0.009-0.024-0.015-0.036-0.166 0.106-0.402 0.030-0.569 0.215-0.181-0.045-0.687 0.039-0.886 0.172 0.076-0.012 0.139-0.021 0.203-0.033-0.133 0.139-0.339 0.109-0.469 0.245-0.006 0.006-0.033 0-0.039-0.009-0.054-0.085-0.097-0.018-0.148 0.006-0.039 0.018-0.088 0.024-0.13 0.036 0 0-0.006 0-0.006 0-0.024-0.021-0.051-0.045-0.109-0.097 1.636-0.535 3.242-1.059 4.848-1.585 0.006 0.018 0.012 0.036 0.021 0.054-0.042 0.021-0.085 0.039-0.139 0.067 0.036 0.012 0.054 0.018 0.109 0.036-0.124 0.021-0.206 0.033-0.305 0.051-0.082 0.039-0.188 0.091-0.293 0.139-0.073 0.033-0.145 0.064-0.221 0.091-0.209 0.079-0.42 0.157-0.629 0.236 0.006 0.018 0.012 0.036 0.018 0.051 2.997-1.053 6.091-1.806 9.046-3.012 0.082 0.242 0.157 0.469 0.236 0.696 0.227-0.079 0.227-0.079 0.157-0.287-0.073-0.221-0.145-0.439-0.218-0.659-0.064-0.2-0.064-0.197-0.266-0.133-1.095 0.345-2.19 0.69-3.285 1.034-0.003 0-0.009-0.009-0.018-0.018 0.024-0.015 0.048-0.030 0.091-0.060-0.408-0.466-0.814-0.926-1.231-1.397-0.109 0.206-0.1 0.299 0.033 0.402-0.036 0.021-0.070 0.042-0.106 0.064 0.003 0.012 0.009 0.024 0.012 0.039 0.16 0.009 0.321 0.018 0.481 0.027-0.027 0.024-0.061 0.015-0.079 0.027-0.061 0.051-0.115 0.106-0.163 0.166-0.009 0.012 0.024 0.082 0.048 0.088 0.163 0.036 0.121 0.13 0.085 0.212 0.1 0.124 0.194 0.242 0.305 0.384-0.067 0.003-0.112 0.006-0.154 0.006 0.070 0.082 0.139 0.166 0.215 0.254-0.061 0.036-0.115 0.067-0.178 0.106 0.042 0.003 0.076 0.006 0.142 0.012-0.181 0.175-0.402 0.175-0.581 0.275-0.009-0.015-0.015-0.027-0.024-0.042 0.094-0.054 0.188-0.109 0.281-0.166-0.151 0.015-0.293 0.042-0.433 0.085-0.315 0.097-0.629 0.197-0.941 0.309-0.109 0.039-0.169 0.015-0.245-0.070-1.195-1.322-2.64-2.256-4.328-2.822-0.061-0.021-0.121-0.033-0.178-0.048-0.018 0.085-0.033 0.148-0.051 0.224 1.709 0.55 3.179 1.485 4.404 2.84-0.224 0.073-0.414 0.145-0.611 0.2-0.178 0.048-0.345 0.124-0.52 0.178-0.641 0.2-1.279 0.408-1.918 0.62 0.006-0.021 0.009-0.042 0.012-0.067-0.051 0.012-0.103 0.024-0.154 0.039-0.263 0.085-0.526 0.172-0.789 0.257-0.139 0.042-0.242 0-0.218-0.1 0.039-0.166-0.036-0.299-0.079-0.442-0.088-0.281-0.181-0.563-0.275-0.85-0.042 0.009-0.073 0.015-0.1 0.021-0.408 0.13-0.814 0.257-1.219 0.396-0.115 0.039-0.188 0.033-0.269-0.070-0.245-0.302-0.502-0.593-0.756-0.886-0.148-0.172-0.154-0.172-0.327-0.027-0.299 0.254-0.602 0.505-0.898 0.765-0.079 0.067-0.136 0.088-0.236 0.033-0.233-0.13-0.475-0.245-0.714-0.363-0.060-0.030-0.127-0.039-0.197-0.060 0.067 0.321 0.327 0.414 0.581 0.544-0.254 0.115-0.529 0.124-0.732 0.369 0.254-0.082 0.472-0.139 0.681-0.218 0.154-0.060 0.29-0.067 0.423 0.036 0.076 0.057 0.139 0.048 0.212-0.018 0.106-0.1 0.221-0.191 0.333-0.284 0.23-0.194 0.457-0.387 0.696-0.587 0.145 0.172 0.281 0.33 0.43 0.502-1.697 0.547-3.366 1.083-5.054 1.627 0.021-0.236 0.039-0.445 0.054-0.656 0.045 0 0.073-0.003 0.097 0 0.414 0.033 0.832 0.070 1.246 0.097 0.051 0.003 0.142-0.027 0.157-0.067 0.070-0.188 0.2-0.29 0.393-0.327 0.027-0.006 0.045-0.070 0.067-0.103-0.012-0.006-0.024-0.015-0.036-0.021-0.060 0.012-0.121 0.027-0.206 0.045 0.154-0.296 0.293-0.569 0.436-0.841-0.051-0.076-0.106-0.154-0.166-0.245-0.191 0.369-0.375 0.729-0.56 1.086-0.115 0.221-0.115 0.221-0.372 0.2-0.1-0.009-0.2-0.015-0.302-0.024-0.327-0.024-0.65-0.048-0.983-0.076-0.009 0.060-0.021 0.109-0.024 0.16-0.033 0.417-0.070 0.832-0.094 1.249-0.006 0.106-0.042 0.148-0.139 0.175-0.184 0.051-0.366 0.115-0.547 0.172-0.266 0.088-0.532 0.172-0.811 0.263 0.048 0.151 0.094 0.284 0.142 0.439 0.079-0.064 0.197-0.118 0.191-0.163-0.015-0.16 0.109-0.136 0.184-0.178 0.045-0.021 0.085-0.051 0.124-0.082 0.054-0.039 0.109-0.079 0.166-0.118 0.012 0.033 0.018 0.060 0.030 0.097 0.272-0.088 0.541-0.172 0.808-0.263 0.033-0.012 0.079-0.060 0.076-0.088-0.015-0.136 0.070-0.163 0.172-0.197 1.313-0.42 2.625-0.847 3.938-1.27 0-0.018 0-0.036 0-0.054-0.051-0.006-0.106-0.030-0.151-0.018-0.221 0.064-0.439 0.139-0.659 0.209-0.799 0.257-1.6 0.514-2.399 0.774-0.284 0.091-0.569 0.184-0.856 0.278-0.030-0.305-0.030-0.309 0.23-0.393 0.632-0.206 1.261-0.408 1.893-0.611 0.968-0.312 1.936-0.62 2.901-0.938 0.106-0.033 0.169-0.018 0.227 0.070 0.030 0.045 0.064 0.085 0.109 0.142-0.402 0.13-0.783 0.254-1.164 0.378 0.003 0.015 0.006 0.030 0.006 0.045 0.079 0 0.163 0.018 0.236-0.003 0.302-0.091 0.602-0.194 0.907-0.287 0.045-0.015 0.127-0.015 0.145 0.012 0.082 0.124 0.175 0.1 0.284 0.054 0.085-0.033 0.172-0.057 0.257-0.085 0.293-0.094 0.584-0.191 0.877-0.281 0.030-0.009 0.067 0.012 0.1 0.018-0.021 0.027-0.039 0.057-0.067 0.079-0.018 0.015-0.048 0.018-0.070 0.027-0.224 0.091-0.451 0.181-0.674 0.272-0.012 0.006-0.027 0.012-0.042 0.015-0.073 0.006-0.148-0.006-0.215 0.015-0.327 0.1-0.65 0.209-0.977 0.312-0.191 0.060-0.191 0.060-0.305 0.224 0.805-0.26 1.603-0.517 2.408-0.777 0.036 0.109 0.064 0.194 0.097 0.29-0.753 0.245-1.497 0.484-2.241 0.726 0.003 0.021 0.003 0.039 0.006 0.060 0.054 0.003 0.112 0.021 0.16 0.006 0.46-0.145 0.919-0.293 1.379-0.442 0.242-0.079 0.484-0.154 0.735-0.236 0.033 0.106 0.061 0.188 0.094 0.29-2.822 0.907-5.629 1.812-8.442 2.719-0.027-0.057-0.045-0.1-0.073-0.16-0.021 0.045-0.033 0.073-0.042 0.094-0.070-0.021-0.127-0.039-0.203-0.064 0.054 0.175 0.103 0.33 0.151 0.484-0.411 0.139-0.811 0.272-1.219 0.411 0.033 0.042 0.067 0.070 0.1 0.085-0.977 0.318-1.948 0.635-2.919 0.953-0.012-0.272-0.027-0.526-0.039-0.817 0.045 0.054 0.070 0.079 0.091 0.106 0.018-0.006 0.033-0.012 0.051-0.015-0.042-0.172-0.085-0.348-0.127-0.52-0.012 0.003-0.021 0.006-0.033 0.012-0.030 0.145-0.064 0.293-0.088 0.414 0.030 0.039 0.073 0.070 0.073 0.1 0 0.064-0.006 0.133-0.036 0.188-0.088 0.166-0.166 0.333-0.163 0.523 0.003 0.088-0.045 0.121-0.121 0.145-0.384 0.121-0.765 0.248-1.149 0.372-0.039 0.012-0.082 0.015-0.136 0.027 0.009-0.118 0.015-0.212 0.021-0.305 0.115-1.772 0.62-3.424 1.5-4.963 0.103-0.178 0.227-0.345 0.318-0.529 0.088-0.178 0.215-0.324 0.336-0.478 0.23-0.299 0.472-0.587 0.705-0.886 0.033-0.045 0.030-0.118 0.045-0.178-0.012-0.003-0.024-0.006-0.033-0.006-0.009 0.045-0.018 0.094-0.027 0.16-0.030-0.042-0.045-0.064-0.067-0.091-0.599 0.671-1.119 1.394-1.536 2.187-0.251 0.478-0.541 0.944-0.635 1.491 0 0-0.036-0.009-0.039-0.003-0.015 0.030-0.030 0.064-0.039 0.097-0.13 0.43-0.257 0.859-0.387 1.285-0.018 0.057-0.045 0.112-0.070 0.169-0.015-0.003-0.027-0.006-0.042-0.009-0.003-0.067-0.006-0.133-0.009-0.203 0.012-0.012 0.027-0.021 0.033-0.036 0.082-0.23 0.166-0.46 0.245-0.693 0.009-0.027-0.006-0.060-0.012-0.1-0.064 0.057-0.115 0.103-0.166 0.148-0.009-0.067-0.006-0.124 0.024-0.166 0.197-0.269 0.312-0.569 0.387-0.892 0.054-0.236 0.045-0.484 0.184-0.705 0.136-0.215 0.257-0.448 0.224-0.723 0.009 0.070 0.015 0.139 0.024 0.212 0.227-0.36 0.454-0.705 0.665-1.059s0.56-0.62 0.665-1.040c0.039 0.021 0.064 0.036 0.097 0.054 0.018-0.085 0.030-0.157 0.045-0.23 0.012 0.009 0.021 0.021 0.033 0.030 0.057-0.033 0.127-0.054 0.175-0.103 0.242-0.236 0.469-0.487 0.717-0.714 0.248-0.23 0.505-0.448 0.771-0.656 0.269-0.209 0.55-0.408 0.838-0.596 0.269-0.175 0.55-0.336 0.832-0.493 0.212-0.118 0.429-0.221 0.65-0.321 0.054-0.024 0.127-0.015 0.194-0.015 0.1-0.003 0.2 0 0.342 0-0.094-0.051-0.142-0.076-0.2-0.109 0.181-0.121 0.188-0.121 0.33-0.039 0.057-0.067 0.112-0.127 0.166-0.191 0.003 0.015 0.003 0.030 0.006 0.045 0.033 0.009 0.067 0.015 0.139 0.033-0.045-0.051-0.057-0.070-0.076-0.088 0.269-0.097 0.535-0.197 0.802-0.281 0.067-0.021 0.148-0.009 0.221-0.009 0.048 0 0.1 0.009 0.142-0.006 0.064-0.024 0.115-0.088 0.175-0.103 0.671-0.166 1.352-0.266 2.042-0.302 1.945-0.1 3.808 0.248 5.583 1.056 0.085 0.039 0.169 0.076 0.272 0.124 0-0.209 0-0.39 0-0.575 0.015 0 0.030 0 0.048 0 0.003 0.163 0.015 0.324 0.009 0.484-0.003 0.094 0.033 0.136 0.112 0.184 0.408 0.23 0.82 0.454 1.21 0.711 0.399 0.263 0.774 0.56 1.14 0.829 0.064-0.009 0.16-0.036 0.169-0.021 0.048 0.1 0.13 0.076 0.209 0.076 0.006 0.045 0.012 0.091 0.021 0.145 0 0 0.027 0.009 0.051 0.015-0.033 0.042-0.064 0.082-0.097 0.124 0.051 0.051 0.094 0.103 0.145 0.142 0.057 0.042 0.127 0.073 0.191 0.106 0.030-0.151 0.067-0.299 0.082-0.454 0.003-0.033-0.073-0.097-0.118-0.106-0.076-0.012-0.154 0.012-0.233 0.021 0.097-0.079 0.191-0.157 0.299-0.245-0.036-0.024-0.079-0.051-0.124-0.079-0.024-0.015-0.070-0.015-0.082-0.033-0.136-0.239-0.366-0.378-0.572-0.541-0.206-0.16-0.417-0.315-0.635-0.46-2.072-1.394-4.37-2.12-6.878-2.15-0.65-0.006-1.304 0.085-1.957 0.13-0.070 0.006-0.178 0.033-0.203 0.003-0.094-0.13-0.191-0.018-0.287-0.012 0.070 0.006 0.139 0.009 0.206 0.015 0 0.009 0 0.021 0 0.030-0.13 0.015-0.263 0.030-0.432 0.048 0.064-0.051 0.091-0.076 0.133-0.109-0.13 0-0.236-0.012-0.336 0.003-0.094 0.012-0.184 0.051-0.296 0.085-0.036-0.036-0.327-0.024-0.381 0.048-0.006 0.009-0.003 0.024-0.006 0.036-0.009 0.030-0.009 0.073-0.030 0.085-0.136 0.079-0.275 0.151-0.405 0.224-0.054-0.045-0.097-0.079-0.139-0.115 0.151-0.054 0.309-0.109 0.469-0.166-0.076-0.003-0.148 0.012-0.218 0.033-0.188 0.057-0.369 0.139-0.56 0.175-0.242 0.048-0.457 0.121-0.605 0.336-0.048 0.070-0.106 0.169-0.175 0.184-0.145 0.033-0.302 0.021-0.454 0.024-0.042 0-0.097-0.021-0.13 0-0.157 0.094-0.309 0.2-0.466 0.296-0.305 0.191-0.614 0.375-0.938 0.572 0.042 0.021 0.064 0.033 0.064 0.033-0.13 0.121-0.305 0.218-0.375 0.366-0.088 0.181-0.254 0.242-0.375 0.366-0.036 0.039-0.094 0.054-0.133 0.091-0.369 0.351-0.738 0.705-1.104 1.059-0.49 0.469-0.901 1.001-1.282 1.561 0 0 0 0 0 0-0.172 0.257-0.342 0.514-0.52 0.78 0.064 0.003 0.106 0.006 0.188 0.012-0.067 0.060-0.106 0.097-0.145 0.13-0.033 0.030-0.070 0.057-0.097 0.091-0.082 0.094-0.151 0.197-0.239 0.281-0.039 0.036-0.112 0.039-0.203 0.070 0.042-0.054 0.054-0.073 0.097-0.124-0.127 0.030-0.215 0.054-0.302 0.076 0.021 0.045 0.042 0.094 0.070 0.148-0.112 0.015-0.227 0.030-0.339 0.045 0 0.021 0 0.039 0 0.060 0.151 0 0.302 0 0.454 0-0.097 0.070-0.191 0.1-0.272 0.151-0.106 0.067-0.157 0.224-0.324 0.2-0.012-0.003-0.045 0.064-0.051 0.103-0.024 0.13-0.033 0.26-0.166 0.336-0.033 0.018-0.057 0.070-0.064 0.109-0.030 0.139 0.1 0.302 0.263 0.336 0.006 0.060 0.012 0.124 0.018 0.2-0.127 0.045-0.248 0.088-0.39 0.136 0.070 0.006 0.118 0.012 0.163 0.018 0.009 0.015 0.018 0.030 0.027 0.042-0.157-0.027-0.206 0.067-0.245 0.163-0.027 0.067-0.048 0.145-0.048 0.218-0.003 0.236-0.082 0.481 0.091 0.702 0.030 0.039-0.015 0.139-0.027 0.212 0 0.009 0.003 0.018 0.003 0.033 0.036 0 0.070 0 0.094 0 0.009 0.070 0.015 0.13 0.021 0.2-0.015 0.027-0.057 0.067-0.067 0.115-0.048 0.324-0.088 0.647-0.136 0.971-0.012 0.088 0.006 0.136 0.076 0.203 0.051 0.048 0.045 0.157 0.064 0.239-0.015 0.003-0.027 0.009-0.042 0.012-0.036-0.021-0.073-0.039-0.136-0.076-0.009 0.242-0.024 0.463-0.021 0.684 0.003 0.127-0.033 0.2-0.163 0.218-0.142 0.018-0.2 0.097-0.148 0.245 0.2-0.076 0.429-0.067 0.496-0.33zM11.088 13.35c0.006-0.027 0.006-0.060-0.003-0.1 0-0.003 0-0.006 0-0.009 0.003-0.021 0.027-0.045 0.039-0.067 0 0 0 0 0 0 0.024 0.042 0.045 0.085 0.070 0.127-0.009 0.003-0.015 0.006-0.024 0.009-0.039 0.012-0.064 0.024-0.082 0.039zM16.635 11.527c0.067-0.048 0.169-0.082 0.242-0.079-0.082 0.024-0.16 0.051-0.242 0.079zM18.831 10.541c0.076 0.109 0.057 0.172-0.057 0.206-0.030 0.009-0.057 0.018-0.085 0.027-0.947 0.305-1.896 0.608-2.843 0.916-0.042 0.012-0.079 0.048-0.115 0.073 0.009 0.012 0.015 0.024 0.024 0.039 0.030-0.006 0.060-0.012 0.094-0.015-0.387 0.127-0.771 0.254-1.158 0.378-0.448 0.148-0.898 0.29-1.346 0.439-0.045 0.015-0.085 0.057-0.127 0.088-0.042 0-0.1-0.012-0.148 0-0.082-0.021-0.16-0.045-0.233-0.027-0.321 0.085-0.632 0.2-0.95 0.296-0.254 0.076-0.508 0.142-0.762 0.215 0 0 0 0 0 0s0 0 0 0 0 0 0 0 0 0 0 0 0 0 0 0v0 0c0 0 0 0 0 0-0.215 0.079-0.43 0.157-0.653 0.239-0.018-0.051-0.036-0.1-0.057-0.154 2.813-0.907 5.62-1.815 8.417-2.719zM5.641 8.913c0.015-0.009 0-0.067 0-0.103 0.048-0.030 0.097-0.060 0.148-0.088 0.027-0.015 0.061-0.036 0.085-0.030 0.021 0.006 0.039 0.045 0.042 0.073 0.027 0.181 0.012 0.363-0.030 0.538-0.009 0.042-0.064 0.076-0.097 0.109-0.088 0.085-0.2 0.148-0.163 0.302 0.009 0.045-0.024 0.1-0.039 0.148-0.015 0-0.027-0.003-0.042-0.003-0.012-0.194-0.030-0.384-0.033-0.578-0.003-0.13-0.015-0.275 0.13-0.369zM4.525 12.876c0 0.115 0 0.23 0 0.342 0 0 0.003-0.003 0.003-0.003-0.051 0.133-0.118 0.269 0.033 0.387 0.012 0.009-0.003 0.054-0.006 0.085-0.070 0.587-0.139 1.177-0.206 1.763-0.018 0.175-0.172 0.112-0.29 0.197 0.027-0.965 0.136-1.881 0.466-2.771z"></path>
    <path d="M22.999 17.709c0 0 0 0 0 0 0 0.003 0.003 0.003 0.003 0.003l-0.003-0.003z"></path>
    <path d="M15.171 20.15c-0.030 0.070-0.29 0.178-0.333 0.124-0.079-0.1-0.154-0.042-0.227-0.018-0.953 0.308-1.902 0.62-2.852 0.935-0.115 0.036-0.269 0.036-0.263 0.224 0 0.015-0.033 0.033-0.051 0.048 0.070 0.009 0.127-0.009 0.181-0.024 0.266-0.085 0.532-0.172 0.799-0.254 0.136-0.042 0.248 0 0.227 0.085-0.048 0.191 0.045 0.345 0.097 0.508 0.085 0.278 0.178 0.553 0.272 0.838 0.079-0.024 0.139-0.042 0.2-0.061 0.402-0.13 0.805-0.26 1.204-0.396 0.088-0.030 0.142-0.015 0.203 0.061 0.266 0.321 0.541 0.635 0.817 0.953 0.142 0.163 0.148 0.166 0.321 0.018 0.315-0.269 0.629-0.535 0.938-0.808 0.079-0.070 0.133-0.076 0.224-0.027 0.224 0.124 0.457 0.236 0.687 0.348 0.085 0.039 0.175 0.067 0.269 0.1-0.079-0.33-0.339-0.448-0.617-0.569 0.272-0.121 0.557-0.133 0.765-0.39-0.254 0.082-0.478 0.139-0.687 0.224-0.169 0.070-0.318 0.073-0.466-0.033-0.079-0.057-0.142-0.036-0.212 0.027-0.16 0.145-0.327 0.284-0.49 0.426-0.181 0.157-0.366 0.312-0.56 0.475-0.148-0.175-0.287-0.336-0.445-0.517 1.742-0.569 3.46-1.131 5.199-1.7-0.021 0.239-0.036 0.457-0.057 0.684-0.478-0.036-0.932-0.073-1.385-0.1-0.054-0.003-0.145 0.036-0.163 0.082-0.070 0.181-0.197 0.278-0.381 0.321-0.036 0.009-0.057 0.070-0.088 0.109 0.012 0.009 0.024 0.018 0.036 0.027 0.064-0.015 0.127-0.030 0.215-0.051-0.157 0.308-0.302 0.59-0.445 0.874 0.051 0.079 0.106 0.157 0.169 0.251 0.212-0.42 0.42-0.82 0.62-1.228 0.048-0.097 0.103-0.127 0.209-0.118 0.36 0.033 0.723 0.061 1.086 0.085 0.118 0.009 0.239 0.012 0.363 0.018 0.009-0.054 0.018-0.094 0.021-0.133 0.033-0.436 0.070-0.874 0.097-1.31 0.006-0.109 0.042-0.16 0.145-0.191 0.378-0.118 0.756-0.245 1.134-0.366 0.085-0.027 0.166-0.057 0.26-0.091-0.051-0.154-0.097-0.29-0.145-0.439-0.109 0.076-0.242 0.109-0.209 0.251-0.166 0.097-0.324 0.188-0.481 0.281-0.006-0.018-0.018-0.045-0.030-0.082-0.305 0.1-0.605 0.2-0.898 0.296-0.024 0.221-0.021 0.221-0.227 0.287-1.382 0.454-2.761 0.904-4.162 1.364 0.030 0.033 0.042 0.061 0.054 0.057 0.097-0.012 0.194-0.018 0.287-0.045 0.212-0.061 0.42-0.133 0.629-0.2 1.004-0.33 2.008-0.656 3.012-0.986 0.118-0.039 0.236-0.076 0.36-0.115 0.015 0.321 0.015 0.321-0.248 0.408-0.257 0.085-0.514 0.169-0.771 0.254-1.358 0.445-2.716 0.889-4.074 1.334-0.236 0.079-0.299 0.048-0.405-0.197 0.393-0.13 0.786-0.257 1.177-0.387 0-0.015-0.003-0.030-0.003-0.048-0.085 0-0.172-0.018-0.248 0.003-0.318 0.094-0.632 0.206-0.95 0.302-0.045 0.012-0.127-0.003-0.151-0.036-0.064-0.088-0.13-0.085-0.221-0.051-0.405 0.136-0.811 0.269-1.219 0.399-0.030 0.009-0.073-0.018-0.109-0.027 0.024-0.027 0.045-0.067 0.073-0.076 0.296-0.1 0.596-0.188 0.889-0.296 0.56-0.203 1.164-0.29 1.673-0.674-0.907 0.296-1.794 0.587-2.692 0.88-0.036-0.109-0.067-0.2-0.097-0.296 0.054-0.021 0.091-0.033 0.13-0.048 0.693-0.227 1.385-0.454 2.078-0.684 0.057-0.018 0.103-0.067 0.163-0.112 0.227 0.051 0.426-0.103 0.647-0.178-0.085-0.027-0.172-0.039-0.248-0.015-0.599 0.191-1.195 0.387-1.794 0.584-0.333 0.109-0.668 0.218-1.016 0.333-0.033-0.106-0.064-0.197-0.097-0.302 2.904-0.95 5.789-1.89 8.681-2.837 0.024 0.061 0.045 0.103 0.070 0.166 0.024-0.042 0.042-0.073 0.057-0.1 0.073 0.030 0.136 0.057 0.203 0.085-0.054-0.175-0.109-0.345-0.16-0.517 0.236-0.079 0.46-0.163 0.693-0.224 0.076-0.021 0.166 0.018 0.254 0.030 0.085-0.021 0.184-0.042 0.287-0.067 0.012-0.018 0.033-0.048 0.054-0.079-0.088 0.009-0.178 0.021-0.269 0.033 0-0.009-0.003-0.021-0.003-0.030 0.085-0.033 0.166-0.067 0.251-0.097-0.097-0.103-0.212-0.127-0.345-0.085-0.188 0.057-0.372 0.118-0.56 0.178-0.339 0.109-0.677 0.23-1.019 0.327-0.248 0.070-0.254 0.057-0.251 0.299 0 0-0.003 0-0.003 0s0 0-0.003 0c-0.033-0.015-0.082-0.024-0.085-0.045-0.039-0.151-0.136-0.142-0.245-0.097-0.097 0.039-0.184 0.1-0.281 0.133-0.33 0.112-0.662 0.218-0.995 0.327-0.181 0.057-0.363 0.115-0.544 0.172 0 0.018 0.003 0.039 0.003 0.057 0.254 0.018 0.508 0.036 0.762 0.054 0 0-0.003 0.003-0.003 0.003-0.036 0.027-0.073 0.061-0.112 0.073-0.302 0.094-0.605 0.175-0.907 0.269-0.275 0.085-0.547 0.181-0.826 0.269-0.142 0.045-0.29 0.067-0.43 0.115-0.269 0.097-0.532 0.203-0.802 0.302-0.018 0.006-0.045-0.018-0.070-0.018-0.033 0-0.064 0.012-0.097 0.021 0.079 0.057 0.003 0.057-0.027 0.067-0.278 0.091-0.56 0.178-0.841 0.269-0.142 0.045-0.281 0.109-0.426 0.145-0.13 0.033-0.275 0.015-0.396 0.067-0.23 0.097-0.475 0.145-0.702 0.272-0.284 0.16-0.626 0.224-0.941 0.327-0.076-0.109-0.064-0.172 0.060-0.209 0.206-0.061 0.405-0.136 0.611-0.2 0.142-0.045 0.29-0.079 0.432-0.124 0.523-0.172 1.046-0.351 1.57-0.52 0.106-0.033 0.224-0.045 0.336-0.057 0.154-0.018 0.203-0.067 0.169-0.188-0.006 0-0.009-0.006-0.015-0.003-0.263 0.045-0.523 0.091-0.783 0.142-0.027 0.012-0.051 0.061-0.067 0.094zM20.144 18.795c0.064-0.015 0.127-0.033 0.191-0.048 0-0.003 0.003-0.009 0.003-0.012 0.003-0.009 0.006-0.018 0.009-0.027-0.003 0.009-0.006 0.018-0.009 0.027 0 0.003-0.003 0.009-0.003 0.012-0.064 0.015-0.127 0.030-0.191 0.048-0.239 0.082-0.478 0.163-0.717 0.245 0.239-0.082 0.478-0.163 0.717-0.245z"></path>
    <path d="M25.098 8.411c0.015 0 0.030 0 0.045-0.003-0.006-0.006-0.009-0.012-0.015-0.018-0.009 0.006-0.018 0.015-0.030 0.021z"></path>
    <path d="M10.867 26.973c0 0.073 0 0.145 0 0.218-0.042-0.175-0.064-0.351-0.091-0.526-0.006-0.039-0.024-0.097-0.051-0.112-0.112-0.064-0.23-0.118-0.345-0.172-0.009 0.006-0.018 0.015-0.027 0.021 0.054 0.124 0.112 0.251 0.172 0.393-0.070 0.048-0.151 0.103-0.263 0.178 0.015-0.094 0.039-0.142 0.030-0.184-0.027-0.109-0.070-0.215-0.1-0.321-0.036-0.136-0.094-0.248-0.227-0.327-0.257-0.154-0.499-0.33-0.75-0.496-0.024-0.015-0.064-0.009-0.097-0.012 0.012 0.103 0.024 0.194 0.033 0.272-0.060-0.033-0.109-0.057-0.151-0.082 0.103-0.051 0.118-0.145 0.042-0.299-0.009 0.094-0.015 0.145-0.021 0.197-0.039-0.091-0.057-0.209-0.124-0.269-0.254-0.221-0.523-0.423-0.789-0.635-0.009-0.009-0.024-0.009-0.042-0.018-0.003 0.039-0.006 0.073-0.009 0.106-0.221-0.064-0.112 0.166-0.203 0.224-0.015-0.157-0.024-0.315-0.042-0.469-0.006-0.051-0.015-0.118-0.048-0.154-0.178-0.184-0.363-0.36-0.553-0.544-0.003 0.045-0.006 0.082-0.006 0.079-0.212-0.293-0.442-0.608-0.671-0.922 0.254-0.115 0.254-0.112 0.408 0.088 0.085 0.109 0.178 0.215 0.275 0.327 0.033-0.051 0.057-0.088 0.085-0.124-0.115-0.139-0.23-0.278-0.36-0.436 0.299-0.097 0.581-0.197 0.862-0.278 0.136-0.039 0.16-0.112 0.118-0.23-0.012 0-0.024-0.006-0.033-0.003-0.56 0.181-1.119 0.363-1.679 0.547-0.030 0.009-0.073 0.042-0.073 0.064 0 0.118 0.009 0.236 0.018 0.357 0.015 0 0.027 0 0.042-0.003 0-0.079 0-0.154 0-0.233 0.015 0 0.030-0.003 0.048-0.003 0.030 0.175 0.067 0.354 0.091 0.529 0.024 0.169 0.067 0.324 0.2 0.442 0.088 0.079 0.169 0.166 0.248 0.254 0.091 0.097 0.172 0.2 0.26 0.299 0.009-0.006 0.015-0.012 0.024-0.018-0.015-0.082-0.030-0.16-0.045-0.242 0.018-0.003 0.039-0.006 0.057-0.009 0.012 0.094 0.018 0.191 0.036 0.284 0.006 0.039 0.042 0.070 0.064 0.106 0.006-0.006 0.012-0.012 0.018-0.015-0.006-0.048-0.009-0.094-0.018-0.184 0.045 0.064 0.085 0.094 0.085 0.124 0.003 0.212 0.166 0.308 0.296 0.426 0.109 0.103 0.221 0.2 0.342 0.29 0.442 0.339 0.889 0.671 1.337 1.010 0.039-0.064 0.057-0.094 0.082-0.133 0.021 0.064 0.036 0.109 0.051 0.157 0.033-0.079 0.060-0.148 0.091-0.221 0.018 0 0.033 0 0.051 0 0.027 0.103 0.054 0.206 0.085 0.305 0.009 0.033 0.018 0.079 0.045 0.097 0.221 0.175 0.505 0.242 0.726 0.433 0.136 0.118 0.366 0.136 0.566 0.203-0.015-0.124-0.030-0.242-0.042-0.357-0.012 0.003-0.018 0.003-0.027 0.003z"></path>
    <path d="M2.656 24.16c-0.079-0.236-0.154-0.457-0.227-0.674-0.012 0.003-0.021 0.003-0.033 0.006 0.012 0.16 0.021 0.324 0.033 0.478-0.061-0.351-0.106-0.708-0.191-1.056-0.076-0.318-0.197-0.623-0.299-0.932-0.091-0.278-0.185-0.56-0.284-0.853-0.054 0.039-0.088 0.064-0.121 0.091-0.070-0.236-0.070-0.236-0.024-0.493 0.006-0.036-0.009-0.079-0.021-0.115-0.157-0.481-0.315-0.959-0.484-1.473-0.021 0.057-0.027 0.076-0.048 0.133-0.042-0.254-0.082-0.475-0.118-0.693-0.024 0.006-0.051 0.009-0.076 0.015 0.021 0.109 0.045 0.221 0.070 0.33 0.021 0.097 0.048 0.194 0.064 0.29 0.003 0.021-0.033 0.051-0.076 0.112 0.082 0.248 0.172 0.535 0.266 0.82 0.064 0.197 0.124 0.393 0.197 0.587 0.024 0.064 0.109 0.109 0.121 0.172 0.021 0.109 0.006 0.227 0.006 0.336-0.345-0.922-0.69-1.851-1.040-2.789 0.242 2.093 1.113 3.983 1.785 5.937 0.027 0.082 0.088 0.154 0.148 0.254 0.018-0.203-0.109-0.375 0.030-0.587 0.067 0.145 0.115 0.26 0.172 0.387 0.169-0.127 0.439-0.067 0.544-0.312-0.003 0.030-0.006 0.061-0.009 0.112 0.118-0.039 0.218-0.073 0.315-0.103-0.051-0.048-0.097-0.094-0.154-0.151-0.166 0.048-0.351 0.109-0.544 0.169z"></path>
    <path d="M23.979 21.481c-1.025 1.467-2.341 2.586-3.968 3.33-1.857 0.85-3.796 1.101-5.81 0.759-0.060-0.009-0.127 0.009-0.2 0.015-0.042-0.070-0.312-0.154-0.826-0.245-0.021 0.236-0.021 0.236 0.184 0.287 1.573 0.411 3.158 0.451 4.739 0.085 2.492-0.575 4.492-1.899 5.998-3.971 0.076-0.103 0.051-0.197 0.006-0.254-0.048-0.061-0.018-0.079 0.006-0.106-0.045 0.033-0.1 0.057-0.13 0.1z"></path>
    <path d="M24.124 21.372l-0.003-0.003c0 0 0.003 0.003 0.003 0.003s0 0 0 0c0-0.003-0.003-0.003-0.003-0.003s0 0 0 0c-0.003 0.006-0.006 0.009-0.012 0.015 0.003-0.006 0.009-0.009 0.015-0.012z"></path>
    <path d="M20.062 5.263c0.874 0.342 1.697 0.789 2.462 1.337 0.145 0.106 0.296 0.203 0.445 0.305 0.109 0.169 0.281 0.209 0.466 0.23-0.148-0.085-0.218-0.302-0.445-0.254 0.012-0.030 0.021-0.061 0.033-0.088-2.689-2.129-6.424-3.034-10.048-2.081-2.054 0.541-3.823 1.573-5.32 3.079 0.027 0.045 0.051 0.082 0.097 0.154 0.048-0.115 0.082-0.2 0.118-0.287 0.021 0.018 0.042 0.039 0.054 0.051 0.284-0.245 0.554-0.487 0.832-0.714 0.898-0.729 1.89-1.295 2.967-1.724 0.060-0.024 0.106-0.079 0.148-0.112 0.076-0.009 0.154-0.003 0.221-0.027 0.871-0.299 1.76-0.511 2.68-0.596 0.774-0.073 1.549-0.073 2.323 0.006 1.022 0.103 2.014 0.348 2.967 0.72z"></path>
    <path d="M15.516 5.91c-0.024-0.039-0.121-0.057-0.181-0.051-0.351 0.033-0.702 0.061-1.050 0.118-0.339 0.054-0.678 0.127-1.010 0.218-0.977 0.263-1.896 0.665-2.749 1.21-0.318 0.203-0.617 0.426-0.944 0.653 0.054 0.021 0.076 0.027 0.073 0.027-0.95 0.65-1.654 1.524-2.302 2.513 0.088 0.015 0.148 0.042 0.191 0.027 0.036-0.015 0.057-0.079 0.082-0.121 0.006 0.021 0.012 0.042 0.027 0.085 0.121-0.23 0.351-0.39 0.321-0.681 0.018 0.033 0.039 0.067 0.070 0.121 0.018-0.027 0.024-0.045 0.036-0.060 0.756-0.992 1.661-1.818 2.728-2.465 0.030-0.018 0.036-0.079 0.064-0.106 0.024-0.024 0.064-0.039 0.097-0.045 0.024-0.006 0.060 0.021 0.079 0.012 0.351-0.172 0.702-0.345 1.053-0.52 0.003-0.003 0.003-0.012 0.006-0.027-0.045 0.009-0.088 0.018-0.136 0.030 0-0.045 0-0.082 0-0.121 0.097 0.076 0.172 0.094 0.2-0.051 0.003-0.021 0.018-0.048 0.033-0.064 0.021-0.015 0.048-0.021 0.076-0.030 0 0.027 0 0.054 0 0.097 0.133-0.015 0.266-0.015 0.39-0.045 0.215-0.054 0.42-0.133 0.635-0.194 0.681-0.197 1.376-0.29 2.081-0.348 0.218-0.024 0.23-0.024 0.133-0.181z"></path>
    <path d="M17.781 24.626c0.188-0.033 0.336-0.051 0.481-0.085 0.109-0.024 0.188-0.006 0.263 0.085 0.103 0.121 0.218 0.227 0.348 0.36 0.027-0.197 0.039-0.363 0.079-0.52 0.015-0.067 0.070-0.142 0.127-0.175 0.145-0.088 0.302-0.154 0.472-0.236-0.16-0.079-0.29-0.151-0.43-0.209-0.121-0.048-0.178-0.124-0.184-0.257-0.009-0.145-0.042-0.287-0.070-0.454-0.127 0.127-0.239 0.23-0.339 0.342-0.079 0.088-0.157 0.118-0.278 0.088-0.145-0.036-0.296-0.048-0.466-0.073 0.088 0.169 0.172 0.315 0.236 0.466 0.024 0.057 0.024 0.145-0.003 0.203-0.057 0.145-0.142 0.29-0.236 0.466z"></path>
    <path d="M6.89 11.469c-0.248 0.566-0.454 1.149-0.671 1.727-0.061 0.16-0.106 0.33 0.076 0.457 0.021 0.015 0.012 0.064 0.024 0.127 0.257-1.11 0.659-2.132 1.249-3.064-0.094-0.009-0.169-0.015-0.257-0.024-0.188 0.23-0.302 0.508-0.42 0.777z"></path>
    <path d="M12.622 7.546c0.333 0.057 0.191 0.372 0.299 0.587 0.076-0.079 0.148-0.148 0.209-0.227 0.076-0.097 0.157-0.148 0.281-0.1 0.051 0.018 0.109 0.027 0.163 0.030 0.036 0 0.076-0.015 0.106-0.036 0.012-0.009 0.006-0.067-0.009-0.079-0.021-0.018-0.057-0.015-0.091-0.018-0.018-0.003-0.033 0-0.060 0.003 0.006-0.082 0.181-0.188-0.039-0.212 0.036-0.076 0.067-0.139 0.097-0.197-0.033-0.054-0.054-0.1-0.088-0.136-0.039-0.045-0.1-0.121-0.133-0.112-0.118 0.027-0.166-0.048-0.224-0.115-0.064-0.076-0.121-0.157-0.181-0.233-0.018 0.012-0.033 0.024-0.051 0.039-0.015 0.109-0.039 0.218-0.042 0.33-0.003 0.118-0.079 0.169-0.166 0.206-0.136 0.054-0.006 0.178-0.070 0.248-0.009 0-0.003 0.006 0 0.021z"></path>
    <path d="M20.885 23.598c0.033-0.184 0.021-0.348 0.094-0.448 0.079-0.106 0.242-0.148 0.411-0.242-0.372-0.057-0.514-0.269-0.508-0.617-0.181 0.293-0.414 0.372-0.738 0.254 0.239 0.275 0.188 0.526-0.003 0.789 0.327-0.142 0.563-0.048 0.744 0.263z"></path>
    <path d="M21.931 18.834c-0.003-0.015-0.006-0.030-0.009-0.042-0.284 0.030-5.308 1.636-5.526 1.781 0.118 0 0.197 0.015 0.269-0.003 0.085-0.024 0.16-0.091 0.245-0.118 0.109-0.033 0.23-0.036 0.342-0.070 0.327-0.1 0.65-0.212 0.974-0.318 1.080-0.354 2.16-0.705 3.239-1.062 0.082-0.027 0.151-0.097 0.233-0.127 0.070-0.027 0.154-0.030 0.233-0.042z"></path>
    <path d="M16.895 24.402c-0.16-0.085-0.318-0.121-0.387-0.218-0.076-0.103-0.067-0.263-0.103-0.445-0.181 0.299-0.417 0.396-0.75 0.23 0.082 0.175 0.184 0.302 0.191 0.436 0.003 0.121-0.097 0.245-0.16 0.381 0.091-0.012 0.175-0.012 0.254-0.039 0.133-0.045 0.215 0.006 0.293 0.109 0.048 0.064 0.115 0.112 0.175 0.169 0.012 0 0.024 0 0.039-0.003-0.067-0.354 0.121-0.529 0.448-0.62z"></path>
    <path d="M12.216 27.578c0.030-0.088 0.030-0.172 0.045-0.254 0.021-0.118-0.027-0.172-0.139-0.203-0.142-0.042-0.275-0.109-0.42-0.142-0.175-0.042-0.327-0.224-0.532-0.097 0 0.042 0 0.082 0 0.121 0 0.033-0.003 0.067-0.006 0.094-0.064-0.142-0.127-0.287-0.203-0.454-0.024 0.045-0.036 0.057-0.036 0.070 0.012 0.206 0.027 0.411 0.042 0.617 0.003 0.021 0.021 0.048 0.039 0.057 0.157 0.064 0.315 0.124 0.445 0.175 0.036-0.166 0.064-0.299 0.091-0.433 0.024 0 0.051 0.003 0.076 0.003 0.012 0.133 0.024 0.266 0.036 0.399 0.009 0 0.015 0 0.024 0 0.012-0.048 0.027-0.1 0.042-0.154 0.024 0.030 0.042 0.048 0.082 0.094 0.006-0.106 0.009-0.181 0.015-0.26 0.003 0 0.009 0 0.012-0.003 0.027 0.169 0.051 0.339 0.079 0.505 0.006 0 0.015-0.003 0.021-0.003 0-0.13 0-0.257 0-0.417 0.042 0.094 0.073 0.157 0.1 0.224 0.003-0.006 0.009-0.009 0.012-0.015-0.012-0.094-0.024-0.191-0.036-0.284 0.018-0.006 0.039-0.009 0.057-0.015 0.054 0.124 0.106 0.248 0.154 0.375z"></path>
    <path d="M10.749 24.293c-0.572-0.442-1.143-0.883-1.7-1.316-0.009 0.275-0.009 0.275 0.2 0.463 0.060 0.054 0.118 0.109 0.184 0.157 0.405 0.305 0.814 0.608 1.228 0.916 0.042-0.109 0.073-0.178 0.088-0.221z"></path>
    <path d="M15.059 7.428c0.091-0.030 0.206 0.012 0.357 0.027-0.194-0.206-0.178-0.402-0.033-0.611-0.251 0.103-0.426 0.027-0.566-0.188-0.030 0.133-0.024 0.254-0.082 0.333-0.054 0.076-0.172 0.109-0.302 0.184 0.287 0.051 0.378 0.224 0.366 0.487 0.103-0.1 0.169-0.203 0.26-0.233z"></path>
    <path d="M11.327 7.77c-0.006 0.275-0.051 0.478-0.381 0.499 0.157 0.085 0.26 0.142 0.348 0.188 0.012 0.112 0.024 0.212 0.036 0.312 0.015 0.009 0.033 0.021 0.048 0.030 0.067-0.082 0.118-0.2 0.203-0.233 0.091-0.033 0.212 0.015 0.363 0.033-0.194-0.2-0.194-0.393-0.039-0.611-0.257 0.112-0.42 0-0.578-0.218z"></path>
    <path d="M18.598 20.316c0.121-0.012 0.251-0.003 0.366-0.039 0.814-0.257 1.627-0.523 2.438-0.792 0.064-0.021 0.112-0.088 0.166-0.136-0.009-0.012-0.021-0.027-0.030-0.039-0.983 0.324-1.966 0.644-2.946 0.968 0 0.012 0.003 0.027 0.006 0.039z"></path>
    <path d="M11.357 21.329c-0.042 0.009-0.085 0.018-0.127 0.033-0.423 0.139-0.847 0.281-1.273 0.417-0.115 0.036-0.215 0.079-0.224 0.251 0.067-0.012 0.124-0.015 0.178-0.033 0.448-0.145 0.895-0.296 1.346-0.433 0.136-0.045 0.151-0.112 0.1-0.236z"></path>
    <path d="M18.175 20.41c-0.693 0.224-1.385 0.454-2.078 0.684-0.030 0.009-0.051 0.054-0.079 0.085 0.036 0.009 0.079 0.039 0.109 0.027 0.372-0.124 0.741-0.254 1.11-0.381 0.085-0.030 0.172-0.061 0.257-0.085 0.287-0.085 0.578-0.166 0.865-0.248 0-0.021 0-0.042-0.003-0.064-0.057-0.009-0.127-0.036-0.181-0.018z"></path>
    <path d="M16.913 6.088c0.006-0.048 0.012-0.118 0.021-0.191-0.051-0.006-0.094-0.018-0.139-0.015-0.169 0.003-0.339 0.015-0.508 0.009-0.148-0.006-0.293-0.036-0.442-0.045-0.106-0.006-0.203 0.009-0.109 0.154 0.006 0.012-0.021 0.042-0.042 0.088 0.423 0 0.82 0 1.219 0z"></path>
    <path d="M16.557 19.741c0.079 0.009 0.16 0 0.239 0.009 0.188 0.015 0.33-0.106 0.493-0.166 0.203-0.073 0.399-0.16 0.599-0.245 0.024-0.009 0.042-0.030 0.064-0.045-0.006-0.015-0.012-0.027-0.018-0.042-0.118 0.039-0.236 0.079-0.369 0.121 0.015-0.039 0.027-0.061 0.042-0.1-0.578 0.191-1.14 0.375-1.7 0.563 0.236 0.039 0.423-0.127 0.65-0.094z"></path>
    <path d="M23.906 7.728c0.254 0.284 0.499 0.557 0.741 0.832 0.088 0.097 0.085 0.1 0.224 0.033-0.188-0.2-0.318-0.454-0.55-0.55-0.027-0.064-0.033-0.106-0.057-0.133-0.054-0.061-0.118-0.115-0.175-0.172-0.16-0.151-0.318-0.309-0.481-0.457-0.015-0.015-0.070 0.009-0.106 0.018 0.006 0.030 0.003 0.073 0.021 0.088 0.121 0.106 0.212 0.26 0.402 0.257 0.006 0 0.015 0.012 0.027 0.021-0.009 0.012-0.015 0.024-0.021 0.036-0.009 0.012-0.021 0.024-0.024 0.027z"></path>
    <path d="M15.011 27.288c-0.118-0.021-0.239-0.024-0.36-0.039-0.296-0.039-0.596-0.082-0.892-0.121-0.009 0.009-0.018 0.021-0.024 0.030 0.042 0.042 0.082 0.112 0.13 0.121 0.381 0.061 0.759 0.166 1.152 0.127 0.024-0.003 0.057 0.009 0.076 0.027 0.091 0.085 0.169 0.039 0.248-0.045-0.079 0-0.157 0-0.236 0-0.021-0.051-0.054-0.094-0.094-0.1z"></path>
    <path d="M12.482 26.937c0.312 0.094 0.629 0.175 0.944 0.26 0.079 0.021 0.163 0.027 0.242 0.042 0.027-0.1 0.012-0.151-0.088-0.16-0.064-0.006-0.127-0.027-0.191-0.042-0.348-0.091-0.696-0.181-1.046-0.272-0.009 0.012-0.021 0.024-0.030 0.036 0.057 0.045 0.106 0.118 0.169 0.136z"></path>
    <path d="M9.945 25.651c-0.197-0.124-0.384-0.263-0.578-0.393-0.015 0.015-0.030 0.027-0.048 0.042 0.048 0.070 0.082 0.154 0.148 0.2 0.175 0.124 0.36 0.236 0.544 0.348 0.148 0.091 0.299 0.172 0.457 0.26 0.039-0.118 0.003-0.178-0.091-0.224-0.148-0.073-0.296-0.145-0.432-0.233z"></path>
    <path d="M24.312 7.471c-0.003 0-0.003 0 0 0-0.003 0-0.003 0.003-0.003 0.003l0.003-0.003z"></path>
    <path d="M4.28 23.737c0.042 0.018 0.094 0.061 0.13 0.051 0.136-0.030 0.266-0.091 0.405-0.118 0.118-0.024 0.209-0.067 0.227-0.206 0.033 0.042 0.054 0.073 0.091 0.118 0.021-0.085 0.039-0.145 0.064-0.245-0.302 0.1-0.575 0.184-0.844 0.281-0.033 0.009-0.048 0.076-0.073 0.118z"></path>
    <path d="M11.336 24.844c0.142 0.106 0.315 0.166 0.475 0.245 0.018-0.009 0.036-0.015 0.054-0.024-0.027-0.088-0.027-0.215-0.085-0.251-0.163-0.109-0.351-0.181-0.529-0.266-0.012 0.006-0.024 0.012-0.036 0.018 0.039 0.094 0.051 0.227 0.121 0.278z"></path>
    <path d="M12.461 25.101c-0.012 0.009-0.027 0.015-0.039 0.024 0.030 0.079 0.039 0.206 0.094 0.233 0.194 0.091 0.402 0.145 0.605 0.215 0.009-0.018 0.015-0.036 0.024-0.051-0.060-0.024-0.121-0.051-0.178-0.076 0.051-0.033 0.136-0.067 0.133-0.085-0.018-0.085-0.079-0.1-0.157-0.061-0.012 0.006-0.042-0.006-0.051-0.018-0.103-0.139-0.212-0.106-0.342-0.024 0.015-0.036 0.033-0.070 0.051-0.112-0.054-0.021-0.097-0.033-0.139-0.045z"></path>
    <path d="M7.985 22.424c0 0.064 0 0.118 0 0.191 0.188-0.045 0.357-0.16 0.49 0.018 0.012-0.127 0.021-0.251 0.033-0.381-0.163 0.054-0.345 0.115-0.523 0.172z"></path>
    <path d="M12.355 25.298c0.018-0.003 0.033-0.009 0.051-0.012-0.027-0.082-0.030-0.203-0.085-0.239-0.133-0.085-0.29-0.127-0.448-0.191-0.012 0.115-0.045 0.224 0.073 0.287 0.067 0.036 0.142 0.057 0.218 0.088 0.009-0.057 0.015-0.1 0.018-0.136 0.169-0.021 0.109 0.142 0.172 0.203z"></path>
    <path d="M19.59 26.244c0.051-0.027 0.103-0.051 0.154-0.079 0.009-0.003 0.006-0.024 0.012-0.039-0.039-0.009-0.076-0.015-0.124-0.024 0.033-0.027 0.057-0.045 0.079-0.061-0.003-0.015-0.009-0.030-0.012-0.045-0.13 0.027-0.263 0.054-0.42 0.088 0.057 0.042 0.085 0.061 0.133 0.097-0.121 0.048-0.221 0.085-0.351 0.136 0.091-0.009 0.16 0.018 0.239 0.051 0.030 0.012 0.109-0.012 0.109-0.015-0.015-0.166 0.121-0.076 0.181-0.109z"></path>
    <path d="M8.006 24.151c-0.018 0.366 0.312 0.411 0.493 0.596-0.009-0.061 0.006-0.142-0.030-0.178-0.142-0.142-0.299-0.269-0.463-0.417z"></path>
    <path d="M26.858 19.475c0 0-0.003 0.003 0 0-0.003 0.003-0.003 0.003 0 0 0 0.003 0 0.003 0 0z"></path>
    <path d="M26.501 20.189c0.088-0.048 0.251-0.039 0.163-0.209 0.136-0.085 0.136-0.242 0.191-0.366 0.015-0.036 0.003-0.088 0.003-0.133-0.263 0.166-0.236 0.472-0.357 0.708z"></path>
    <path d="M22.999 17.709c0 0 0.003 0.006 0.003 0.006 0-0.003 0-0.003 0-0.006 0 0 0 0-0.003 0z"></path>
    <path d="M23.58 17.388c-0.085 0.015-0.16 0.051-0.239 0.085-0.045 0.021-0.124 0.064-0.136 0.051-0.094-0.103-0.169-0.003-0.236 0.006 0.012 0.064 0.024 0.121 0.036 0.178 0.212-0.067 0.46-0.067 0.575-0.321z"></path>
    <path d="M9.104 25.264c0.036-0.175-0.015-0.251-0.236-0.369-0.027-0.015-0.073 0.009-0.097 0.012-0.039-0.067-0.085-0.139-0.13-0.209-0.015 0.012-0.033 0.024-0.048 0.036 0.036 0.29 0.342 0.33 0.511 0.529z"></path>
    <path d="M11.769 26.689c0.154 0.070 0.318 0.121 0.478 0.178 0.009-0.012 0.018-0.021 0.030-0.033-0.027-0.045-0.039-0.118-0.079-0.136-0.148-0.064-0.305-0.112-0.46-0.166-0.012 0.009-0.024 0.018-0.033 0.024 0.018 0.048 0.027 0.118 0.064 0.133z"></path>
    <path d="M8.977 22.098c-0.115 0.039-0.218 0.073-0.321 0.109-0.018 0.006-0.036 0.015-0.054 0.024 0.027 0.054 0.054 0.106 0.079 0.151 0.097-0.024 0.178-0.042 0.257-0.070 0.054-0.018 0.112-0.048 0.048-0.124-0.015-0.018-0.006-0.054-0.009-0.091z"></path>
    <path d="M11.236 24.777c-0.036-0.112-0.045-0.218-0.1-0.293-0.036-0.051-0.133-0.064-0.2-0.091-0.012 0.248 0.024 0.302 0.299 0.384z"></path>
    <path d="M24.423 21.226c-0.070-0.033-0.133-0.064-0.224-0.109-0.024 0.082-0.051 0.166-0.076 0.251 0.048 0.036 0.097 0.070 0.151 0.109 0.048-0.082 0.1-0.166 0.148-0.251z"></path>
    <path d="M24.714 7.825c-0.073-0.085-0.145-0.172-0.224-0.266 0.009-0.033 0.021-0.079 0.033-0.124-0.073 0.012-0.142 0.024-0.212 0.036 0.018 0.172 0.281 0.39 0.402 0.354z"></path>
    <path d="M24.312 7.471c0 0-0.003 0.003-0.003 0.003s0 0 0.003-0.003c0 0 0 0 0 0z"></path>
    <path d="M9.367 26.87c-0.097-0.024-0.197-0.045-0.293-0.067 0.203 0.175 0.463 0.184 0.711 0.215-0.133-0.070-0.275-0.109-0.417-0.148z"></path>
    <path d="M9.062 26.801c0.003 0 0.006 0.003 0.012 0.003-0.003-0.003-0.006-0.003-0.009-0.006l-0.003 0.003z"></path>
    <path d="M1.739 16.563c0.003-0.057 0.006-0.103 0.012-0.175-0.151 0.051-0.275 0.094-0.363 0.124 0.030 0.061 0.060 0.124 0.094 0.191 0.097-0.079 0.088-0.278 0.257-0.139z"></path>
    <path d="M21.396 25.24c0.067 0.012 0.136 0.030 0.206 0.036 0.076 0.006 0.151 0 0.263 0-0.115-0.073-0.106-0.239-0.278-0.197 0.018 0.024 0.030 0.042 0.048 0.067-0.045 0.015-0.088 0.027-0.13 0.045-0.042 0.015-0.079 0.036-0.109 0.048z"></path>
    <path d="M10.792 26.271c0.009-0.181-0.033-0.224-0.26-0.269-0.030 0.203 0.154 0.194 0.26 0.269z"></path>
    <path d="M9.062 26.801c0 0 0.003-0.003 0.003-0.003-0.003 0-0.006 0-0.006 0.003 0.003 0 0.003 0 0.003 0z"></path>
    <path d="M8.656 26.674c0.175 0.148 0.26 0.175 0.402 0.127-0.124-0.073-0.233-0.197-0.402-0.127z"></path>
    <path d="M21.251 25.267c-0.124 0.039-0.245 0.076-0.396 0.124 0.197 0.097 0.296-0.006 0.396-0.124z"></path>
    <path d="M7.513 8.191c0.048-0.103 0.094-0.209 0.157-0.345-0.209 0.070-0.191 0.203-0.157 0.345z"></path>
    <path d="M18.265 26.211c0.109 0 0.218 0 0.324 0-0.003-0.024-0.003-0.048-0.006-0.073-0.109 0.012-0.218 0.024-0.327 0.036 0.003 0.012 0.006 0.024 0.009 0.036z"></path>
    <path d="M17.863 26.305c0.148 0.061 0.251 0.021 0.348-0.051-0.045 0.012-0.088 0.024-0.136 0.039 0.003-0.024 0.009-0.048 0.012-0.079-0.073 0.030-0.133 0.054-0.224 0.091z"></path>
    <path d="M8.95 22.851c0-0.012-0.003-0.024-0.006-0.033 0 0.012 0.003 0.024 0.006 0.033z"></path>
    <path d="M9.016 23.208c-0.024-0.13-0.045-0.245-0.067-0.354 0.006 0.112-0.106 0.254 0.067 0.354z"></path>
    <path d="M13.598 7.020c-0.024 0.021-0.027 0.070-0.030 0.106-0.003 0.015 0.018 0.030 0.027 0.048 0.027-0.021 0.060-0.039 0.082-0.067 0.024-0.030 0.036-0.070 0.073-0.139-0.073 0.021-0.121 0.024-0.151 0.051z"></path>
    <path d="M4.020 23.909c0.184-0.018 0.133-0.121 0.115-0.215-0.166 0.012-0.079 0.127-0.115 0.215z"></path>
    <path d="M6.022 23.068c-0.009 0.024-0.033 0.048-0.027 0.070 0.015 0.076 0.042 0.148 0.064 0.221 0.012-0.003 0.024-0.006 0.033-0.009-0.003-0.073-0.003-0.148-0.015-0.221 0-0.024-0.033-0.042-0.054-0.061z"></path>
    <path d="M20.549 25.567c0.106-0.024 0.209-0.051 0.336-0.082-0.16-0.124-0.239 0.027-0.336 0.082z"></path>
    <path d="M21.136 25.66c-0.003-0.003-0.003-0.003 0 0v0z"></path>
    <path d="M10.329 12.758c0.012 0.021 0.042 0.048 0.060 0.045 0.064-0.009 0.127-0.027 0.191-0.048 1.273-0.411 2.547-0.82 3.817-1.231 0.318-0.103 0.635-0.209 0.956-0.312-0.006-0.024-0.012-0.051-0.018-0.076-0.13 0.033-0.263 0.060-0.393 0.097-0.085 0.024-0.166 0.067-0.251 0.094-0.042 0.012-0.088 0.006-0.13 0.021-1.37 0.439-2.74 0.88-4.107 1.319-0.027 0.009-0.060 0.015-0.085 0.030-0.021 0.015-0.045 0.048-0.039 0.060z"></path>
    <path d="M13.257 11.445c-0.003-0.012-0.009-0.024-0.012-0.036-0.115 0.009-0.233 0-0.342 0.033-0.789 0.248-1.579 0.502-2.368 0.762-0.067 0.021-0.118 0.082-0.178 0.121 0.009 0.018 0.018 0.033 0.030 0.051 0.956-0.315 1.912-0.623 2.87-0.932z"></path>
    <path d="M15.67 10.662c0.033-0.012 0.057-0.051 0.088-0.079-0.042-0.009-0.091-0.039-0.127-0.027-0.206 0.064-0.411 0.133-0.614 0.203-0.224 0.076-0.448 0.16-0.674 0.23-0.281 0.085-0.569 0.16-0.853 0.239 0 0.024-0.003 0.051-0.003 0.076 0.064 0.003 0.13 0.021 0.188 0.003 0.668-0.209 1.334-0.423 1.996-0.644z"></path>
    <path d="M21.060 12.824c0.26-0.245 0.523-0.487 0.783-0.732 0.033-0.033 0.076-0.082 0.073-0.121-0.018-0.227-0.048-0.454-0.076-0.693-0.048 0.012-0.079 0.018-0.106 0.027-0.65 0.212-1.301 0.42-1.951 0.632s-1.301 0.42-1.951 0.635c-0.045 0.015-0.118 0.070-0.115 0.103 0.015 0.212 0.045 0.426 0.073 0.653 0.245-0.076 0.469-0.148 0.732-0.23-0.1 0.13-0.172 0.224-0.257 0.336 0.236 0.048 0.451 0.091 0.665 0.136 0 0.012-0.003 0.021-0.003 0.033-0.342 0.112-0.687 0.224-1.037 0.339 0.13 1.068 0.257 2.126 0.387 3.224-0.16-0.115-0.357-0.13-0.387-0.327-0.070-0.493-0.124-0.989-0.184-1.485-0.036-0.287-0.070-0.575-0.109-0.88-0.082 0.024-0.142 0.039-0.203 0.057-0.339 0.109-0.681 0.221-1.019 0.333-0.296 0.097-0.299 0.097-0.266 0.396 0.024 0.218 0.054 0.436 0.085 0.662 0.181-0.054 0.342-0.103 0.514-0.157 0.057 0.475 0.112 0.922 0.16 1.373 0.006 0.064-0.015 0.139-0.048 0.191-0.115 0.166-0.242 0.321-0.36 0.487-0.024 0.033-0.042 0.1-0.024 0.13 0.151 0.281 0.312 0.56 0.475 0.85 0.224-0.33 0.439-0.65 0.659-0.977 0.324 0.257 0.677 0.272 1.040 0.23 0.163-0.018 0.327-0.057 0.487-0.106 1.065-0.324 2.123-0.656 3.188-0.977 0.178-0.054 0.293-0.121 0.308-0.333 0.015-0.203 0.082-0.402 0.124-0.605 0.006-0.030 0.003-0.064 0.006-0.103-0.048 0.015-0.082 0.024-0.115 0.036-0.59 0.2-1.18 0.405-1.772 0.599-0.635 0.206-1.273 0.408-1.915 0.599-0.148 0.042-0.308 0.033-0.466 0.051-0.003-0.018-0.003-0.033-0.006-0.051 0.215-0.070 0.426-0.145 0.641-0.209 0.094-0.027 0.13-0.061 0.112-0.166-0.033-0.181-0.051-0.369-0.067-0.553-0.003-0.042 0.024-0.118 0.057-0.13 0.191-0.073 0.39-0.13 0.596-0.197 0.033 0.254 0.064 0.49 0.097 0.738 0.296-0.097 0.575-0.184 0.85-0.278 0.027-0.009 0.067-0.054 0.067-0.079-0.015-0.148-0.042-0.296-0.067-0.442 0.033 0.024 0.082 0.042 0.097 0.076 0.073 0.145 0.136 0.296 0.209 0.454 0.254-0.094 0.499-0.181 0.747-0.272 0.036-0.015 0.076-0.027 0.112-0.045 0.387-0.188 0.55-0.505 0.496-0.941-0.073-0.566-0.139-1.128-0.209-1.694-0.033-0.272-0.070-0.544-0.106-0.832-0.372 0.121-0.729 0.233-1.086 0.348 0.006-0.064 0.033-0.088 0.064-0.115zM18.904 14.309c0.218-0.070 0.433-0.142 0.65-0.212 0.073 0.251 0.070 0.257-0.145 0.327-0.151 0.048-0.305 0.097-0.481 0.151-0.009-0.1-0.015-0.175-0.024-0.266zM19.064 15.483c-0.012-0.015-0.021-0.021-0.024-0.030-0.033-0.299-0.097-0.233 0.206-0.333 0.136-0.045 0.272-0.088 0.426-0.136 0.015 0.106 0.024 0.194 0.039 0.29-0.224 0.073-0.436 0.142-0.647 0.209zM19.862 12.981c0 0-0.369-0.070-0.553-0.106 0-0.012-0.003-0.024-0.003-0.036 0.021-0.006 0.042-0.012 0.061-0.021 0 0.009 0.327-0.133 0.327-0.133l0.454-0.166-0.181 0.429-0.015 0.015-0.088 0.018zM21.432 15.383c0.012 0.133-0.061 0.203-0.175 0.242-0.118 0.039-0.242 0.073-0.36 0.115-0.057 0.021-0.109 0.064-0.166 0.094 0.012-0.245 0.012-0.245 0.26-0.327 0.133-0.045 0.269-0.088 0.402-0.13 0.009-0.003 0.021 0.003 0.039 0.006zM21.323 14.46c0.064 0.272 0.064 0.272-0.191 0.354-0.157 0.051-0.315 0.1-0.469 0.148-0.012-0.018-0.021-0.024-0.021-0.033-0.042-0.248-0.042-0.248 0.197-0.327 0.148-0.048 0.293-0.097 0.442-0.142 0.009-0.003 0.021 0 0.042 0zM21.226 13.553c0.012 0.103 0.018 0.181 0.030 0.269-0.236 0.076-0.466 0.151-0.714 0.233-0.012-0.097-0.024-0.178-0.036-0.266 0.239-0.079 0.466-0.154 0.72-0.236z"></path>
    <path d="M6.69 21.98c-0.039-0.254-0.064-0.508-0.097-0.771 0.375-0.121 0.735-0.236 1.098-0.354 0.018 0.076 0.033 0.127 0.048 0.188 0.269-0.088 0.532-0.172 0.795-0.257 0.209-0.070 0.206-0.070 0.178-0.278-0.088-0.714-0.175-1.431-0.26-2.144-0.039-0.318-0.079-0.635-0.118-0.965-0.708 0.23-1.397 0.454-2.111 0.684-0.018-0.115-0.033-0.218-0.054-0.342-0.345 0.112-0.684 0.221-1.022 0.33 0.009 0.124 0.018 0.233 0.027 0.351-0.696 0.227-1.388 0.451-2.090 0.681 0.133 1.11 0.266 2.208 0.402 3.321 0.351-0.115 0.678-0.221 0.998-0.327-0.003-0.203-0.003-0.203 0.184-0.263 0.048-0.015 0.094-0.033 0.142-0.048 0.242-0.079 0.484-0.154 0.744-0.236 0.039 0.312 0.079 0.605 0.118 0.91 0.312-0.1 0.602-0.2 0.895-0.287 0.109-0.030 0.136-0.082 0.121-0.191zM4.201 19.651c0-0.027 0.033-0.073 0.061-0.082 0.333-0.112 0.665-0.218 0.998-0.327 0.009 0.018 0.015 0.027 0.018 0.036 0.070 0.315 0.073 0.318-0.233 0.414-0.26 0.085-0.523 0.169-0.808 0.263-0.015-0.118-0.033-0.212-0.036-0.305zM5.387 20.746c-0.333 0.112-0.665 0.218-1.007 0.33-0.076-0.393-0.076-0.393 0.275-0.505 0.242-0.076 0.487-0.154 0.75-0.239 0.018 0.124 0.036 0.236 0.045 0.348 0 0.021-0.036 0.057-0.064 0.067zM6.324 18.958c0-0.027 0.039-0.070 0.067-0.079 0.009-0.003 0.018-0.006 0.027-0.009-0.012 0.012 0.926-0.278 0.926-0.278s0.039 0.127 0.054 0.327c-0.042 0.030-0.115 0.051-0.224 0.088-0.266 0.085-0.532 0.172-0.814 0.266-0.015-0.118-0.033-0.215-0.036-0.315zM6.491 20.349c-0.054-0.354-0.054-0.354 0.287-0.466 0.251-0.082 0.505-0.163 0.774-0.251 0.018 0.139 0.033 0.26 0.051 0.396-0.369 0.121-0.729 0.236-1.095 0.354-0.012-0.024-0.018-0.027-0.018-0.033z"></path>
    <path d="M15.655 14.957c-0.269-0.184-0.52-0.357-0.768-0.529-0.227 0.33-0.445 0.641-0.69 0.992-0.076-0.623-0.148-1.198-0.218-1.784-0.336 0.109-0.656 0.215-0.98 0.321 0.054 0.448 0.106 0.883 0.157 1.316 0.118 0.965 0.233 1.93 0.354 2.895 0.042 0.333 0.076 0.671 0.157 0.998 0.073 0.293 0.315 0.426 0.608 0.354 0.321-0.082 0.638-0.184 0.947-0.305 0.296-0.118 0.52-0.345 0.566-0.662 0.064-0.433 0.070-0.871 0.097-1.307 0.003-0.027-0.045-0.085-0.070-0.088-0.281-0.006-0.563-0.003-0.856-0.003 0 0.351 0.003 0.668 0 0.983 0 0.064 0.003 0.148-0.033 0.188-0.060 0.070-0.148 0.13-0.233 0.157-0.027 0.009-0.097-0.112-0.136-0.178-0.018-0.033-0.015-0.079-0.018-0.118-0.054-0.46-0.109-0.919-0.169-1.379-0.015-0.103 0.009-0.178 0.073-0.26 0.399-0.52 0.802-1.050 1.213-1.588z"></path>
    <path d="M25.573 15.788c0.197-0.039 0.39-0.1 0.581-0.157 1.001-0.305 1.999-0.617 3-0.922 0.091-0.027 0.136-0.064 0.151-0.169 0.033-0.254 0.085-0.505 0.13-0.759 0.006-0.033 0-0.067 0-0.115-0.305 0.103-0.599 0.203-0.895 0.296-0.871 0.278-1.742 0.563-2.616 0.832-0.354 0.109-0.702 0.082-1.001-0.16-0.054-0.045-0.103-0.127-0.112-0.197-0.057-0.387-0.1-0.78-0.148-1.168-0.042-0.348-0.085-0.693-0.13-1.053-0.581 0.188-1.14 0.372-1.706 0.553 0.039 0.33 0.079 0.641 0.118 0.965 0.227-0.073 0.439-0.139 0.668-0.212 0.048 0.387 0.088 0.753 0.142 1.116 0.021 0.151-0.003 0.269-0.112 0.381-0.103 0.103-0.169 0.242-0.278 0.336-0.206 0.178-0.224 0.348-0.073 0.578 0.139 0.215 0.233 0.46 0.348 0.699 0.248-0.366 0.487-0.717 0.726-1.071 0.375 0.299 0.786 0.312 1.207 0.227z"></path>
    <path d="M26.928 10.338c-0.514 0.157-1.025 0.327-1.536 0.493-0.2 0.064-0.396 0.13-0.599 0.197 0.036 0.302 0.073 0.587 0.109 0.889 0.768-0.248 1.512-0.49 2.265-0.735 0.009 0.042 0.015 0.070 0.018 0.1 0.064 0.514 0.133 1.028 0.191 1.543 0.009 0.088-0.018 0.206-0.076 0.263-0.091 0.094-0.215 0.169-0.336 0.212-0.308 0.109-0.623 0.197-0.944 0.293 0.109 0.296 0.218 0.587 0.336 0.907 0.493-0.188 0.992-0.348 1.467-0.563 0.445-0.2 0.659-0.578 0.65-1.068-0.003-0.151-0.024-0.299-0.042-0.451-0.064-0.523-0.127-1.046-0.191-1.585 0.251-0.085 0.499-0.166 0.75-0.248-0.036-0.299-0.073-0.587-0.109-0.889-0.257 0.082-0.493 0.157-0.744 0.236-0.039-0.312-0.079-0.602-0.118-0.91-0.324 0.106-0.629 0.209-0.935 0.299-0.1 0.030-0.124 0.076-0.109 0.172 0.033 0.209 0.051 0.42 0.085 0.629 0.009 0.118-0.015 0.178-0.133 0.215z"></path>
    <path d="M9.298 16.248c0.039 0.263 0.067 0.529 0.097 0.802 0.181-0.057 0.354-0.112 0.541-0.169 0.036 0.302 0.076 0.59 0.106 0.88 0.003 0.030-0.036 0.079-0.070 0.097-0.148 0.085-0.305 0.157-0.454 0.239-0.036 0.021-0.091 0.073-0.085 0.103 0.057 0.315 0.124 0.629 0.191 0.962 0.191-0.112 0.36-0.212 0.532-0.312 0.012 0.018 0.018 0.027 0.021 0.036 0.033 0.275 0.067 0.55 0.1 0.826 0.024 0.212-0.036 0.305-0.239 0.375-0.121 0.042-0.245 0.082-0.378 0.127 0.051 0.148 0.094 0.281 0.139 0.414 0.045 0.136 0.091 0.275 0.142 0.42 0.272-0.106 0.535-0.209 0.795-0.315 0.451-0.181 0.617-0.484 0.55-0.968-0.051-0.369-0.076-0.744-0.145-1.107-0.051-0.266-0.018-0.454 0.26-0.547 0.039-0.012 0.091-0.079 0.088-0.118-0.030-0.29-0.073-0.578-0.112-0.877-0.124 0.070-0.242 0.136-0.387 0.218-0.021-0.172-0.042-0.315-0.057-0.46-0.030-0.299-0.027-0.299 0.257-0.405 0.042-0.015 0.106-0.076 0.103-0.112-0.024-0.278-0.060-0.553-0.094-0.838-0.145 0.045-0.272 0.085-0.411 0.13-0.039-0.318-0.079-0.617-0.121-0.935-0.278 0.091-0.526 0.184-0.786 0.251-0.154 0.039-0.169 0.115-0.148 0.245 0.036 0.248 0.064 0.496 0.094 0.75-0.148 0.048-0.281 0.097-0.417 0.136-0.082 0.021-0.127 0.051-0.112 0.151z"></path>
    <path d="M12.277 14.246c-0.336 0.109-0.653 0.212-0.98 0.318 0.021 0.169 0.042 0.33 0.060 0.487 0.154 1.295 0.305 2.589 0.469 3.884 0.036 0.299 0.036 0.581-0.169 0.835 0.203 0.184 0.399 0.363 0.59 0.538 0.287-0.245 0.566-0.484 0.847-0.72 0.13-0.109 0.33-0.188 0.384-0.327 0.051-0.136-0.042-0.33-0.070-0.496-0.027-0.154-0.054-0.308-0.085-0.484-0.175 0.151-0.33 0.284-0.502 0.43-0.076-0.611-0.148-1.189-0.212-1.766-0.003-0.033 0.051-0.088 0.091-0.106 0.154-0.061 0.312-0.106 0.466-0.16-0.042-0.33-0.079-0.641-0.121-0.962-0.2 0.064-0.375 0.118-0.566 0.178-0.070-0.547-0.133-1.086-0.203-1.648z"></path>
    <path d="M3.645 18.813c0.039-0.015 0.082-0.079 0.085-0.124 0.003-0.097-0.015-0.197-0.027-0.299 1.282-0.417 2.556-0.829 3.838-1.246 0.018 0.133 0.036 0.254 0.057 0.393 0.354-0.115 0.69-0.224 1.031-0.336-0.051-0.408-0.1-0.802-0.148-1.213-0.756 0.245-1.497 0.484-2.238 0.723-0.088-0.181-0.169-0.348-0.257-0.532-0.408 0.157-0.798 0.312-1.201 0.469 0.073 0.16 0.139 0.308 0.212 0.469-0.136 0.045-0.254 0.085-0.372 0.124-0.635 0.206-1.273 0.411-1.909 0.623-0.042 0.015-0.112 0.064-0.109 0.091 0.039 0.384 0.091 0.765 0.139 1.158 0.308-0.1 0.605-0.194 0.898-0.299z"></path>
    <path d="M15.97 13.378c0.312 0.357 0.605 0.699 0.907 1.043 0.293-0.26 0.581-0.514 0.91-0.805-0.342-0.336-0.668-0.653-1.004-0.977-0.29 0.26-0.55 0.499-0.814 0.738z"></path>
    <path d="M23.755 10.411c-0.284 0.242-0.553 0.472-0.829 0.708 0.33 0.351 0.641 0.687 0.959 1.028 0.296-0.263 0.581-0.514 0.877-0.777-0.345-0.327-0.674-0.641-1.007-0.959z"></path>
    <path d="M24.974 12.51c0.351 0.296 0.69 0.584 1.040 0.88 0.266-0.287 0.52-0.563 0.789-0.853-0.384-0.272-0.747-0.532-1.119-0.795-0.242 0.26-0.475 0.514-0.711 0.768z"></path>
    </svg>