<svg width="128" height="128" fill="#459df5" xmlns="http://www.w3.org/2000/svg" id="status_approving" viewBox="0 0 32 32" >
    <title>status_approving</title>
    <path d="M17.171 8.118c-0.003 0.079-0.009 0.154-0.015 0.26-0.039-0.045-0.057-0.067-0.082-0.094-0.015 0.054-0.027 0.106-0.042 0.154-0.009 0-0.015 0-0.024 0-0.012-0.133-0.024-0.266-0.036-0.399-0.024 0-0.051-0.003-0.076-0.003-0.027 0.133-0.057 0.266-0.091 0.432-0.127-0.048-0.287-0.109-0.445-0.175-0.018-0.009-0.039-0.036-0.039-0.057-0.018-0.206-0.030-0.411-0.042-0.617 0-0.012 0.012-0.024 0.036-0.070 0.076 0.166 0.139 0.312 0.203 0.454 0-0.024 0.003-0.061 0.006-0.094 0-0.039 0-0.079 0-0.121 0.206-0.124 0.357 0.054 0.532 0.097 0.142 0.036 0.278 0.103 0.42 0.142 0.109 0.030 0.16 0.085 0.139 0.203-0.015 0.082-0.015 0.169-0.045 0.254-0.048-0.127-0.097-0.251-0.145-0.378-0.018 0.006-0.039 0.009-0.057 0.015 0.012 0.094 0.024 0.191 0.036 0.284-0.003 0.006-0.009 0.009-0.012 0.015-0.030-0.064-0.057-0.127-0.1-0.224 0 0.157 0 0.287 0 0.417-0.006 0-0.015 0.003-0.021 0.003-0.027-0.169-0.051-0.339-0.079-0.505-0.012 0.006-0.015 0.006-0.021 0.006z"></path>
    <path d="M19.109 8.039c0.296 0.039 0.596 0.082 0.892 0.121 0.121 0.015 0.242 0.018 0.36 0.039 0.039 0.006 0.073 0.048 0.097 0.1 0.079 0 0.157 0 0.236 0-0.079 0.085-0.16 0.13-0.248 0.045-0.018-0.018-0.051-0.030-0.076-0.027-0.393 0.039-0.768-0.067-1.152-0.127-0.048-0.009-0.088-0.079-0.13-0.121 0.003-0.012 0.012-0.021 0.021-0.030z"></path>
    <path d="M17.697 7.673c0.348 0.091 0.696 0.181 1.047 0.272 0.064 0.015 0.127 0.039 0.191 0.042 0.1 0.009 0.115 0.060 0.088 0.16-0.082-0.012-0.163-0.021-0.242-0.042-0.315-0.082-0.632-0.163-0.944-0.26-0.064-0.018-0.112-0.091-0.166-0.139 0.006-0.009 0.015-0.021 0.027-0.033z"></path>
    <path d="M17.086 7.447c0.154 0.054 0.312 0.1 0.46 0.166 0.039 0.018 0.054 0.088 0.079 0.136-0.009 0.012-0.018 0.021-0.030 0.033-0.16-0.057-0.321-0.112-0.478-0.178-0.033-0.015-0.045-0.085-0.067-0.13 0.015-0.012 0.024-0.018 0.036-0.027z"></path>
    <path d="M14.415 7.713c0.103 0.024 0.203 0.045 0.305 0.070 0.142 0.036 0.284 0.079 0.417 0.145-0.254-0.030-0.514-0.039-0.72-0.221l-0.003 0.006z"></path>
    <path d="M14.418 7.71c-0.148 0.051-0.233 0.027-0.408-0.124 0.169-0.070 0.281 0.054 0.405 0.127 0 0 0.003-0.003 0.003-0.003z"></path>
    <path d="M23.61 7.087c0.109-0.012 0.218-0.024 0.327-0.036 0.003 0.024 0.003 0.048 0.006 0.073-0.109 0-0.218 0-0.324 0-0.006-0.012-0.006-0.024-0.009-0.036z"></path>
    <path d="M23.44 7.126c-0.006 0.030-0.009 0.054-0.012 0.079 0.048-0.015 0.094-0.027 0.136-0.039-0.097 0.073-0.203 0.112-0.348 0.051 0.088-0.036 0.148-0.061 0.224-0.091z"></path>
    <path d="M23.955 7.834c0.009-0.024 0.015-0.048 0.024-0.073 0.067 0.012 0.136 0.024 0.206 0.039 0.003 0.009 0.003 0.018 0.006 0.024-0.109 0.024-0.218 0.061-0.33 0.067-0.1 0.006-0.206 0.106-0.305 0.024 0-0.018 0-0.036 0-0.051 0.127-0.024 0.254-0.048 0.381-0.073 0.006 0.012 0.012 0.027 0.018 0.042z"></path>
    <path d="M19.657 26.317c0.051-0.027 0.103-0.051 0.154-0.079 0.009-0.006 0.009-0.024 0.012-0.039-0.042-0.009-0.076-0.015-0.124-0.024 0.033-0.027 0.057-0.042 0.079-0.061-0.003-0.015-0.009-0.030-0.012-0.045-0.13 0.027-0.263 0.054-0.42 0.088 0.057 0.042 0.085 0.064 0.133 0.097-0.121 0.045-0.218 0.085-0.351 0.136 0.088-0.009 0.16 0.018 0.239 0.051 0.030 0.015 0.109-0.012 0.109-0.015-0.015-0.166 0.121-0.076 0.181-0.109z"></path>
    <path d="M10.858 26.344c0.009-0.184-0.030-0.224-0.26-0.269-0.030 0.206 0.151 0.194 0.26 0.269z"></path>
    <path d="M2.51 23.226c0.061-0.659-0.136-1.258-0.363-1.836-0.082-0.009-0.157-0.018-0.248-0.027 0.127 0.384 0.251 0.765 0.372 1.152 0.045-0.030 0.079-0.054 0.112-0.079 0.018 0.003 0.033 0.006 0.051 0.009 0 0.109 0.021 0.224-0.003 0.327-0.036 0.166 0.021 0.302 0.079 0.454z"></path>
    <path d="M28.413 16.922c0.021-0.236 0.030-0.469 0.045-0.708 0.045 0.015 0.079 0.027 0.127 0.042-0.054-0.082-0.097-0.145-0.151-0.227 1.143-0.375 2.265-0.741 3.4-1.113-0.061-0.191-0.118-0.372-0.181-0.55s-0.142-0.348-0.2-0.526c-0.057-0.178-0.097-0.363-0.151-0.544s-0.115-0.363-0.175-0.544c-0.057-0.181-0.118-0.363-0.178-0.544-0.061-0.188-0.121-0.372-0.181-0.56-0.061-0.181-0.118-0.363-0.178-0.544-0.057-0.181-0.118-0.363-0.178-0.544s-0.109-0.369-0.181-0.544c-0.073-0.166-0.054-0.375-0.221-0.502 0.076-0.2-0.097-0.342-0.103-0.523-0.16 0.057-0.209 0.142-0.163 0.284 0.178 0.553 0.36 1.11 0.541 1.664 0.336 1.022 0.674 2.045 1.010 3.067 0.088 0.263 0.163 0.532 0.245 0.808-0.139 0.045-0.269 0.088-0.396 0.13-0.030 0.012-0.088 0.033-0.088 0.045 0.018 0.197-0.142 0.106-0.224 0.136-0.030 0.009-0.082 0-0.091 0.015-0.076 0.145-0.197 0.109-0.315 0.094-0.045-0.006-0.097-0.018-0.139-0.006-0.977 0.312-1.951 0.623-2.925 0.941-0.544 0.178-1.086 0.369-1.63 0.55-0.623 0.206-1.249 0.408-1.875 0.614-0.039 0.015-0.079 0.036-0.115 0.051 0.033 0.136 0.1 0.175 0.221 0.118 0.048-0.024 0.103-0.039 0.157-0.054 0.302-0.085 0.605-0.157 0.904-0.251 0.181-0.057 0.354-0.148 0.532-0.218 0.051-0.021 0.109-0.018 0.175-0.027-0.003 0.061-0.003 0.097-0.006 0.13-0.13 1.177-0.472 2.293-1.004 3.351-0.030 0.061-0.027 0.136-0.045 0.227-0.2 0.039-0.194 0.287-0.312 0.411 0.042 0.082 0.082 0.151 0.118 0.221 0.076-0.079 0.106-0.106 0.112-0.136 0.021-0.094 0.157-0.139 0.103-0.275-0.015-0.033 0.112-0.112 0.151-0.181 0.523-0.974 0.871-2.011 1.050-3.103 0.033-0.197 0.103-0.393 0.030-0.596 0.051-0.015 0.1-0.033 0.151-0.048-0.033-0.024-0.061-0.045-0.088-0.064 0.036-0.027 0.067-0.067 0.109-0.082 0.169-0.064 0.339-0.121 0.511-0.175 0.251-0.082 0.502-0.163 0.805-0.26-0.073 0.572-0.118 1.101-0.212 1.624-0.094 0.526-0.239 1.040-0.363 1.564 0.027-0.003 0.054-0.006 0.085-0.009 0.157-0.224 0.266-0.674 0.212-0.726 0.030-0.051 0.067-0.1 0.088-0.151 0.048-0.121 0.042-0.257 0.067-0.381 0.106-0.526 0.154-1.068 0.233-1.6 0.027-0.184-0.030-0.414 0.251-0.496 0.109 0.209-0.003 0.442 0.039 0.662 0.067-0.018 0.133-0.036 0.203-0.054 0.003 0.012 0.006 0.021 0.009 0.030-0.036 0.021-0.076 0.045-0.109 0.064 0.006 0.042 0.012 0.076 0.018 0.112-0.012 0.003-0.021 0.009-0.033 0.012-0.033-0.027-0.067-0.057-0.112-0.097 0.003 0.215-0.127 0.423 0.088 0.599-0.012 0.009-0.021 0.015-0.033 0.024-0.036-0.021-0.073-0.039-0.109-0.061-0.018 0.118-0.048 0.242-0.054 0.366-0.003 0.067 0.030 0.139 0.048 0.209 0.015-0.003 0.030-0.003 0.045-0.003-0.039 0.021-0.076 0.042-0.106 0.061 0.067 0.015 0.13 0.030 0.194 0.045 0 0.015-0.003 0.027-0.003 0.042-0.048 0.015-0.103 0.024-0.151 0.045-0.042 0.021-0.106 0.048-0.115 0.085-0.057 0.203-0.091 0.411-0.151 0.611-0.136 0.448-0.275 0.895-0.436 1.334-0.127 0.342-0.29 0.668-0.433 0.995-0.076-0.006-0.121-0.012-0.236-0.024 0.188 0.163 0.094 0.287 0.024 0.402-0.281 0.451-0.569 0.898-0.856 1.343-0.054 0.085-0.1 0.194-0.236 0.172-0.009 0-0.024 0.039-0.051 0.085 0.054-0.027 0.085-0.039 0.142-0.067-0.532 0.711-1.125 1.31-1.769 1.86-0.145 0.124-0.287 0.172-0.466 0.067 0.127-0.148 0.299-0.239 0.426-0.387 0.224-0.257 0.493-0.475 0.735-0.717 0.067-0.070 0.1-0.172 0.145-0.257 0.191 0.133 0.242 0.124 0.308-0.082-0.045 0.039-0.091 0.079-0.148 0.127-0.009-0.015-0.033-0.042-0.030-0.048 0.157-0.194 0.315-0.384 0.478-0.581 0.027 0.024 0.051 0.045 0.076 0.070 0.036-0.045 0.067-0.085 0.106-0.133-0.045-0.009-0.079-0.015-0.115-0.024 0.012-0.021 0.024-0.045 0.039-0.064 0.197-0.26 0.408-0.511 0.59-0.783 0.139-0.206 0.239-0.433 0.351-0.653 0.157-0.312 0.315-0.626 0.466-0.944 0.021-0.045 0.003-0.109 0.003-0.166-0.018-0.003-0.036-0.006-0.054-0.009-0.227 0.433-0.439 0.874-0.69 1.291-0.257 0.42-0.523 0.847-0.841 1.222-0.29 0.342-0.514 0.753-0.926 0.986-0.251 0.439-0.696 0.671-1.031 1.010-0.042-0.030-0.070-0.048-0.088-0.061 0.057-0.061 0.1-0.106 0.142-0.151-0.009-0.009-0.018-0.018-0.027-0.027-0.057 0.033-0.115 0.064-0.181 0.097 0.012-0.048 0.018-0.082 0.021-0.091-0.272 0.024-0.541 0.048-0.811 0.073 0.172 0.082 0.375 0.057 0.475 0.272 0.051-0.061 0.091-0.106 0.13-0.151 0.030 0.051 0.051 0.094 0.076 0.136 0.051-0.039 0.085-0.064 0.118-0.091 0.009 0.012 0.021 0.021 0.030 0.033-0.033 0.036-0.061 0.085-0.1 0.112-0.248 0.166-0.511 0.318-0.747 0.499-0.118 0.091-0.166 0.082-0.254-0.036 0.009 0.057 0.015 0.115 0.027 0.194-0.103 0.097-0.154-0.124-0.239-0.097-0.070 0.079-0.124 0.142-0.175 0.203 0.018 0.018 0.036 0.039 0.054 0.061-0.030 0.027-0.057 0.067-0.091 0.073-0.091 0.018-0.184 0.024-0.296 0.036-0.009-0.045-0.015-0.097-0.024-0.148 0.118 0.009 0.206-0.012 0.203-0.16-0.033-0.009-0.064-0.015-0.051-0.012-0.064 0.064-0.109 0.109-0.157 0.154v-0.003c-0.115 0.024-0.233 0.048-0.348 0.073 0.003 0.015 0.009 0.033 0.012 0.048 0.097-0.021 0.194-0.039 0.29-0.061 0.003 0.015 0.009 0.027 0.012 0.039-0.079 0.036-0.157 0.073-0.26 0.118 0.127 0.015 0.224 0.024 0.321 0.036 0 0.021 0.003 0.039 0.006 0.057-0.478 0.197-0.953 0.396-1.406 0.584-0.033-0.067-0.042-0.109-0.064-0.118-0.027-0.009-0.064 0.006-0.097 0.012 0.003-0.039 0.009-0.082 0.012-0.112-0.151 0.051-0.305 0.103-0.463 0.154 0.015-0.054 0.021-0.085 0.030-0.115-0.027 0.003-0.061-0.003-0.079 0.009-0.112 0.073-0.227 0.13-0.36 0.051-0.021-0.012-0.054-0.018-0.079-0.009-0.1 0.033-0.197 0.070-0.302 0.109 0.024 0.106 0.048 0.218-0.1 0.266-0.015 0.003-0.003 0.079-0.003 0.145-0.16 0.027-0.348 0.064-0.535 0.088-0.054 0.006-0.112-0.030-0.191-0.051-0.085 0.009-0.197 0.018-0.305 0.036-0.057 0.009-0.115 0.042-0.172 0.064-0.030 0.012-0.061 0.021-0.091 0.030 0-0.030 0-0.064 0-0.094-0.006-0.003-0.015-0.006-0.024-0.009-0.021 0.064-0.042 0.124-0.054 0.16-0.312-0.067-0.617 0.018-0.922-0.006 0.006 0.145 0.070 0.166 0.206 0.151 0.212-0.024 0.43-0.021 0.647-0.030 0.015 0 0.036 0 0.042 0.009 0.103 0.136 0.169 0.042 0.239-0.033 0.067 0.064 0.13 0.121 0.227 0.036 0.024-0.021 0.079-0.021 0.115-0.012 0.136 0.039 0.272 0.088 0.405 0.133-0.151 0.030-0.296 0.133-0.454 0.030-0.021-0.012-0.061 0-0.088 0.006-0.133 0.033-0.266 0.094-0.402 0.1-0.339 0.015-0.681 0.033-1.016 0.003-0.448-0.039-0.892-0.127-1.34-0.191-0.073-0.012-0.151 0.006-0.218-0.015-0.366-0.112-0.732-0.233-1.116-0.354 0.006 0.091 0.012 0.154 0.018 0.242-0.257-0.070-0.496-0.133-0.747-0.2 0 0.118 0 0.224 0 0.33 0 0.070 0.003 0.136 0.003 0.206-0.064-0.018-0.13-0.039-0.194-0.057-0.006-0.003-0.015 0.003-0.018 0.003 0.197 0.224 0.478 0.236 0.735 0.318 0.003-0.054 0.006-0.094 0.009-0.133 0.018-0.003 0.033-0.003 0.051-0.003 0.003 0.051 0.009 0.103 0.015 0.163 0.060-0.018 0.154-0.073 0.178-0.051 0.136 0.127 0.315 0.097 0.472 0.145 0.079 0.024 0.16 0.036 0.272 0.057-0.209-0.097-0.387-0.178-0.575-0.266-0.036-0.003-0.094-0.006-0.194-0.015 0.106-0.057 0.172-0.094 0.239-0.13-0.003 0.012-0.006 0.027-0.009 0.039 0.060 0.033 0.118 0.067 0.172 0.1-0.006-0.079-0.012-0.124-0.015-0.172 0.048 0.015 0.1 0.030 0.145 0.051 0.030 0.015 0.057 0.039 0.085 0.057 0.006-0.027 0.012-0.051 0.018-0.085 0.039 0.082 0.070 0.151 0.103 0.218 0.036-0.051 0.070-0.103 0.133-0.194 0.009 0.082 0.024 0.184 0.018 0.188-0.188 0.045-0.027 0.124-0.018 0.194-0.048 0.030-0.097 0.061-0.115 0.073 0.070 0.021 0.184 0.1 0.269 0.076 0.133-0.036 0.254-0.012 0.378-0.003 0.399 0.033 0.799 0.088 1.201 0.097 0.387 0.006 0.774-0.027 1.161-0.054 1.161-0.085 2.29-0.333 3.381-0.735 0.426-0.157 0.856-0.321 1.285-0.472 0.076-0.027 0.169 0.003 0.245-0.024 0.23-0.079 0.457-0.163 0.674-0.269 0.163-0.079 0.321-0.184 0.457-0.305 0.115-0.1 0.188-0.242 0.354-0.281 0.024-0.006 0.064-0.067 0.061-0.070-0.091-0.097 0.024-0.121 0.064-0.151 0.257-0.194 0.517-0.384 0.783-0.569 0.082-0.057 0.181-0.094 0.278-0.127 0.039-0.015 0.091 0.006 0.109 0.009-0.006-0.088-0.030-0.151-0.009-0.194 0.009-0.024 0.091-0.018 0.124-0.021 0.033-0.067 0.061-0.139 0.109-0.2 0.051-0.064 0.115-0.118 0.181-0.169 0.106-0.085 0.221-0.16 0.33-0.242 0.027-0.021 0.054-0.054 0.070-0.088 0.015-0.030 0.006-0.079 0.027-0.103 0.342-0.426 0.696-0.841 1.031-1.273 0.269-0.348 0.493-0.729 0.705-1.116 0.009-0.018 0.024-0.033 0.036-0.048 0.018 0.024 0.036 0.045 0.070 0.085 0.036-0.094 0.112-0.188 0.094-0.251-0.036-0.118 0.018-0.194 0.057-0.281 0.142-0.321 0.281-0.644 0.43-0.965 0.064-0.133 0.148-0.257 0.218-0.375-0.003 0-0.030 0-0.076 0 0.057-0.178 0.115-0.348 0.166-0.52 0.085-0.296 0.188-0.593 0.242-0.898 0.021-0.13 0.124-0.254 0.054-0.399-0.012-0.030-0.006-0.073-0.009-0.118-0.103-0.027-0.115-0.021-0.139 0.070-0.079 0.327-0.148 0.656-0.245 0.977-0.13 0.43-0.284 0.85-0.43 1.273-0.018-0.006-0.033-0.012-0.051-0.018 0.091-0.269 0.184-0.535 0.281-0.811-0.042-0.012-0.073-0.024-0.112-0.036 0.157-0.036 0.191-0.097 0.133-0.175 0.042-0.094 0.094-0.175 0.115-0.263 0.097-0.408 0.188-0.817 0.269-1.225 0.018-0.082-0.009-0.175-0.015-0.278 0.018-0.033 0.070-0.085 0.079-0.142 0.030-0.23 0.051-0.463 0.070-0.693zM18.577 27.049c-0.1 0.006-0.209 0.106-0.305 0.024 0-0.015 0-0.033 0-0.051 0.127-0.024 0.254-0.048 0.381-0.073 0.006 0.015 0.012 0.030 0.018 0.045 0.009-0.024 0.015-0.045 0.024-0.076 0.067 0.012 0.136 0.027 0.206 0.039 0.003 0.006 0.003 0.015 0.006 0.024-0.109 0.024-0.218 0.061-0.33 0.067z"></path>
    <path d="M7.746 14.721c0.296-0.103 0.59-0.218 0.889-0.315 0.284-0.094 0.575-0.169 0.859-0.257 0.305-0.094 0.608-0.197 0.926-0.299-0.006-0.039-0.009-0.073-0.015-0.112 0.060-0.021 0.124-0.039 0.184-0.060 0.009 0.036 0.018 0.073 0.027 0.109 0.091-0.030 0.169-0.064 0.251-0.079 0.109-0.021 0.139-0.073 0.124-0.157 0.048-0.015 0.094-0.030 0.124-0.057-0.003 0.030 0.006 0.067 0.021 0.109 0.054-0.012 0.103-0.021 0.148-0.036 1.44-0.472 2.876-0.944 4.316-1.412 0.121-0.039 0.242-0.064 0.363-0.097-0.042 0.024-0.085 0.048-0.13 0.070-0.148 0.073-0.324 0.118-0.445 0.224-0.239 0.203-0.529 0.242-0.808 0.321-0.194 0.054-0.405 0.051-0.602 0.1-0.139 0.033-0.266 0.112-0.399 0.163-0.124 0.048-0.251 0.094-0.381 0.127-0.076 0.021-0.16 0.003-0.233 0.027-0.094 0.033-0.181 0.094-0.275 0.133-0.233 0.097-0.463 0.194-0.699 0.278-0.351 0.124-0.705 0.239-1.056 0.36-0.097 0.033-0.191 0.076-0.287 0.112-0.188 0.076-0.378 0.148-0.566 0.221 0.342-0.073 0.668-0.178 0.998-0.284 0.671-0.212 1.34-0.423 2.008-0.638 0.245-0.079 0.484-0.175 0.726-0.254 0.33-0.109 0.662-0.206 0.992-0.312 0.287-0.091 0.575-0.184 0.859-0.281 0.965-0.33 1.933-0.662 2.898-0.995 0.145-0.051 0.287-0.112 0.433-0.169-0.006-0.012-0.009-0.024-0.015-0.036-0.166 0.106-0.402 0.027-0.569 0.215-0.181-0.045-0.687 0.039-0.886 0.172 0.076-0.012 0.139-0.024 0.203-0.033-0.133 0.139-0.342 0.109-0.469 0.245-0.006 0.006-0.033 0-0.039-0.009-0.054-0.085-0.097-0.018-0.148 0.006-0.039 0.018-0.085 0.024-0.13 0.036v0c0 0-0.003 0-0.003 0-0.003 0-0.003 0.003-0.006 0.003-0.024-0.024-0.051-0.045-0.109-0.097 1.636-0.535 3.242-1.062 4.848-1.585 0.009 0.018 0.015 0.036 0.021 0.054-0.042 0.021-0.085 0.039-0.139 0.067 0.033 0.012 0.051 0.018 0.109 0.036-0.121 0.021-0.206 0.036-0.305 0.051-0.082 0.039-0.188 0.091-0.293 0.139-0.073 0.033-0.145 0.064-0.221 0.091-0.209 0.079-0.42 0.157-0.629 0.236 0.006 0.015 0.012 0.033 0.018 0.051 2.994-1.053 6.088-1.809 9.046-3.012 0.085 0.245 0.16 0.469 0.236 0.696 0.227-0.082 0.227-0.082 0.157-0.287-0.073-0.221-0.145-0.439-0.218-0.659-0.064-0.2-0.064-0.197-0.266-0.133-1.095 0.345-2.19 0.69-3.285 1.034-0.003 0.003-0.009-0.009-0.018-0.018 0.024-0.015 0.045-0.030 0.091-0.060-0.411-0.466-0.814-0.926-1.231-1.397-0.109 0.206-0.1 0.299 0.033 0.402-0.039 0.024-0.073 0.042-0.106 0.064 0.003 0.015 0.009 0.027 0.012 0.039 0.16 0.009 0.321 0.018 0.481 0.027-0.027 0.021-0.064 0.012-0.079 0.027-0.061 0.051-0.115 0.106-0.163 0.166-0.009 0.012 0.027 0.082 0.048 0.088 0.163 0.033 0.124 0.13 0.085 0.212 0.1 0.124 0.194 0.242 0.305 0.384-0.067 0.003-0.115 0.003-0.157 0.006 0.070 0.082 0.139 0.163 0.215 0.254-0.064 0.039-0.115 0.070-0.178 0.106 0.045 0.003 0.076 0.006 0.142 0.012-0.178 0.175-0.402 0.175-0.581 0.275-0.009-0.015-0.015-0.027-0.024-0.042 0.094-0.057 0.188-0.112 0.281-0.166-0.151 0.015-0.293 0.042-0.433 0.085-0.315 0.1-0.629 0.2-0.941 0.309-0.109 0.036-0.169 0.012-0.245-0.070-1.195-1.319-2.64-2.253-4.328-2.819-0.061-0.018-0.121-0.033-0.178-0.048-0.021 0.082-0.033 0.148-0.051 0.224 1.709 0.55 3.176 1.485 4.404 2.84-0.221 0.073-0.414 0.145-0.611 0.2-0.178 0.048-0.345 0.124-0.52 0.178-0.638 0.197-1.27 0.405-1.905 0.614 0.006-0.018 0.009-0.039 0.012-0.060-0.051 0.012-0.103 0.024-0.154 0.039-0.263 0.085-0.526 0.172-0.789 0.257-0.139 0.045-0.242 0-0.218-0.1 0.039-0.166-0.036-0.299-0.079-0.442-0.088-0.284-0.181-0.563-0.275-0.85-0.042 0.009-0.073 0.012-0.1 0.021-0.405 0.13-0.814 0.257-1.219 0.396-0.115 0.039-0.188 0.033-0.269-0.070-0.245-0.302-0.502-0.593-0.756-0.886-0.103-0.121-0.136-0.157-0.206-0.118-0.030 0.015-0.070 0.048-0.127 0.094-0.299 0.254-0.602 0.505-0.898 0.765-0.024 0.021-0.045 0.036-0.067 0.045-0.048 0.024-0.097 0.021-0.163-0.015-0.233-0.13-0.475-0.245-0.714-0.363-0.060-0.030-0.127-0.039-0.197-0.060 0 0.003 0 0.003 0 0.006-0.003 0-0.006 0-0.006-0.003 0.067 0.321 0.327 0.414 0.581 0.544-0.203 0.091-0.42 0.112-0.602 0.248-0.045 0.033-0.091 0.073-0.13 0.121 0.042-0.012 0.082-0.027 0.121-0.039 0.181-0.054 0.342-0.1 0.499-0.157 0.021-0.006 0.039-0.015 0.060-0.021 0.154-0.060 0.29-0.067 0.423 0.036 0.048 0.036 0.091 0.045 0.136 0.030 0.027-0.009 0.054-0.024 0.082-0.051 0.106-0.1 0.221-0.191 0.333-0.284 0.227-0.194 0.457-0.384 0.69-0.584 0.145 0.172 0.281 0.33 0.426 0.499-0.684 0.218-1.358 0.436-2.036 0.653-1.004 0.324-2.002 0.644-3.012 0.968 0.018-0.239 0.036-0.445 0.054-0.653 0.027 0 0.045 0 0.060 0 0.009 0 0.021 0 0.030 0 0.414 0.033 0.832 0.070 1.246 0.097 0.003 0 0.009 0 0.012 0 0.051 0 0.136-0.030 0.151-0.067 0.073-0.188 0.2-0.287 0.393-0.327 0.027-0.003 0.045-0.067 0.067-0.103-0.012-0.006-0.024-0.015-0.036-0.021 0 0-0.003 0-0.003 0s0 0-0.003 0c-0.057 0.012-0.118 0.027-0.2 0.045 0.154-0.296 0.293-0.566 0.436-0.841-0.051-0.073-0.106-0.154-0.166-0.245 0 0.003-0.003 0.003-0.003 0.006 0-0.003-0.003-0.003-0.003-0.006-0.191 0.369-0.375 0.729-0.56 1.086-0.064 0.121-0.091 0.175-0.148 0.197-0.045 0.015-0.109 0.009-0.218 0.003-0.103-0.009-0.203-0.015-0.302-0.024-0.324-0.024-0.65-0.051-0.983-0.076 0 0 0 0 0 0-0.003 0-0.003 0-0.006 0-0.009 0.060-0.021 0.109-0.024 0.16-0.033 0.417-0.070 0.832-0.094 1.249-0.006 0.106-0.042 0.148-0.139 0.175-0.060 0.018-0.121 0.036-0.184 0.054-0.051 0.015-0.106 0.033-0.157 0.051-0.070 0.021-0.139 0.045-0.209 0.067-0.266 0.088-0.532 0.172-0.811 0.263 0.048 0.151 0.094 0.284 0.142 0.439 0.003 0 0.003-0.003 0.006-0.003 0 0 0 0.003 0 0.003 0.076-0.064 0.194-0.118 0.191-0.163-0.009-0.109 0.042-0.133 0.103-0.151 0 0 0.003 0 0.003 0 0.027-0.009 0.054-0.015 0.079-0.027 0.042-0.024 0.082-0.054 0.124-0.082 0.051-0.036 0.106-0.073 0.16-0.115 0.012 0.030 0.018 0.057 0.030 0.094 0.003 0 0.003 0 0.006-0.003 0 0 0 0 0 0.003 0.272-0.088 0.541-0.172 0.808-0.263 0.033-0.009 0.079-0.060 0.076-0.088-0.015-0.136 0.070-0.163 0.172-0.197 1.316-0.423 2.625-0.847 3.938-1.27 0-0.018 0-0.036 0-0.054-0.039-0.006-0.082-0.021-0.121-0.021-0.012 0-0.024 0-0.036 0.003-0.221 0.064-0.439 0.139-0.659 0.209-0.799 0.257-1.6 0.514-2.399 0.774-0.281 0.091-0.566 0.184-0.85 0.275-0.030-0.305-0.030-0.305 0.23-0.39 0.629-0.203 1.261-0.408 1.893-0.611 0.968-0.312 1.936-0.62 2.901-0.938 0.015-0.006 0.030-0.009 0.045-0.012 0.076-0.012 0.13 0.009 0.175 0.082 0.030 0.045 0.064 0.085 0.109 0.142-0.402 0.13-0.783 0.254-1.164 0.378 0.003 0.015 0.006 0.030 0.006 0.045 0.051 0 0.103 0.006 0.154 0.006 0.030 0 0.060-0.003 0.088-0.009 0.305-0.091 0.605-0.194 0.907-0.287 0.033-0.009 0.082-0.012 0.115-0.003 0.012 0.003 0.018 0.009 0.024 0.015 0.045 0.070 0.097 0.094 0.151 0.091 0.042 0 0.091-0.015 0.139-0.036 0.082-0.036 0.172-0.057 0.257-0.085 0.293-0.094 0.584-0.191 0.877-0.281 0.003 0 0.006-0.003 0.009-0.003 0.027 0 0.057 0.015 0.085 0.021-0.021 0.027-0.039 0.057-0.067 0.079-0.018 0.015-0.048 0.018-0.070 0.027-0.224 0.091-0.451 0.181-0.674 0.272-0.012 0.006-0.027 0.012-0.042 0.015-0.018 0-0.036 0.003-0.054 0.003-0.009 0-0.018 0-0.027 0-0.045 0-0.094 0-0.133 0.012-0.327 0.1-0.65 0.209-0.977 0.312-0.191 0.060-0.191 0.060-0.305 0.224 0.003 0 0.006-0.003 0.009-0.003 0 0 0 0.003-0.003 0.003 0.802-0.26 1.6-0.517 2.401-0.774 0.036 0.109 0.064 0.194 0.097 0.287-0.753 0.245-1.497 0.484-2.241 0.726 0.003 0.021 0.003 0.039 0.006 0.060 0.042 0.003 0.085 0.012 0.124 0.012 0.015 0 0.030 0 0.042-0.006 0.46-0.145 0.919-0.293 1.379-0.442 0.239-0.079 0.481-0.157 0.729-0.233 0.033 0.106 0.061 0.188 0.094 0.287-2.819 0.907-5.626 1.812-8.436 2.716-0.024-0.057-0.045-0.1-0.073-0.157 0 0.003-0.003 0.003-0.003 0.006 0-0.003-0.003-0.003-0.003-0.006-0.021 0.045-0.033 0.073-0.042 0.091-0.067-0.021-0.127-0.039-0.197-0.060 0 0 0 0 0 0.003-0.003 0-0.003 0-0.006-0.003 0.054 0.175 0.103 0.33 0.151 0.484-0.411 0.139-0.811 0.272-1.219 0.411 0.033 0.042 0.067 0.070 0.1 0.088-0.974 0.318-1.942 0.635-2.907 0.95-0.012-0.272-0.024-0.526-0.039-0.817 0.045 0.054 0.067 0.079 0.091 0.106 0.018-0.003 0.033-0.009 0.051-0.015-0.042-0.172-0.085-0.348-0.127-0.52-0.012 0.006-0.021 0.009-0.033 0.012-0.030 0.148-0.061 0.293-0.088 0.414 0.030 0.039 0.073 0.070 0.073 0.1 0 0.064-0.009 0.133-0.036 0.188-0.088 0.166-0.169 0.33-0.163 0.523 0 0.088-0.045 0.121-0.121 0.145-0.384 0.121-0.765 0.248-1.149 0.372-0.039 0.012-0.082 0.018-0.136 0.027 0.009-0.115 0.015-0.212 0.021-0.305 0.112-1.772 0.62-3.424 1.5-4.963 0.103-0.178 0.227-0.345 0.318-0.529 0.091-0.178 0.218-0.324 0.336-0.478 0.233-0.299 0.475-0.587 0.705-0.886 0.033-0.045 0.030-0.118 0.045-0.178-0.009 0-0.021-0.003-0.033-0.006-0.006 0.048-0.015 0.094-0.027 0.16-0.030-0.042-0.045-0.064-0.067-0.091-0.602 0.671-1.119 1.394-1.536 2.187-0.254 0.478-0.541 0.944-0.635 1.491 0 0.003-0.036-0.006-0.039-0.003-0.015 0.030-0.030 0.064-0.039 0.097-0.13 0.426-0.257 0.856-0.387 1.285-0.018 0.057-0.045 0.112-0.070 0.169-0.015-0.003-0.027-0.006-0.042-0.009-0.003-0.067-0.006-0.136-0.009-0.203-0.048 0.133-0.121 0.269 0.039 0.375 0.012 0.009-0.003 0.054-0.006 0.085-0.070 0.587-0.139 1.174-0.206 1.763-0.003 0.021-0.006 0.039-0.015 0.054 0.003-0.012 0.006-0.024 0.009-0.039 0.067-0.587 0.136-1.177 0.206-1.763 0.003-0.030 0.018-0.076 0.006-0.085-0.154-0.121-0.085-0.257-0.033-0.39 0 0-0.003 0.006-0.003 0.003 0-0.112 0-0.227 0-0.339 0.003-0.006 0.003-0.012 0.006-0.018 0 0.115 0 0.227 0 0.342 0.012-0.012 0.030-0.024 0.036-0.039 0.085-0.23 0.166-0.46 0.245-0.693 0.009-0.027-0.006-0.060-0.012-0.1-0.064 0.057-0.115 0.103-0.166 0.148-0.009-0.067-0.006-0.127 0.024-0.166 0.197-0.269 0.315-0.569 0.387-0.892 0.054-0.236 0.045-0.487 0.184-0.705 0.136-0.215 0.257-0.448 0.224-0.723 0.009 0.070 0.015 0.139 0.024 0.212 0.227-0.36 0.454-0.705 0.665-1.059s0.56-0.62 0.665-1.040c0.036 0.021 0.064 0.036 0.097 0.054 0.018-0.088 0.030-0.157 0.045-0.23 0.012 0.009 0.021 0.021 0.033 0.030 0.061-0.033 0.13-0.057 0.175-0.103 0.242-0.236 0.469-0.484 0.717-0.714s0.505-0.451 0.771-0.656c0.272-0.212 0.55-0.408 0.838-0.596 0.269-0.178 0.55-0.336 0.832-0.493 0.212-0.118 0.429-0.221 0.65-0.321 0.057-0.024 0.13-0.015 0.194-0.015 0.1-0.003 0.2 0 0.342 0-0.094-0.051-0.142-0.076-0.2-0.109 0.181-0.121 0.188-0.121 0.33-0.039 0.057-0.067 0.112-0.127 0.166-0.191 0.003 0.015 0.003 0.030 0.006 0.045 0.033 0.009 0.067 0.015 0.139 0.033-0.045-0.051-0.057-0.067-0.076-0.088 0.269-0.094 0.532-0.194 0.802-0.281 0.067-0.021 0.145-0.006 0.221-0.009 0.048 0 0.1 0.012 0.142-0.006 0.060-0.024 0.112-0.088 0.175-0.103 0.668-0.166 1.261-0.266 1.951-0.302 1.945-0.1 3.899 0.248 5.674 1.056 0.085 0.039 0.169 0.076 0.272 0.124 0-0.209 0-0.393 0-0.575 0.018 0 0.033 0 0.048 0 0.003 0.16 0.015 0.324 0.009 0.484-0.003 0.097 0.030 0.139 0.112 0.184 0.408 0.23 0.82 0.454 1.21 0.711 0.399 0.263 0.774 0.56 1.14 0.829 0.064-0.009 0.16-0.036 0.169-0.021 0.048 0.097 0.13 0.076 0.209 0.076 0.015-0.003 0.030-0.003 0.045-0.006 0.097-0.079 0.191-0.157 0.299-0.245-0.036-0.024-0.079-0.054-0.124-0.079-0.027-0.015-0.070-0.012-0.082-0.033-0.136-0.239-0.366-0.378-0.572-0.541-0.206-0.16-0.417-0.315-0.635-0.46-2.081-1.403-4.467-2.129-6.975-2.16-0.653-0.009-1.304 0.085-1.957 0.13-0.070 0.006-0.178 0.033-0.203 0.003-0.097-0.13-0.194-0.018-0.287-0.012 0.067 0.006 0.136 0.009 0.206 0.015 0 0.009 0 0.021 0 0.030-0.133 0.015-0.263 0.030-0.432 0.048 0.060-0.051 0.091-0.076 0.133-0.109-0.13 0-0.233-0.012-0.336 0.003-0.094 0.012-0.184 0.051-0.296 0.085-0.033-0.036-0.324-0.024-0.381 0.048-0.006 0.009-0.003 0.024-0.006 0.036-0.009 0.030-0.012 0.073-0.030 0.085-0.136 0.082-0.275 0.154-0.405 0.224-0.054-0.045-0.097-0.079-0.139-0.115 0.148-0.054 0.309-0.109 0.469-0.166-0.076-0.003-0.148 0.012-0.218 0.033-0.188 0.057-0.369 0.139-0.56 0.175-0.242 0.048-0.366 0.121-0.514 0.336-0.048 0.073-0.106 0.169-0.175 0.184-0.145 0.033-0.302 0.021-0.454 0.024-0.045 0.003-0.1-0.018-0.13 0-0.157 0.094-0.309 0.2-0.466 0.296-0.309 0.191-0.617 0.375-0.938 0.572 0.039 0.021 0.060 0.033 0.064 0.033-0.127 0.121-0.305 0.218-0.375 0.366-0.088 0.181-0.254 0.242-0.375 0.366-0.036 0.039-0.094 0.054-0.133 0.091-0.369 0.354-0.735 0.705-1.104 1.059-0.49 0.469-0.901 0.998-1.279 1.558 0 0 0 0 0-0.003-0.169 0.257-0.342 0.517-0.52 0.783 0.067 0.006 0.106 0.006 0.188 0.012-0.067 0.060-0.106 0.094-0.145 0.13-0.033 0.030-0.070 0.057-0.097 0.091-0.079 0.094-0.151 0.197-0.239 0.281-0.036 0.036-0.109 0.039-0.203 0.070 0.042-0.054 0.054-0.070 0.097-0.124-0.127 0.033-0.215 0.054-0.302 0.076 0.021 0.045 0.042 0.091 0.070 0.148-0.115 0.015-0.227 0.030-0.339 0.045 0 0.021 0 0.039 0 0.060 0.151 0 0.302 0 0.454 0-0.094 0.070-0.191 0.1-0.272 0.151-0.106 0.067-0.157 0.221-0.324 0.2-0.012 0-0.045 0.067-0.051 0.103-0.021 0.13-0.030 0.26-0.166 0.336-0.030 0.018-0.054 0.070-0.064 0.109-0.030 0.142 0.1 0.302 0.263 0.336 0.006 0.060 0.012 0.124 0.018 0.2-0.127 0.042-0.248 0.088-0.39 0.136 0.070 0.009 0.115 0.012 0.163 0.018 0.009 0.012 0.018 0.027 0.027 0.042-0.157-0.027-0.206 0.067-0.245 0.163-0.027 0.070-0.048 0.145-0.048 0.218-0.003 0.236-0.082 0.481 0.091 0.702 0.030 0.039-0.018 0.139-0.027 0.212 0 0.009 0 0.018 0.003 0.033 0.033 0 0.070 0 0.094 0 0.006 0.073 0.012 0.13 0.021 0.2-0.018 0.027-0.061 0.067-0.067 0.115-0.048 0.324-0.088 0.647-0.136 0.971-0.012 0.091 0.009 0.139 0.076 0.203 0.051 0.048 0.045 0.157 0.064 0.239-0.015 0.003-0.027 0.009-0.042 0.012-0.036-0.021-0.073-0.039-0.136-0.076-0.009 0.245-0.027 0.466-0.021 0.684 0.003 0.13-0.033 0.2-0.163 0.218-0.142 0.021-0.2 0.1-0.148 0.245 0.191-0.057 0.423-0.048 0.487-0.312 0.006 0.048 0.015 0.094 0.021 0.151 0.057-0.018 0.103-0.036 0.151-0.045 0.145-0.024 0.2-0.097 0.175-0.248-0.018-0.118-0.003-0.239-0.003-0.36 0.012-0.003 0.027-0.003 0.039-0.003 0.012 0.169 0.024 0.339 0.039 0.526 0.327-0.106 0.632-0.203 0.938-0.302 0.302-0.1 0.602-0.197 0.904-0.296 0.305-0.103 0.611-0.203 0.916-0.302 0.302-0.097 0.602-0.191 0.898-0.29zM22.669 9.845c0 0 0 0.003 0 0-0.112 0.039-0.221 0.076-0.333 0.115 0.109-0.039 0.221-0.076 0.333-0.115zM21.753 10.226c0 0-0.003 0 0 0-0.009-0.021-0.018-0.042-0.024-0.064 0.006 0.021 0.015 0.042 0.024 0.064zM16.445 11.938c0 0 0 0 0 0s0 0 0 0 0 0 0 0zM16.463 11.908c0.006-0.009 0.009-0.018 0.018-0.030 0 0 0 0 0 0-0.006 0.012-0.012 0.021-0.018 0.030zM16.829 11.992c-0.061 0.045-0.124 0.051-0.203 0.003-0.003 0-0.006 0-0.012 0 0.003 0 0.006 0 0.012 0 0.079 0.048 0.142 0.039 0.203-0.003zM16.717 11.593c0.012-0.009 0.024-0.015 0.036-0.021 0.054-0.027 0.121-0.045 0.175-0.048-0.070 0.021-0.139 0.045-0.212 0.070zM18.898 10.613c0.067 0.094 0.061 0.154-0.018 0.191-0.009 0.003-0.021 0.009-0.033 0.012-0.027 0.006-0.054 0.018-0.085 0.027-0.46 0.148-0.916 0.296-1.376 0.445-0.305 0.097-0.611 0.197-0.913 0.293-0.184 0.060-0.369 0.118-0.553 0.178-0.003 0-0.006 0.003-0.006 0.003-0.042 0.012-0.079 0.048-0.115 0.073 0.009 0.012 0.015 0.024 0.024 0.039 0.021-0.003 0.042-0.006 0.064-0.012-0.378 0.124-0.756 0.248-1.134 0.372-0.448 0.145-0.898 0.29-1.346 0.439-0.048 0.015-0.085 0.057-0.127 0.088-0.045 0-0.103-0.012-0.151 0.003-0.079-0.021-0.157-0.045-0.227-0.027-0.321 0.085-0.632 0.2-0.95 0.296-0.251 0.079-0.508 0.145-0.762 0.215 0.021 0.042 0.045 0.082 0.067 0.124-0.009 0.003-0.015 0.006-0.024 0.009-0.033 0.012-0.057 0.024-0.076 0.039 0.003-0.027 0.003-0.057-0.006-0.097 0-0.009 0.003-0.021 0.012-0.033 0.009-0.015 0.021-0.030 0.027-0.042-0.166 0.060-0.336 0.121-0.505 0.184-0.048 0.018-0.097 0.033-0.145 0.051-0.018-0.051-0.036-0.1-0.057-0.154 2.816-0.907 5.62-1.812 8.417-2.716zM5.704 8.971c0.012-0.006 0.003-0.051 0-0.085 0 0 0 0 0.003 0 0 0 0-0.003 0-0.003s0 0.003-0.003 0.003c0-0.006 0-0.009 0-0.015 0.051-0.030 0.097-0.060 0.148-0.085 0.027-0.015 0.061-0.036 0.085-0.030 0.018 0.006 0.039 0.045 0.042 0.073 0 0 0 0 0 0-0.006-0.024-0.021-0.051-0.039-0.057-0.024-0.006-0.057 0.015-0.085 0.030-0.051 0.027-0.097 0.057-0.148 0.085 0 0.036 0.015 0.094 0 0.103-0.145 0.091-0.133 0.236-0.13 0.372 0.003 0.188 0.021 0.375 0.033 0.563 0 0 0 0-0.003 0-0.012-0.194-0.030-0.384-0.033-0.578-0.003-0.139-0.015-0.284 0.13-0.375z"></path>
    <path d="M14.488 22.231c0.088-0.030 0.139-0.015 0.203 0.061 0.269 0.321 0.544 0.635 0.817 0.953 0.142 0.163 0.151 0.163 0.321 0.018 0.312-0.266 0.629-0.532 0.938-0.808 0.079-0.070 0.133-0.076 0.224-0.027 0.224 0.124 0.457 0.236 0.687 0.348 0.085 0.039 0.175 0.067 0.269 0.1-0.079-0.33-0.339-0.448-0.617-0.569 0.272-0.121 0.557-0.136 0.765-0.39-0.254 0.082-0.475 0.136-0.687 0.224-0.169 0.073-0.318 0.073-0.466-0.033-0.079-0.057-0.142-0.036-0.212 0.027-0.157 0.148-0.327 0.284-0.49 0.426-0.184 0.157-0.366 0.312-0.56 0.475-0.151-0.172-0.29-0.336-0.445-0.517 1.742-0.569 3.46-1.131 5.199-1.7-0.021 0.239-0.039 0.457-0.057 0.684-0.475-0.036-0.929-0.073-1.385-0.1-0.054-0.003-0.148 0.039-0.163 0.082-0.070 0.181-0.197 0.278-0.381 0.321-0.036 0.009-0.057 0.073-0.088 0.109 0.012 0.009 0.024 0.018 0.036 0.027 0.064-0.015 0.127-0.030 0.215-0.051-0.157 0.308-0.299 0.59-0.445 0.874 0.051 0.076 0.106 0.157 0.169 0.251 0.212-0.42 0.42-0.823 0.62-1.228 0.048-0.097 0.103-0.127 0.209-0.118 0.363 0.033 0.723 0.057 1.086 0.085 0.118 0.009 0.239 0.012 0.363 0.018 0.009-0.054 0.018-0.094 0.021-0.133 0.033-0.436 0.070-0.871 0.097-1.31 0.006-0.106 0.042-0.157 0.145-0.191 0.378-0.118 0.756-0.242 1.134-0.366 0.085-0.030 0.166-0.057 0.26-0.091-0.051-0.154-0.097-0.29-0.145-0.439-0.109 0.079-0.242 0.109-0.209 0.251-0.166 0.097-0.324 0.188-0.481 0.281-0.006-0.015-0.015-0.045-0.030-0.082-0.305 0.1-0.605 0.2-0.898 0.296-0.024 0.221-0.024 0.221-0.227 0.287-1.382 0.454-2.761 0.907-4.162 1.364 0.030 0.033 0.045 0.057 0.054 0.057 0.097-0.012 0.194-0.018 0.287-0.045 0.212-0.061 0.42-0.13 0.629-0.2 1.004-0.33 2.008-0.656 3.012-0.986 0.118-0.039 0.236-0.076 0.36-0.115 0.015 0.321 0.015 0.321-0.248 0.408-0.257 0.088-0.514 0.169-0.771 0.254-1.358 0.445-2.716 0.889-4.074 1.334-0.236 0.079-0.299 0.048-0.405-0.197 0.393-0.13 0.783-0.257 1.177-0.387 0-0.018-0.003-0.033-0.003-0.048-0.082 0-0.172-0.021-0.248 0.003-0.318 0.097-0.632 0.206-0.95 0.302-0.045 0.015-0.127-0.003-0.151-0.036-0.067-0.088-0.13-0.082-0.221-0.051-0.405 0.139-0.811 0.269-1.219 0.399-0.030 0.009-0.073-0.018-0.109-0.027 0.024-0.027 0.042-0.067 0.073-0.076 0.296-0.103 0.596-0.191 0.889-0.296 0.557-0.206 1.161-0.29 1.673-0.674-0.907 0.296-1.794 0.587-2.692 0.88-0.036-0.109-0.067-0.2-0.097-0.296 0.054-0.021 0.091-0.036 0.13-0.048 0.693-0.227 1.385-0.454 2.078-0.684 0.054-0.018 0.1-0.070 0.163-0.112 0.227 0.051 0.426-0.1 0.647-0.178-0.085-0.027-0.172-0.039-0.248-0.015-0.599 0.191-1.195 0.387-1.794 0.584-0.333 0.109-0.665 0.218-1.016 0.333-0.033-0.106-0.064-0.197-0.097-0.302 2.904-0.95 5.789-1.893 8.681-2.837 0.024 0.061 0.042 0.106 0.070 0.166 0.024-0.042 0.042-0.073 0.057-0.1 0.073 0.030 0.136 0.057 0.203 0.085-0.054-0.175-0.106-0.345-0.16-0.517 0.236-0.079 0.463-0.163 0.693-0.224 0.076-0.021 0.166 0.018 0.254 0.030 0.088-0.021 0.188-0.042 0.287-0.067 0.012-0.018 0.033-0.048 0.054-0.079-0.088 0.012-0.178 0.021-0.269 0.033 0-0.009-0.003-0.021-0.003-0.030 0.085-0.030 0.166-0.064 0.251-0.097l0.003 0.003c-0.097-0.106-0.215-0.133-0.348-0.091-0.188 0.057-0.372 0.118-0.56 0.178-0.339 0.109-0.677 0.23-1.019 0.327-0.248 0.070-0.251 0.057-0.251 0.299 0 0-0.003 0-0.003 0-0.003 0-0.003 0.003-0.006 0.003-0.033-0.012-0.073-0.024-0.079-0.042-0.039-0.151-0.136-0.142-0.245-0.097-0.097 0.039-0.184 0.1-0.281 0.133-0.33 0.115-0.662 0.218-0.995 0.327-0.181 0.057-0.363 0.115-0.544 0.172 0 0.018 0.003 0.039 0.003 0.057 0.251 0.018 0.505 0.036 0.756 0.054 0 0-0.003 0.003-0.003 0.003 0.003 0 0.003 0 0.006-0.003 0 0-0.003 0-0.003 0.003l0.006-0.003c0 0 0 0 0 0 0.236-0.082 0.472-0.16 0.705-0.245-0.127-0.039-0.248-0.048-0.369-0.003 0.124-0.045 0.248-0.036 0.372 0.003 0.064-0.015 0.127-0.033 0.191-0.048 0.393-0.112 0.789-0.227 1.183-0.342 0 0.003 0 0.003 0.003 0.006-0.393 0.115-0.789 0.227-1.183 0.342-0.064 0.015-0.127 0.033-0.191 0.048-0.239 0.082-0.475 0.163-0.714 0.245-0.039 0.024-0.073 0.061-0.115 0.073-0.302 0.091-0.605 0.175-0.907 0.269-0.278 0.085-0.55 0.181-0.826 0.269-0.142 0.042-0.29 0.067-0.43 0.115-0.269 0.094-0.535 0.203-0.802 0.302-0.018 0.006-0.045-0.018-0.070-0.018-0.033 0.003-0.064 0.015-0.097 0.021 0.079 0.057 0.003 0.057-0.027 0.067-0.281 0.091-0.563 0.178-0.841 0.269-0.142 0.045-0.281 0.109-0.426 0.145-0.13 0.033-0.275 0.015-0.396 0.067-0.23 0.097-0.475 0.145-0.702 0.272-0.284 0.16-0.626 0.224-0.941 0.327-0.076-0.109-0.064-0.172 0.060-0.209 0.206-0.061 0.405-0.136 0.611-0.2 0.142-0.045 0.29-0.076 0.432-0.124 0.523-0.172 1.043-0.351 1.57-0.52 0.106-0.036 0.224-0.045 0.336-0.057 0.154-0.015 0.203-0.064 0.169-0.188-0.006 0-0.012-0.003-0.015-0.003-0.26 0.045-0.523 0.091-0.783 0.142-0.027 0.003-0.051 0.054-0.067 0.088-0.033 0.067-0.29 0.178-0.333 0.124-0.079-0.1-0.154-0.042-0.227-0.018-0.95 0.308-1.902 0.62-2.852 0.935-0.115 0.039-0.269 0.036-0.263 0.224 0 0.015-0.033 0.033-0.051 0.048 0.070 0.009 0.127-0.006 0.181-0.024 0.266-0.085 0.532-0.169 0.799-0.254 0.136-0.042 0.248 0 0.227 0.085-0.048 0.191 0.048 0.345 0.097 0.508 0.085 0.275 0.178 0.55 0.272 0.838 0.076-0.024 0.139-0.039 0.2-0.061 0.402-0.13 0.805-0.26 1.204-0.396z"></path>
    <path d="M19.496 19.115c0 0 0.003 0 0.003 0s0.003 0 0.003-0.003l-0.006 0.003z"></path>
    <path d="M25.161 8.484c0.015 0 0.030-0.003 0.045-0.003-0.006-0.006-0.012-0.012-0.015-0.018-0.009 0.006-0.021 0.012-0.030 0.021z"></path>
    <path d="M10.928 27.046c0 0.073 0 0.145 0 0.218-0.042-0.175-0.064-0.351-0.091-0.526-0.006-0.039-0.021-0.094-0.051-0.112-0.112-0.064-0.23-0.115-0.345-0.172-0.009 0.006-0.018 0.015-0.027 0.021 0.054 0.127 0.109 0.251 0.172 0.393-0.070 0.045-0.151 0.103-0.263 0.178 0.018-0.097 0.039-0.145 0.030-0.184-0.027-0.109-0.070-0.212-0.1-0.321-0.036-0.136-0.094-0.248-0.227-0.327-0.257-0.154-0.499-0.333-0.75-0.496-0.024-0.015-0.060-0.009-0.097-0.012 0.012 0.103 0.024 0.191 0.033 0.272-0.060-0.033-0.106-0.057-0.151-0.082 0.103-0.054 0.118-0.145 0.042-0.299-0.009 0.094-0.015 0.145-0.021 0.197-0.039-0.094-0.054-0.212-0.127-0.266-0.254-0.224-0.526-0.426-0.789-0.635-0.009-0.009-0.024-0.012-0.042-0.018-0.003 0.039-0.006 0.076-0.009 0.106-0.224-0.061-0.112 0.166-0.203 0.224-0.012-0.157-0.024-0.315-0.042-0.469-0.006-0.054-0.015-0.121-0.048-0.154-0.178-0.181-0.363-0.36-0.553-0.544-0.003 0.048-0.006 0.082-0.006 0.079-0.215-0.293-0.442-0.608-0.671-0.922 0.254-0.115 0.251-0.112 0.408 0.088 0.085 0.109 0.178 0.215 0.275 0.327 0.033-0.048 0.061-0.085 0.085-0.124-0.118-0.142-0.23-0.278-0.36-0.436 0.299-0.1 0.578-0.197 0.862-0.278 0.136-0.039 0.16-0.112 0.118-0.23-0.012-0.003-0.024-0.006-0.033-0.003-0.56 0.181-1.119 0.363-1.679 0.547-0.030 0.009-0.073 0.042-0.073 0.064 0 0.121 0.012 0.239 0.018 0.357 0.015-0.003 0.027-0.003 0.042-0.003 0-0.079 0-0.154 0-0.233 0.018 0 0.033-0.003 0.048-0.003 0.030 0.175 0.067 0.351 0.091 0.529 0.021 0.169 0.067 0.324 0.2 0.442 0.088 0.079 0.169 0.166 0.248 0.254 0.088 0.097 0.172 0.2 0.26 0.299 0.009-0.006 0.015-0.012 0.024-0.018-0.015-0.082-0.030-0.16-0.045-0.242 0.018-0.003 0.039-0.006 0.057-0.009 0.012 0.094 0.018 0.191 0.036 0.284 0.009 0.039 0.042 0.070 0.064 0.106 0.006-0.003 0.012-0.009 0.018-0.015-0.003-0.048-0.009-0.094-0.018-0.184 0.045 0.064 0.085 0.094 0.085 0.124 0.003 0.212 0.169 0.305 0.296 0.426 0.109 0.103 0.224 0.2 0.342 0.29 0.442 0.336 0.886 0.671 1.337 1.010 0.039-0.064 0.057-0.094 0.082-0.133 0.021 0.061 0.036 0.109 0.051 0.157 0.033-0.079 0.060-0.151 0.091-0.221 0.018 0 0.033 0 0.051 0 0.027 0.103 0.054 0.203 0.085 0.305 0.012 0.033 0.021 0.076 0.045 0.097 0.221 0.175 0.505 0.242 0.726 0.433 0.136 0.121 0.363 0.136 0.566 0.203-0.015-0.124-0.027-0.239-0.042-0.357-0.009 0-0.015 0-0.024 0z"></path>
    <path d="M2.722 24.23c-0.079-0.233-0.154-0.454-0.227-0.674-0.012 0.003-0.021 0.003-0.033 0.006 0.012 0.163 0.024 0.324 0.033 0.478-0.060-0.348-0.106-0.708-0.191-1.056-0.079-0.315-0.197-0.623-0.299-0.932-0.094-0.281-0.188-0.56-0.284-0.853-0.051 0.039-0.088 0.064-0.121 0.091-0.073-0.236-0.070-0.236-0.024-0.493 0.009-0.036-0.009-0.079-0.021-0.115-0.157-0.481-0.315-0.959-0.484-1.473-0.021 0.057-0.027 0.076-0.048 0.133-0.042-0.251-0.082-0.472-0.118-0.693-0.024 0.006-0.051 0.009-0.076 0.015 0.024 0.109 0.045 0.221 0.070 0.33 0.021 0.097 0.048 0.194 0.064 0.29 0.003 0.021-0.033 0.051-0.076 0.112 0.079 0.245 0.172 0.532 0.269 0.82 0.064 0.197 0.124 0.393 0.197 0.587 0.024 0.064 0.109 0.109 0.121 0.172 0.021 0.109 0.006 0.227 0.006 0.336-0.345-0.922-0.693-1.851-1.040-2.789 0.242 2.093 1.113 3.983 1.781 5.934 0.030 0.082 0.088 0.154 0.148 0.254 0.018-0.203-0.109-0.378 0.030-0.587 0.064 0.145 0.115 0.26 0.172 0.387 0.169-0.13 0.439-0.067 0.544-0.312-0.003 0.030-0.006 0.061-0.009 0.112 0.118-0.036 0.218-0.073 0.315-0.103-0.051-0.051-0.097-0.094-0.154-0.151-0.166 0.054-0.351 0.112-0.544 0.172z"></path>
    <path d="M24.191 21.444l-0.003-0.003c-0.003 0.003-0.006 0.006-0.006 0.009 0.003 0 0.006-0.003 0.009-0.006z"></path>
    <path d="M24.048 21.553c-1.025 1.464-2.341 2.586-3.968 3.33-1.857 0.85-3.796 1.101-5.81 0.759-0.060-0.009-0.127 0.009-0.2 0.015-0.042-0.070-0.312-0.154-0.826-0.245-0.021 0.233-0.021 0.233 0.184 0.287 1.573 0.411 3.155 0.451 4.74 0.085 2.492-0.572 4.492-1.899 5.995-3.968 0.076-0.103 0.054-0.197 0.006-0.254-0.048-0.067-0.012-0.082 0.012-0.112-0.048 0.033-0.103 0.057-0.133 0.103z"></path>
    <path d="M17.164 4.615c1.022 0.103 2.011 0.348 2.967 0.72 0.874 0.342 1.697 0.789 2.462 1.337 0.145 0.106 0.296 0.203 0.445 0.305 0.109 0.166 0.281 0.209 0.466 0.23-0.148-0.088-0.218-0.305-0.445-0.254 0 0 0.003-0.003 0.003-0.003 0.012-0.027 0.021-0.057 0.033-0.088-2.692-2.126-6.427-3.034-10.051-2.078-2.054 0.541-3.826 1.573-5.32 3.079 0.027 0.045 0.051 0.082 0.097 0.154 0.048-0.115 0.082-0.2 0.118-0.287 0.021 0.021 0.042 0.039 0.054 0.051 0.281-0.242 0.55-0.487 0.832-0.714 0.898-0.729 1.893-1.298 2.967-1.724 0.057-0.024 0.106-0.079 0.148-0.112 0.076-0.009 0.154-0.003 0.221-0.027 0.871-0.296 1.76-0.508 2.68-0.596 0.774-0.073 1.549-0.073 2.323 0.006z"></path>
    <path d="M15.589 5.98c-0.027-0.039-0.121-0.057-0.181-0.051-0.351 0.033-0.702 0.061-1.050 0.118-0.339 0.054-0.678 0.127-1.010 0.218-0.977 0.263-1.896 0.665-2.749 1.21-0.318 0.203-0.62 0.426-0.944 0.653 0.051 0.021 0.073 0.027 0.073 0.027-0.953 0.65-1.654 1.524-2.302 2.513 0.088 0.015 0.148 0.042 0.191 0.027 0.036-0.015 0.057-0.082 0.082-0.121 0.006 0.021 0.015 0.042 0.027 0.085 0.121-0.23 0.351-0.39 0.321-0.681 0.018 0.033 0.039 0.067 0.070 0.121 0.015-0.027 0.024-0.045 0.036-0.060 0.756-0.992 1.664-1.815 2.728-2.465 0.030-0.018 0.036-0.076 0.064-0.106 0.024-0.024 0.064-0.039 0.097-0.045 0.024-0.003 0.057 0.021 0.079 0.012 0.351-0.172 0.702-0.345 1.053-0.52 0.006 0 0.003-0.012 0.006-0.027-0.048 0.012-0.088 0.021-0.136 0.030 0-0.045 0-0.079 0-0.121 0.097 0.076 0.172 0.094 0.2-0.051 0.003-0.024 0.015-0.048 0.033-0.064 0.021-0.015 0.051-0.021 0.076-0.030 0 0.027 0 0.054 0 0.097 0.13-0.015 0.263-0.015 0.393-0.051 0.215-0.054 0.423-0.133 0.635-0.194 0.681-0.197 1.379-0.29 2.081-0.348 0.215-0.015 0.227-0.018 0.13-0.175z"></path>
    <path d="M17.848 24.699c0.188-0.033 0.336-0.054 0.487-0.088 0.109-0.024 0.188-0.003 0.263 0.085 0.103 0.121 0.218 0.227 0.348 0.36 0.027-0.194 0.042-0.36 0.079-0.52 0.015-0.067 0.070-0.139 0.127-0.175 0.145-0.088 0.302-0.151 0.472-0.236-0.157-0.079-0.29-0.151-0.43-0.209-0.121-0.048-0.178-0.124-0.184-0.257-0.009-0.145-0.042-0.29-0.070-0.454-0.127 0.127-0.239 0.23-0.339 0.342-0.079 0.088-0.16 0.118-0.278 0.088-0.145-0.036-0.296-0.048-0.466-0.073 0.088 0.169 0.172 0.315 0.236 0.466 0.024 0.057 0.021 0.145-0.003 0.203-0.067 0.151-0.151 0.293-0.242 0.469z"></path>
    <path d="M6.96 11.545c-0.251 0.566-0.454 1.149-0.671 1.727-0.061 0.16-0.109 0.33 0.076 0.457 0.018 0.015 0.012 0.067 0.024 0.127 0.257-1.11 0.659-2.132 1.249-3.064-0.094-0.009-0.169-0.015-0.257-0.024-0.191 0.227-0.305 0.508-0.42 0.777z"></path>
    <path d="M12.688 7.619c0.333 0.057 0.191 0.372 0.299 0.587 0.076-0.082 0.148-0.148 0.209-0.227 0.073-0.097 0.154-0.148 0.281-0.1 0.051 0.021 0.109 0.030 0.163 0.030 0.036 0 0.079-0.015 0.106-0.036 0.012-0.009 0.006-0.064-0.009-0.079-0.021-0.018-0.060-0.015-0.091-0.018-0.015 0-0.033 0.003-0.060 0.003 0.003-0.085 0.181-0.191-0.039-0.212 0.036-0.076 0.067-0.136 0.097-0.197-0.033-0.054-0.054-0.1-0.094-0.139-0.039-0.045-0.097-0.121-0.133-0.112-0.115 0.024-0.166-0.048-0.224-0.115-0.064-0.073-0.121-0.154-0.181-0.233-0.018 0.015-0.033 0.027-0.051 0.039-0.015 0.112-0.039 0.221-0.042 0.33-0.003 0.118-0.079 0.169-0.166 0.206-0.136 0.054-0.006 0.178-0.070 0.248 0 0.003 0.003 0.009 0.006 0.024z"></path>
    <path d="M20.951 23.67c0.033-0.184 0.018-0.348 0.094-0.448 0.079-0.106 0.242-0.148 0.411-0.242-0.372-0.054-0.514-0.269-0.508-0.617-0.181 0.293-0.414 0.372-0.738 0.254 0.242 0.272 0.188 0.523-0.003 0.789 0.327-0.139 0.563-0.048 0.744 0.263z"></path>
    <path d="M21.998 18.907c-0.003-0.015-0.006-0.030-0.012-0.042-0.284 0.030-5.308 1.636-5.526 1.781 0.118 0 0.2 0.018 0.269-0.003 0.085-0.024 0.16-0.091 0.245-0.118 0.112-0.033 0.233-0.036 0.342-0.070 0.327-0.1 0.65-0.212 0.974-0.318 1.080-0.354 2.16-0.705 3.239-1.062 0.085-0.027 0.151-0.097 0.233-0.127 0.073-0.027 0.157-0.030 0.236-0.042z"></path>
    <path d="M16.962 24.475c-0.16-0.085-0.315-0.121-0.387-0.218-0.073-0.103-0.067-0.263-0.103-0.445-0.181 0.299-0.417 0.396-0.75 0.23 0.082 0.175 0.184 0.302 0.188 0.436 0.003 0.118-0.097 0.242-0.16 0.381 0.091-0.012 0.175-0.012 0.254-0.039 0.13-0.042 0.215 0.009 0.293 0.109 0.051 0.064 0.118 0.115 0.175 0.169 0.015-0.003 0.027-0.003 0.039-0.003-0.067-0.354 0.121-0.529 0.451-0.62z"></path>
    <path d="M10.816 24.366c-0.572-0.442-1.143-0.883-1.7-1.316-0.009 0.278-0.009 0.278 0.2 0.463 0.060 0.054 0.121 0.109 0.184 0.157 0.405 0.305 0.814 0.608 1.228 0.916 0.045-0.109 0.073-0.178 0.088-0.221z"></path>
    <path d="M15.126 7.501c0.091-0.030 0.206 0.012 0.357 0.027-0.197-0.206-0.181-0.402-0.033-0.614-0.251 0.106-0.426 0.027-0.566-0.188-0.030 0.133-0.024 0.254-0.082 0.333-0.054 0.079-0.172 0.109-0.302 0.184 0.287 0.051 0.378 0.224 0.366 0.487 0.103-0.097 0.169-0.2 0.26-0.23z"></path>
    <path d="M11.394 7.84c-0.006 0.275-0.051 0.478-0.381 0.499 0.157 0.085 0.263 0.142 0.348 0.188 0.012 0.112 0.024 0.212 0.036 0.312 0.015 0.009 0.033 0.021 0.048 0.030 0.067-0.082 0.118-0.2 0.203-0.233 0.088-0.033 0.212 0.015 0.363 0.033-0.194-0.2-0.194-0.393-0.039-0.611-0.257 0.112-0.42 0-0.578-0.218z"></path>
    <path d="M18.662 20.389c0.124-0.012 0.251-0.003 0.366-0.039 0.814-0.257 1.627-0.523 2.438-0.792 0.064-0.021 0.112-0.091 0.166-0.136-0.009-0.012-0.021-0.027-0.030-0.039-0.98 0.324-1.963 0.644-2.946 0.968 0.003 0.012 0.006 0.027 0.006 0.039z"></path>
    <path d="M11.427 21.399c-0.042 0.012-0.085 0.021-0.127 0.033-0.423 0.139-0.847 0.281-1.273 0.417-0.115 0.036-0.215 0.079-0.224 0.251 0.064-0.012 0.124-0.015 0.181-0.036 0.448-0.142 0.895-0.296 1.346-0.433 0.136-0.042 0.148-0.109 0.097-0.233z"></path>
    <path d="M18.247 20.479c-0.696 0.224-1.385 0.454-2.078 0.684-0.033 0.012-0.054 0.057-0.079 0.085 0.036 0.009 0.079 0.036 0.109 0.027 0.369-0.124 0.741-0.254 1.11-0.381 0.085-0.030 0.169-0.061 0.257-0.085 0.287-0.082 0.578-0.166 0.865-0.248 0-0.021-0.003-0.042 0.003-0.067-0.064-0.006-0.133-0.033-0.188-0.015z"></path>
    <path d="M15.976 19.908c0.233 0.039 0.42-0.124 0.65-0.094 0.079 0.012 0.16 0.003 0.239 0.009 0.188 0.015 0.33-0.106 0.493-0.166 0.203-0.076 0.399-0.163 0.599-0.245 0.024-0.009 0.042-0.030 0.064-0.045-0.006-0.015-0.012-0.027-0.018-0.042-0.118 0.039-0.239 0.079-0.369 0.121 0.015-0.036 0.024-0.061 0.042-0.1-0.575 0.191-1.137 0.378-1.7 0.563z"></path>
    <path d="M23.973 7.8c0.257 0.284 0.499 0.557 0.738 0.832 0.085 0.097 0.085 0.1 0.224 0.033-0.188-0.2-0.318-0.454-0.55-0.55-0.024-0.064-0.033-0.106-0.057-0.133-0.054-0.064-0.115-0.115-0.175-0.172-0.16-0.154-0.318-0.309-0.481-0.457-0.018-0.015-0.070 0.012-0.106 0.018 0.006 0.030 0.003 0.073 0.021 0.088 0.121 0.106 0.212 0.26 0.402 0.257 0.009 0 0.015 0.012 0.027 0.021-0.006 0.015-0.012 0.027-0.021 0.036-0.009 0.012-0.018 0.024-0.021 0.027z"></path>
    <path d="M10.011 25.721c-0.197-0.124-0.387-0.26-0.578-0.393-0.015 0.015-0.033 0.030-0.045 0.042 0.048 0.067 0.085 0.154 0.148 0.2 0.175 0.127 0.36 0.236 0.544 0.348 0.148 0.091 0.302 0.172 0.457 0.26 0.039-0.121 0-0.178-0.091-0.224-0.148-0.073-0.296-0.145-0.436-0.233z"></path>
    <path d="M24.106 7.005c-0.015 0.003-0.030 0.003-0.045 0.006 0.009 0.045 0.015 0.091 0.024 0.142 0 0 0.027 0.009 0.051 0.015-0.036 0.045-0.067 0.085-0.097 0.124 0.051 0.051 0.094 0.106 0.145 0.142 0.061 0.042 0.127 0.073 0.191 0.109 0.027-0.151 0.067-0.299 0.082-0.454 0.003-0.033-0.073-0.1-0.118-0.106-0.076-0.012-0.154 0.012-0.233 0.021z"></path>
    <path d="M4.346 23.806c0.042 0.018 0.094 0.061 0.13 0.051 0.139-0.030 0.269-0.088 0.405-0.118 0.115-0.024 0.206-0.064 0.227-0.206 0.033 0.042 0.054 0.073 0.091 0.118 0.021-0.085 0.039-0.145 0.064-0.245-0.302 0.1-0.575 0.184-0.844 0.278-0.033 0.012-0.048 0.079-0.073 0.121z"></path>
    <path d="M11.85 24.886c-0.163-0.109-0.351-0.178-0.529-0.266-0.012 0.006-0.024 0.012-0.036 0.018 0.039 0.094 0.051 0.227 0.121 0.278 0.142 0.106 0.315 0.166 0.475 0.245 0.018-0.006 0.036-0.015 0.054-0.024-0.027-0.085-0.027-0.212-0.085-0.251z"></path>
    <path d="M12.528 25.174c-0.012 0.006-0.024 0.015-0.042 0.021 0.030 0.082 0.039 0.206 0.094 0.233 0.194 0.091 0.402 0.145 0.605 0.215 0.009-0.015 0.015-0.033 0.024-0.051-0.060-0.024-0.118-0.051-0.178-0.076 0.051-0.033 0.136-0.070 0.133-0.085-0.018-0.085-0.079-0.103-0.157-0.061-0.009 0.006-0.042-0.006-0.051-0.018-0.103-0.139-0.215-0.106-0.342-0.024 0.015-0.033 0.033-0.070 0.051-0.112-0.051-0.015-0.094-0.030-0.136-0.042z"></path>
    <path d="M2.036 16.526c0.257 0.061 0.448-0.115 0.671-0.142-0.033-0.070-0.054-0.118-0.088-0.184-0.254 0.085-0.493 0.163-0.747 0.248 0.036 0.067 0.067 0.115 0.115 0.2 0.030-0.073 0.045-0.115 0.048-0.121z"></path>
    <path d="M8.051 22.5c0 0.064 0 0.118 0 0.191 0.184-0.045 0.357-0.16 0.49 0.018 0.012-0.127 0.021-0.251 0.033-0.381-0.16 0.054-0.345 0.115-0.523 0.172z"></path>
    <path d="M12.253 25.164c0.169-0.018 0.106 0.148 0.172 0.206 0.015-0.003 0.033-0.009 0.051-0.015-0.027-0.082-0.027-0.203-0.085-0.239-0.133-0.085-0.29-0.127-0.448-0.191-0.012 0.115-0.045 0.224 0.073 0.287 0.067 0.036 0.142 0.057 0.218 0.088 0.006-0.057 0.012-0.097 0.018-0.136z"></path>
    <path d="M8.073 24.224c-0.018 0.366 0.312 0.414 0.493 0.596-0.009-0.061 0.006-0.142-0.030-0.178-0.142-0.142-0.296-0.272-0.463-0.417z"></path>
    <path d="M26.919 19.684c0.018-0.036 0.003-0.088 0.003-0.133-0.257 0.166-0.233 0.472-0.357 0.708 0.088-0.048 0.248-0.039 0.163-0.209 0.136-0.085 0.136-0.239 0.191-0.366z"></path>
    <path d="M23.071 17.785c0-0.003 0-0.003 0-0.006 0 0 0 0-0.003 0 0 0.003 0.003 0.006 0.003 0.006z"></path>
    <path d="M23.271 17.594c-0.094-0.103-0.166-0.003-0.236 0.006 0.012 0.064 0.024 0.121 0.036 0.178 0.215-0.067 0.463-0.064 0.575-0.321-0.088 0.015-0.163 0.051-0.239 0.085-0.045 0.021-0.124 0.064-0.136 0.051z"></path>
    <path d="M9.171 25.337c0.036-0.175-0.015-0.251-0.236-0.372-0.027-0.015-0.076 0.009-0.097 0.012-0.042-0.067-0.085-0.136-0.13-0.209-0.015 0.012-0.033 0.024-0.048 0.036 0.033 0.296 0.342 0.333 0.511 0.532z"></path>
    <path d="M9.043 22.173c-0.115 0.036-0.218 0.073-0.321 0.109-0.018 0.006-0.033 0.015-0.054 0.024 0.027 0.054 0.054 0.103 0.079 0.151 0.097-0.024 0.178-0.042 0.257-0.067 0.054-0.018 0.112-0.048 0.048-0.124-0.015-0.018-0.006-0.057-0.009-0.094z"></path>
    <path d="M11.003 24.466c-0.012 0.248 0.024 0.302 0.299 0.384-0.033-0.109-0.045-0.218-0.1-0.293-0.036-0.051-0.133-0.064-0.2-0.091z"></path>
    <path d="M24.49 21.299c-0.070-0.033-0.133-0.064-0.224-0.109-0.024 0.085-0.048 0.169-0.076 0.254 0.048 0.033 0.1 0.070 0.151 0.106 0.048-0.082 0.1-0.166 0.148-0.251z"></path>
    <path d="M24.191 21.444c-0.003-0.003-0.003-0.003-0.006-0.006 0.003 0.003 0.006 0.006 0.006 0.006s0 0 0 0z"></path>
    <path d="M24.78 7.897c-0.070-0.085-0.145-0.172-0.224-0.266 0.009-0.033 0.021-0.079 0.033-0.124-0.073 0.015-0.145 0.027-0.215 0.039 0.018 0.169 0.284 0.387 0.405 0.351z"></path>
    <path d="M24.375 7.543c0 0 0 0.003 0 0 0 0.003 0 0.003 0 0v0 0c0 0.003 0 0.003 0 0 0 0.003 0 0.003 0 0h0.003c0 0 0 0-0.003 0 0 0 0 0 0 0s0 0 0 0z"></path>
    <path d="M1.806 16.638c0.003-0.061 0.006-0.103 0.012-0.175-0.151 0.051-0.275 0.094-0.363 0.127 0.030 0.057 0.060 0.121 0.094 0.191 0.094-0.082 0.085-0.281 0.257-0.142z"></path>
    <path d="M21.462 25.313c0.067 0.012 0.136 0.030 0.203 0.036 0.076 0.006 0.148 0 0.263 0-0.112-0.070-0.106-0.239-0.278-0.197 0.018 0.024 0.030 0.042 0.048 0.067-0.048 0.015-0.091 0.030-0.13 0.045s-0.076 0.033-0.106 0.048z"></path>
    <path d="M21.317 25.34c-0.124 0.039-0.245 0.076-0.396 0.124 0.197 0.097 0.296-0.006 0.396-0.124z"></path>
    <path d="M7.58 8.263c0.048-0.106 0.094-0.209 0.157-0.345-0.209 0.070-0.191 0.203-0.157 0.345z"></path>
    <path d="M9.086 23.28c-0.027-0.133-0.048-0.248-0.070-0.36 0.009 0.115-0.109 0.257 0.070 0.36z"></path>
    <path d="M9.016 22.92c0-0.009-0.003-0.021-0.006-0.030 0.003 0.012 0.003 0.021 0.006 0.030z"></path>
    <path d="M13.665 7.093c-0.024 0.021-0.027 0.070-0.030 0.106 0 0.015 0.018 0.033 0.027 0.048 0.027-0.021 0.060-0.039 0.082-0.067 0.024-0.030 0.036-0.070 0.073-0.139-0.073 0.021-0.121 0.024-0.151 0.051z"></path>
    <path d="M4.086 23.982c0.188-0.018 0.133-0.121 0.115-0.215-0.166 0.012-0.079 0.127-0.115 0.215z"></path>
    <path d="M6.088 23.141c-0.009 0.024-0.030 0.048-0.027 0.070 0.018 0.076 0.042 0.148 0.064 0.221 0.012-0.003 0.024-0.006 0.033-0.009-0.006-0.073-0.003-0.148-0.015-0.221-0.003-0.021-0.036-0.039-0.054-0.061z"></path>
    <path d="M2.913 16.124c-0.057 0.085-0.103 0.148-0.163 0.242 0.103-0.033 0.166-0.054 0.242-0.082-0.024-0.051-0.045-0.094-0.079-0.16z"></path>
    <path d="M20.616 25.642c0.106-0.027 0.209-0.051 0.336-0.082-0.157-0.127-0.239 0.027-0.336 0.082z"></path>
    <path d="M10.411 12.791c-0.012 0.015-0.021 0.033-0.018 0.039 0.012 0.021 0.042 0.048 0.060 0.045 0.067-0.009 0.13-0.027 0.191-0.048 1.273-0.408 2.544-0.82 3.817-1.231 0.073-0.024 0.148-0.048 0.221-0.073 0.245-0.076 0.49-0.157 0.735-0.239-0.006-0.024-0.012-0.051-0.018-0.076-0.13 0.033-0.263 0.060-0.393 0.097-0.085 0.024-0.166 0.067-0.251 0.094-0.042 0.012-0.088 0.006-0.13 0.021-1.37 0.439-2.74 0.88-4.107 1.319-0.027 0.009-0.060 0.015-0.085 0.030-0.006 0.006-0.015 0.015-0.021 0.021z"></path>
    <path d="M15.698 10.631c-0.206 0.064-0.411 0.133-0.614 0.203-0.224 0.076-0.448 0.16-0.674 0.23-0.278 0.088-0.566 0.163-0.85 0.242 0 0.024-0.003 0.051-0.003 0.076 0 0 0.003 0 0.003 0s0 0.003 0 0.003c0.064 0.003 0.13 0.021 0.188 0.003 0.665-0.212 1.328-0.429 1.993-0.647 0.033-0.012 0.057-0.051 0.088-0.079-0.003 0-0.003 0-0.006 0 0 0 0 0 0.003-0.003-0.042-0.009-0.091-0.039-0.127-0.027z"></path>
    <path d="M13.314 11.478c-0.115 0.009-0.236 0-0.342 0.033-0.792 0.248-1.582 0.505-2.368 0.762-0.067 0.021-0.118 0.079-0.178 0.121 0.003 0.006 0.006 0.012 0.009 0.015 0.006 0.012 0.012 0.021 0.021 0.036 0.956-0.309 1.912-0.62 2.867-0.929 0 0 0 0 0-0.003 0 0 0.003 0 0.003 0-0.003-0.012-0.009-0.024-0.012-0.036z"></path>
    <path d="M25.791 13.716c0 0.057 0 0.1 0 0.145 0 0.302 0.003 0.605-0.006 0.904-0.003 0.166-0.1 0.278-0.242 0.278-0.16 0.003-0.154-0.136-0.166-0.239-0.061-0.469-0.109-0.941-0.175-1.409-0.018-0.133 0.015-0.224 0.094-0.327 0.381-0.49 0.75-0.986 1.125-1.482 0.021-0.027 0.036-0.054 0.054-0.088-0.257-0.178-0.505-0.348-0.753-0.517-0.227 0.327-0.448 0.644-0.69 0.995-0.076-0.626-0.145-1.207-0.215-1.784-0.021 0-0.039 0-0.061 0-0.269 0.094-0.538 0.188-0.808 0.278-0.079 0.027-0.115 0.060-0.1 0.148 0.030 0.215 0.051 0.429 0.079 0.644 0.148 1.216 0.293 2.429 0.442 3.645 0.033 0.26 0.057 0.523 0.121 0.774 0.085 0.333 0.324 0.466 0.656 0.384 0.221-0.051 0.433-0.133 0.65-0.197 0.517-0.151 0.835-0.475 0.88-1.025 0.030-0.375 0.042-0.75 0.061-1.131-0.339 0.003-0.638 0.003-0.947 0.003z"></path>
    <path d="M16.529 14.808c-0.018-0.118-0.036-0.218-0.057-0.339-0.351 0.112-0.687 0.221-1.028 0.333 0.009 0.064 0.009 0.112 0.021 0.16 0.033 0.133-0.006 0.206-0.151 0.248-0.315 0.088-0.623 0.197-0.935 0.296-0.33 0.106-0.656 0.215-0.992 0.324 0.133 1.11 0.266 2.208 0.402 3.321 0.342-0.112 0.671-0.218 0.971-0.315 0.030-0.094 0.036-0.209 0.076-0.224 0.333-0.121 0.674-0.227 1.022-0.339 0.039 0.308 0.076 0.602 0.115 0.913 0.357-0.115 0.693-0.224 1.031-0.336-0.033-0.281-0.061-0.547-0.097-0.811-0.012-0.082 0.009-0.118 0.088-0.139 0.154-0.045 0.305-0.097 0.46-0.148 0.178-0.057 0.357-0.115 0.538-0.172 0.018 0.070 0.033 0.121 0.048 0.184 0.339-0.109 0.662-0.215 0.995-0.324-0.133-1.11-0.269-2.211-0.402-3.321-0.705 0.233-1.397 0.457-2.105 0.687zM14.539 16.641c-0.048-0.321-0.048-0.321 0.266-0.423 0.254-0.082 0.505-0.163 0.777-0.251 0.015 0.127 0.030 0.242 0.048 0.366-0.366 0.118-0.717 0.233-1.068 0.348-0.021-0.030-0.024-0.036-0.024-0.039zM15.691 17.476c-0.327 0.109-0.656 0.215-1.013 0.33-0.015-0.124-0.036-0.227-0.039-0.33 0-0.030 0.039-0.079 0.073-0.088 0.327-0.112 0.656-0.218 1.001-0.33 0.015 0.121 0.033 0.227 0.039 0.336 0.003 0.024-0.030 0.073-0.060 0.082zM16.629 15.691c-0.003-0.024 0.027-0.070 0.048-0.079 0.348-0.115 0.696-0.227 1.053-0.342 0.015 0.13 0.030 0.245 0.042 0.366-0.366 0.118-0.723 0.236-1.104 0.357-0.015-0.115-0.033-0.209-0.039-0.302zM17.606 16.856c-0.263 0.085-0.526 0.169-0.786 0.254-0.009-0.018-0.015-0.027-0.018-0.036-0.079-0.348-0.079-0.348 0.257-0.457 0.263-0.085 0.526-0.169 0.786-0.254 0.009 0.015 0.015 0.024 0.018 0.033 0.082 0.354 0.079 0.351-0.257 0.46z"></path>
    <path d="M7.395 19.315c-0.061-0.378 0.036-0.674 0.26-0.968 0.015 0.073 0.027 0.139 0.042 0.227 1.428-0.463 2.837-0.919 4.253-1.382-0.036-0.293-0.070-0.575-0.106-0.865-0.56 0.181-1.098 0.354-1.651 0.532-0.015-0.136-0.030-0.248-0.042-0.369 0.451-0.148 0.892-0.293 1.34-0.439-0.036-0.296-0.070-0.575-0.106-0.865-0.454 0.145-0.889 0.287-1.34 0.432-0.027-0.218-0.054-0.411-0.082-0.614-0.354 0.115-0.69 0.224-1.031 0.336 0.021 0.166 0.036 0.315 0.060 0.463 0.018 0.112-0.006 0.166-0.127 0.203-0.333 0.097-0.662 0.212-0.989 0.324-0.039 0.012-0.097 0.061-0.094 0.088 0.024 0.263 0.057 0.526 0.091 0.811 0.423-0.136 0.826-0.263 1.24-0.396 0.015 0.136 0.030 0.251 0.042 0.369-0.529 0.172-1.043 0.339-1.564 0.508 0.006 0.082 0.009 0.154 0.015 0.242-0.248-0.076-0.478-0.145-0.714-0.218-0.027 0.054-0.045 0.1-0.070 0.145-0.299 0.563-0.59 1.134-0.91 1.685-0.118 0.203-0.2 0.357-0.070 0.59 0.115 0.206 0.172 0.442 0.266 0.687 0.142-0.203 0.263-0.378 0.411-0.59 0.082 0.668 0.157 1.291 0.236 1.924 0.33-0.109 0.641-0.209 0.947-0.308-0.003-0.039 0-0.057-0.003-0.079-0.097-0.823-0.175-1.651-0.305-2.471z"></path>
    <path d="M22.267 14.104c-0.018-0.139-0.033-0.281-0.051-0.432-0.139 0.079-0.257 0.142-0.393 0.218-0.027-0.224-0.045-0.429-0.079-0.632-0.015-0.097-0.003-0.148 0.103-0.172 0.097-0.021 0.188-0.064 0.293-0.1-0.036-0.305-0.073-0.602-0.109-0.91-0.145 0.042-0.275 0.079-0.411 0.121-0.039-0.321-0.079-0.617-0.118-0.932-0.33 0.106-0.638 0.209-0.953 0.309 0.033 0.257 0.057 0.502 0.094 0.747 0.021 0.139 0 0.23-0.16 0.254-0.088 0.015-0.172 0.054-0.26 0.079-0.076 0.021-0.106 0.057-0.094 0.139 0.036 0.263 0.067 0.529 0.103 0.811 0.188-0.057 0.36-0.112 0.541-0.166 0.030 0.269 0.048 0.517 0.094 0.756 0.027 0.145-0.015 0.212-0.139 0.266-0.163 0.076-0.318 0.166-0.475 0.248 0.070 0.342 0.136 0.668 0.209 1.007 0.191-0.115 0.36-0.215 0.547-0.324 0.039 0.336 0.085 0.647 0.109 0.962 0.012 0.139-0.082 0.23-0.218 0.275-0.133 0.042-0.263 0.088-0.408 0.136 0.097 0.287 0.184 0.56 0.278 0.838 0.278-0.109 0.544-0.215 0.811-0.318 0.393-0.154 0.575-0.42 0.538-0.841-0.042-0.472-0.097-0.941-0.166-1.409-0.021-0.151 0.009-0.221 0.145-0.287 0.239-0.115 0.233-0.127 0.197-0.39-0.006-0.082-0.015-0.166-0.027-0.251z"></path>
    <path d="M11.236 17.836c-0.018-0.106-0.030-0.194-0.045-0.287-0.263 0.085-0.517 0.163-0.768 0.245s-0.251 0.082-0.233 0.348c0 0.009-0.006 0.018-0.012 0.042-0.78 0.254-1.567 0.508-2.359 0.768 0.036 0.293 0.073 0.575 0.109 0.865 0.218-0.070 0.411-0.13 0.605-0.191 0.006 0.009 0.012 0.018 0.015 0.024-0.13 0.157-0.26 0.315-0.396 0.481 0.239 0.154 0.475 0.299 0.699 0.457 0.184 0.13 0.181 0.136 0.342-0.009 0.030-0.027 0.064-0.048 0.103-0.079 0.070 0.206 0.139 0.399 0.2 0.596 0.030 0.097 0.067 0.133 0.172 0.091 0.115-0.048 0.239-0.076 0.357-0.121 0.318-0.124 0.647-0.227 0.95-0.384 0.399-0.206 0.547-0.569 0.484-1.013-0.045-0.312-0.079-0.626-0.118-0.953 0.212-0.070 0.405-0.13 0.593-0.2 0.039-0.015 0.091-0.073 0.088-0.106-0.021-0.26-0.057-0.517-0.088-0.789-0.242 0.073-0.463 0.142-0.696 0.215zM10.12 20.129c-0.224 0.076-0.448 0.148-0.693 0.2 0.106-0.133 0.215-0.263 0.336-0.414-0.254-0.145-0.493-0.281-0.771-0.442 0.451-0.148 0.865-0.284 1.316-0.43 0.024 0.275 0.064 0.535 0.067 0.799 0.003 0.145-0.115 0.239-0.254 0.287z"></path>
    <path d="M24.154 14.842c-0.169 0.145-0.324 0.278-0.484 0.414-0.015-0.033-0.024-0.045-0.024-0.060-0.067-0.56-0.136-1.119-0.197-1.679-0.003-0.036 0.048-0.103 0.088-0.118 0.151-0.060 0.308-0.109 0.466-0.16-0.042-0.33-0.082-0.641-0.121-0.959-0.2 0.064-0.375 0.118-0.566 0.175-0.070-0.563-0.136-1.104-0.203-1.654-0.336 0.109-0.656 0.212-0.98 0.318 0.048 0.405 0.097 0.799 0.145 1.195 0.118 0.974 0.239 1.948 0.354 2.925 0.042 0.369 0.154 0.753-0.139 1.089 0.206 0.188 0.405 0.369 0.587 0.532 0.378-0.312 0.732-0.617 1.104-0.901 0.121-0.094 0.16-0.172 0.124-0.324-0.067-0.254-0.103-0.517-0.154-0.792z"></path>
    <path d="M14.031 15.329c-0.039-0.151-0.003-0.227 0.163-0.278 0.874-0.272 1.742-0.56 2.613-0.841 0.342-0.112 0.687-0.224 1.040-0.339 0.021 0.133 0.039 0.251 0.057 0.369 0.021 0.003 0.039 0.009 0.051 0.003 0.302-0.097 0.605-0.191 0.904-0.293 0.030-0.009 0.064-0.076 0.061-0.109-0.039-0.369-0.085-0.738-0.13-1.125-0.756 0.245-1.5 0.484-2.241 0.726-0.091-0.188-0.172-0.357-0.26-0.532-0.411 0.16-0.805 0.312-1.204 0.469 0.073 0.16 0.139 0.309 0.212 0.469-0.073 0.027-0.133 0.048-0.197 0.070-0.693 0.224-1.385 0.451-2.081 0.671-0.103 0.033-0.13 0.079-0.109 0.184 0.027 0.133 0.033 0.269 0.051 0.405 0.027 0.218 0.054 0.436 0.085 0.668 0.345-0.112 0.668-0.218 1.001-0.324-0.006-0.076-0.003-0.136-0.018-0.194z"></path>
    <path d="M7.583 16.327c-0.308-0.112-0.599-0.218-0.853-0.308-0.399 0.602-0.789 1.189-1.177 1.775-0.018 0.024-0.021 0.079-0.006 0.103 0.16 0.254 0.33 0.505 0.502 0.768 0.557-0.75 1.071-1.521 1.533-2.338z"></path>
    </svg>