<svg width="128" height="128" fill="#c87362" xmlns="http://www.w3.org/2000/svg"  id="status_rejected" viewBox="0 0 32 32">
    <title>status_rejected</title>
    <path d="M1.803 21.456c0.091 0.009 0.166 0.018 0.248 0.027 0.227 0.578 0.423 1.177 0.363 1.836-0.057-0.151-0.115-0.287-0.079-0.454 0.024-0.103 0.003-0.218 0.003-0.327-0.018-0.003-0.033-0.006-0.051-0.009-0.033 0.024-0.067 0.048-0.112 0.079-0.124-0.387-0.248-0.768-0.372-1.152z"></path>
    <path d="M26.828 19.642c-0.030 0.003-0.057 0.006-0.085 0.009 0.124-0.523 0.269-1.037 0.363-1.564 0.094-0.523 0.139-1.053 0.212-1.624-0.302 0.097-0.553 0.178-0.805 0.26-0.172 0.054-0.342 0.112-0.511 0.175-0.042 0.015-0.073 0.054-0.109 0.082 0.027 0.018 0.054 0.039 0.088 0.064-0.051 0.015-0.1 0.033-0.151 0.048 0.073 0.203 0.003 0.399-0.030 0.596-0.178 1.092-0.526 2.129-1.050 3.103-0.039 0.070-0.166 0.148-0.151 0.181 0.054 0.136-0.082 0.181-0.103 0.275-0.006 0.030-0.036 0.057-0.112 0.136-0.036-0.070-0.076-0.139-0.118-0.221 0.118-0.124 0.112-0.372 0.312-0.411 0.018-0.091 0.015-0.166 0.045-0.227 0.532-1.059 0.874-2.175 1.004-3.351 0.003-0.033 0.003-0.070 0.006-0.13-0.067 0.009-0.124 0.006-0.175 0.027-0.178 0.070-0.351 0.16-0.532 0.218-0.299 0.094-0.602 0.166-0.904 0.251-0.054 0.015-0.109 0.030-0.157 0.054-0.121 0.057-0.188 0.018-0.221-0.118 0.036-0.015 0.076-0.036 0.115-0.051 0.626-0.206 1.252-0.408 1.875-0.614 0.544-0.181 1.086-0.372 1.63-0.55 0.974-0.318 1.948-0.629 2.925-0.941 0.042-0.012 0.094 0 0.139 0.006 0.118 0.015 0.239 0.051 0.315-0.094 0.009-0.015 0.061-0.006 0.091-0.015 0.082-0.030 0.242 0.060 0.224-0.136 0-0.012 0.057-0.033 0.088-0.045 0.127-0.042 0.257-0.085 0.396-0.13-0.082-0.275-0.157-0.544-0.245-0.808-0.336-1.022-0.674-2.045-1.010-3.067-0.181-0.553-0.363-1.11-0.541-1.664-0.045-0.142 0.003-0.227 0.163-0.284 0.006 0.181 0.178 0.324 0.103 0.523 0.166 0.127 0.148 0.336 0.221 0.502 0.073 0.175 0.121 0.363 0.181 0.544s0.121 0.363 0.178 0.544c0.061 0.181 0.118 0.363 0.178 0.544 0.061 0.188 0.121 0.372 0.181 0.56 0.061 0.181 0.121 0.363 0.178 0.544 0.061 0.181 0.121 0.363 0.175 0.544s0.094 0.366 0.151 0.544c0.057 0.178 0.136 0.348 0.2 0.526s0.121 0.36 0.181 0.55c-1.134 0.372-2.256 0.738-3.4 1.113 0.054 0.082 0.097 0.145 0.151 0.227-0.048-0.015-0.082-0.027-0.127-0.042-0.015 0.239-0.024 0.472-0.045 0.708-0.018 0.23-0.039 0.463-0.070 0.693-0.009 0.057-0.061 0.109-0.079 0.142 0.006 0.103 0.033 0.197 0.015 0.278-0.082 0.408-0.172 0.817-0.269 1.225-0.021 0.088-0.073 0.169-0.115 0.263 0.057 0.079 0.024 0.139-0.133 0.175 0.039 0.012 0.070 0.024 0.112 0.036-0.097 0.275-0.191 0.541-0.281 0.811 0.018 0.006 0.033 0.012 0.051 0.018 0.145-0.423 0.299-0.844 0.43-1.273 0.097-0.321 0.166-0.65 0.245-0.977 0.024-0.091 0.036-0.097 0.139-0.070 0.003 0.045-0.003 0.088 0.009 0.118 0.070 0.145-0.033 0.269-0.054 0.399-0.054 0.305-0.157 0.602-0.242 0.898-0.051 0.172-0.109 0.342-0.166 0.52 0.045 0 0.073 0 0.076 0-0.070 0.118-0.154 0.242-0.218 0.375-0.148 0.321-0.287 0.644-0.43 0.965-0.039 0.088-0.094 0.163-0.057 0.281 0.018 0.064-0.057 0.157-0.094 0.251-0.033-0.039-0.051-0.061-0.070-0.085-0.012 0.015-0.027 0.030-0.036 0.048-0.212 0.387-0.436 0.768-0.705 1.116-0.336 0.433-0.69 0.847-1.031 1.273-0.021 0.024-0.012 0.073-0.027 0.103-0.015 0.033-0.042 0.067-0.070 0.088-0.109 0.082-0.224 0.157-0.33 0.242-0.067 0.051-0.13 0.106-0.181 0.169-0.048 0.061-0.076 0.133-0.109 0.2-0.033 0.003-0.115-0.003-0.124 0.021-0.021 0.042 0.003 0.106 0.009 0.194-0.018-0.003-0.070-0.024-0.109-0.009-0.097 0.033-0.197 0.070-0.278 0.127-0.266 0.184-0.526 0.375-0.783 0.569-0.039 0.030-0.154 0.054-0.064 0.151 0.003 0.003-0.036 0.064-0.061 0.070-0.166 0.039-0.239 0.181-0.354 0.281-0.136 0.121-0.293 0.227-0.457 0.305-0.218 0.106-0.445 0.191-0.674 0.269-0.076 0.027-0.169-0.003-0.245 0.024-0.43 0.151-0.859 0.315-1.285 0.472-1.092 0.402-2.22 0.65-3.381 0.735-0.387 0.027-0.774 0.061-1.161 0.054-0.402-0.009-0.802-0.064-1.201-0.097-0.124-0.009-0.245-0.033-0.378 0.003-0.085 0.024-0.2-0.054-0.269-0.076 0.018-0.012 0.067-0.042 0.115-0.073-0.009-0.070-0.169-0.148 0.018-0.194 0.006-0.003-0.009-0.106-0.018-0.188-0.064 0.091-0.097 0.142-0.133 0.194-0.033-0.067-0.064-0.136-0.103-0.218-0.006 0.033-0.012 0.057-0.018 0.085-0.027-0.018-0.054-0.042-0.085-0.057-0.045-0.021-0.097-0.036-0.145-0.051 0.003 0.048 0.009 0.094 0.015 0.172-0.054-0.033-0.112-0.067-0.172-0.1 0.003-0.012 0.006-0.027 0.009-0.039-0.067 0.036-0.133 0.073-0.239 0.13 0.1 0.009 0.157 0.012 0.194 0.015 0.188 0.088 0.366 0.169 0.575 0.266-0.112-0.021-0.194-0.033-0.272-0.057-0.157-0.048-0.336-0.018-0.472-0.145-0.024-0.021-0.118 0.033-0.178 0.051-0.006-0.061-0.012-0.112-0.015-0.163-0.018 0-0.033 0-0.051 0.003-0.003 0.039-0.006 0.079-0.009 0.133-0.257-0.082-0.538-0.094-0.735-0.318 0.003 0 0.012-0.006 0.018-0.003 0.064 0.018 0.13 0.039 0.194 0.057 0-0.070-0.003-0.136-0.003-0.206 0-0.106 0-0.212 0-0.33 0.251 0.067 0.49 0.13 0.747 0.2-0.006-0.088-0.012-0.151-0.018-0.242 0.384 0.121 0.75 0.242 1.116 0.354 0.067 0.021 0.145 0.003 0.218 0.015 0.448 0.064 0.892 0.151 1.34 0.191 0.336 0.030 0.678 0.012 1.016-0.003 0.136-0.006 0.269-0.067 0.402-0.1 0.027-0.006 0.067-0.018 0.088-0.006 0.157 0.103 0.302 0 0.454-0.030-0.133-0.045-0.269-0.094-0.405-0.133-0.036-0.009-0.091-0.009-0.115 0.012-0.097 0.085-0.16 0.027-0.227-0.036-0.070 0.076-0.136 0.169-0.239 0.033-0.006-0.009-0.027-0.009-0.042-0.009-0.218 0.009-0.436 0.006-0.647 0.030-0.136 0.015-0.2-0.006-0.206-0.151 0.305 0.024 0.611-0.061 0.922 0.006 0.012-0.036 0.033-0.097 0.054-0.16 0.009 0.003 0.018 0.006 0.024 0.009 0 0.030 0 0.064 0 0.094 0.030-0.009 0.061-0.018 0.091-0.030 0.057-0.021 0.115-0.054 0.172-0.064 0.109-0.018 0.221-0.027 0.305-0.036 0.079 0.021 0.136 0.057 0.191 0.051 0.188-0.024 0.375-0.061 0.535-0.088 0-0.067-0.012-0.142 0.003-0.145 0.148-0.048 0.124-0.16 0.1-0.266 0.106-0.039 0.203-0.076 0.302-0.109 0.024-0.009 0.057-0.003 0.079 0.009 0.133 0.079 0.248 0.021 0.36-0.051 0.018-0.012 0.051-0.006 0.079-0.009-0.009 0.030-0.015 0.061-0.030 0.115 0.157-0.051 0.312-0.103 0.463-0.154-0.003 0.030-0.009 0.073-0.012 0.112 0.033-0.006 0.070-0.021 0.097-0.012 0.021 0.009 0.030 0.051 0.064 0.118 0.454-0.188 0.929-0.387 1.406-0.584-0.003-0.018-0.006-0.036-0.006-0.057-0.097-0.012-0.194-0.021-0.321-0.036 0.103-0.045 0.181-0.082 0.26-0.118-0.003-0.012-0.009-0.024-0.012-0.039-0.097 0.021-0.194 0.039-0.29 0.061-0.003-0.015-0.009-0.033-0.012-0.048 0.115-0.024 0.233-0.048 0.348-0.073 0 0 0.006 0.012 0.006 0.012 0.009 0.054 0.015 0.109 0.024 0.157 0.112-0.012 0.206-0.018 0.296-0.036 0.033-0.006 0.061-0.045 0.091-0.073-0.018-0.021-0.036-0.042-0.054-0.061 0.051-0.061 0.106-0.124 0.175-0.203 0.085-0.027 0.136 0.194 0.239 0.097-0.012-0.079-0.018-0.136-0.027-0.194 0.088 0.118 0.136 0.127 0.254 0.036 0.236-0.181 0.499-0.333 0.747-0.499 0.039-0.027 0.067-0.076 0.1-0.112-0.009-0.012-0.021-0.021-0.030-0.033-0.033 0.027-0.067 0.051-0.118 0.091-0.024-0.042-0.045-0.085-0.076-0.136-0.039 0.045-0.079 0.091-0.13 0.151-0.1-0.215-0.302-0.191-0.475-0.272 0.269-0.024 0.538-0.048 0.811-0.073-0.003 0.009-0.009 0.042-0.021 0.091 0.067-0.033 0.124-0.064 0.181-0.097 0.009 0.009 0.018 0.018 0.027 0.027-0.042 0.045-0.085 0.091-0.142 0.151 0.018 0.012 0.045 0.030 0.088 0.061 0.336-0.339 0.78-0.572 1.031-1.010 0.411-0.233 0.635-0.644 0.926-0.986 0.318-0.375 0.584-0.802 0.841-1.222 0.251-0.417 0.463-0.859 0.69-1.291 0.018 0.003 0.036 0.006 0.054 0.009 0 0.057 0.018 0.121-0.003 0.166-0.151 0.318-0.308 0.632-0.466 0.944-0.112 0.221-0.212 0.448-0.351 0.653-0.181 0.272-0.393 0.523-0.59 0.783-0.015 0.018-0.027 0.042-0.039 0.064 0.036 0.009 0.070 0.015 0.115 0.024-0.039 0.048-0.070 0.088-0.106 0.133-0.024-0.024-0.048-0.045-0.076-0.070-0.163 0.197-0.321 0.387-0.478 0.581-0.003 0.006 0.021 0.033 0.030 0.048 0.057-0.048 0.103-0.088 0.148-0.127-0.067 0.206-0.118 0.215-0.308 0.082-0.045 0.085-0.079 0.188-0.145 0.257-0.242 0.242-0.511 0.46-0.735 0.717-0.127 0.148-0.299 0.239-0.426 0.387 0.178 0.106 0.321 0.057 0.466-0.067 0.644-0.55 1.237-1.149 1.769-1.86-0.057 0.027-0.088 0.039-0.142 0.067 0.027-0.045 0.042-0.085 0.051-0.085 0.136 0.021 0.181-0.088 0.236-0.172 0.287-0.445 0.575-0.892 0.856-1.343 0.070-0.115 0.163-0.239-0.024-0.402 0.115 0.012 0.16 0.018 0.236 0.024 0.142-0.327 0.305-0.653 0.433-0.995 0.16-0.439 0.299-0.886 0.436-1.334 0.061-0.2 0.094-0.408 0.151-0.611 0.009-0.036 0.073-0.064 0.115-0.085 0.048-0.021 0.103-0.030 0.151-0.045 0-0.015 0.003-0.027 0.003-0.042-0.064-0.015-0.127-0.030-0.194-0.045 0.030-0.018 0.067-0.039 0.106-0.061-0.015 0-0.030 0-0.045 0.003-0.018-0.070-0.051-0.142-0.048-0.209 0.006-0.124 0.036-0.248 0.054-0.366 0.036 0.021 0.073 0.039 0.109 0.061 0.012-0.009 0.021-0.015 0.033-0.024-0.215-0.175-0.085-0.384-0.088-0.599 0.045 0.039 0.079 0.070 0.112 0.097 0.012-0.003 0.021-0.009 0.033-0.012-0.006-0.036-0.012-0.070-0.018-0.112 0.033-0.018 0.073-0.042 0.109-0.064-0.003-0.009-0.006-0.018-0.009-0.030-0.070 0.018-0.136 0.036-0.203 0.054-0.042-0.221 0.070-0.454-0.039-0.662-0.281 0.082-0.224 0.312-0.251 0.496-0.079 0.532-0.127 1.074-0.233 1.6-0.024 0.124-0.018 0.26-0.067 0.381-0.021 0.051-0.057 0.1-0.088 0.151 0.054 0.051-0.054 0.499-0.212 0.726v0zM18.571 27.088c-0.006-0.015-0.012-0.030-0.018-0.045-0.127 0.024-0.254 0.048-0.381 0.073 0 0.018 0 0.036 0 0.051 0.097 0.082 0.206-0.018 0.305-0.024 0.112-0.006 0.221-0.042 0.33-0.067-0.003-0.009-0.003-0.018-0.006-0.024-0.070-0.012-0.139-0.027-0.206-0.039-0.006 0.027-0.015 0.051-0.024 0.076z"></path>
    <path d="M4.498 13.381c0.003 0.067 0.006 0.136 0.009 0.203 0.015 0.003 0.027 0.006 0.042 0.009 0.024-0.057 0.051-0.112 0.070-0.169 0.13-0.43 0.257-0.859 0.387-1.285 0.009-0.033 0.024-0.067 0.039-0.097 0.003-0.003 0.039 0.006 0.039 0.003 0.094-0.547 0.381-1.013 0.635-1.491 0.417-0.792 0.935-1.515 1.536-2.187 0.021 0.027 0.036 0.048 0.067 0.091 0.012-0.067 0.021-0.112 0.027-0.16 0.012 0.003 0.024 0.006 0.033 0.006-0.015 0.060-0.012 0.133-0.045 0.178-0.23 0.299-0.472 0.587-0.705 0.886-0.118 0.154-0.245 0.299-0.336 0.478-0.091 0.184-0.215 0.351-0.318 0.529-0.88 1.54-1.388 3.191-1.5 4.963-0.006 0.094-0.012 0.191-0.021 0.305 0.054-0.009 0.097-0.015 0.136-0.027 0.384-0.124 0.765-0.251 1.149-0.372 0.076-0.024 0.121-0.057 0.121-0.145-0.006-0.194 0.076-0.357 0.163-0.523 0.027-0.054 0.036-0.124 0.036-0.188 0-0.030-0.042-0.060-0.073-0.1 0.027-0.121 0.057-0.266 0.088-0.414 0.012-0.003 0.021-0.006 0.033-0.012 0.042 0.172 0.085 0.348 0.127 0.52-0.018 0.006-0.033 0.012-0.051 0.015-0.024-0.027-0.045-0.051-0.091-0.106 0.015 0.29 0.027 0.544 0.039 0.817 1.382-0.451 2.764-0.904 4.162-1.361 0.009 0.073 0.015 0.13 0.024 0.197-0.318 0.103-0.62 0.206-0.926 0.299-0.284 0.088-0.575 0.163-0.859 0.257-0.299 0.097-0.593 0.212-0.889 0.315-0.296 0.1-0.596 0.194-0.892 0.293-0.305 0.1-0.611 0.2-0.916 0.302-0.302 0.1-0.602 0.197-0.904 0.296-0.305 0.1-0.611 0.197-0.938 0.302-0.015-0.188-0.027-0.357-0.039-0.526-0.012 0-0.027 0-0.039 0.003 0 0.121-0.015 0.242 0.003 0.36 0.024 0.151-0.030 0.224-0.175 0.248-0.048 0.009-0.094 0.027-0.151 0.045-0.006-0.057-0.015-0.103-0.021-0.151-0.064 0.263-0.296 0.254-0.487 0.312-0.051-0.145 0.006-0.224 0.148-0.245 0.13-0.018 0.166-0.088 0.163-0.218-0.006-0.218 0.012-0.439 0.021-0.684 0.064 0.036 0.1 0.054 0.136 0.076 0.015-0.003 0.027-0.009 0.042-0.012-0.018-0.082-0.012-0.191-0.064-0.239-0.067-0.064-0.088-0.112-0.076-0.203 0.048-0.324 0.088-0.647 0.136-0.971 0.006-0.048 0.048-0.088 0.067-0.115-0.009-0.070-0.015-0.127-0.021-0.2-0.024 0-0.061 0-0.094 0-0.003-0.015-0.003-0.024-0.003-0.033 0.009-0.073 0.057-0.172 0.027-0.212-0.172-0.221-0.094-0.466-0.091-0.702 0-0.073 0.021-0.148 0.048-0.218 0.039-0.097 0.088-0.191 0.245-0.163-0.009-0.015-0.018-0.030-0.027-0.042-0.048-0.006-0.094-0.009-0.163-0.018 0.142-0.048 0.263-0.094 0.39-0.136-0.006-0.076-0.012-0.139-0.018-0.2-0.163-0.033-0.293-0.194-0.263-0.336 0.009-0.039 0.033-0.091 0.064-0.109 0.136-0.076 0.145-0.206 0.166-0.336 0.006-0.036 0.039-0.103 0.051-0.103 0.166 0.021 0.218-0.133 0.324-0.2 0.082-0.051 0.178-0.082 0.272-0.151-0.151 0-0.302 0-0.454 0 0-0.021 0-0.039 0-0.060 0.112-0.015 0.224-0.030 0.339-0.045-0.027-0.057-0.048-0.103-0.070-0.148 0.088-0.021 0.175-0.042 0.302-0.076-0.042 0.054-0.054 0.070-0.097 0.124 0.094-0.030 0.166-0.033 0.203-0.070 0.088-0.085 0.16-0.188 0.239-0.281 0.027-0.033 0.064-0.060 0.097-0.091 0.039-0.036 0.079-0.070 0.145-0.13-0.082-0.006-0.121-0.006-0.188-0.012 0.178-0.266 0.351-0.526 0.52-0.783 0 0.036 0.015 0.097 0 0.106-0.145 0.091-0.133 0.236-0.13 0.372 0.003 0.194 0.021 0.384 0.033 0.578 0.015 0 0.027 0.003 0.042 0.003 0.015-0.051 0.048-0.106 0.039-0.148-0.036-0.154 0.079-0.218 0.163-0.302 0.036-0.033 0.088-0.067 0.097-0.109 0.042-0.175 0.057-0.357 0.030-0.538-0.003-0.027-0.024-0.067-0.042-0.073-0.024-0.006-0.057 0.015-0.085 0.030-0.051 0.027-0.1 0.057-0.151 0.088 0.378-0.56 0.792-1.092 1.282-1.561 0.369-0.354 0.735-0.705 1.104-1.059 0.039-0.036 0.097-0.051 0.133-0.091 0.121-0.124 0.287-0.184 0.375-0.366 0.070-0.148 0.248-0.245 0.375-0.366-0.003 0-0.024-0.012-0.064-0.033 0.321-0.197 0.629-0.381 0.938-0.572 0.157-0.097 0.309-0.203 0.466-0.296 0.030-0.018 0.085 0.003 0.13 0 0.151-0.003 0.309 0.009 0.454-0.024 0.070-0.015 0.127-0.112 0.175-0.184 0.148-0.215 0.363-0.287 0.605-0.336 0.191-0.036 0.372-0.118 0.56-0.175 0.070-0.021 0.142-0.036 0.218-0.033-0.16 0.057-0.321 0.112-0.469 0.166 0.042 0.036 0.085 0.070 0.139 0.115 0.13-0.070 0.269-0.142 0.405-0.224 0.018-0.012 0.021-0.054 0.030-0.085 0.003-0.012 0-0.027 0.006-0.036 0.057-0.073 0.348-0.085 0.381-0.048 0.112-0.033 0.203-0.073 0.296-0.085 0.103-0.015 0.206-0.003 0.336-0.003-0.042 0.033-0.073 0.057-0.133 0.109 0.169-0.018 0.299-0.033 0.432-0.048 0-0.009 0-0.021 0-0.030-0.070-0.006-0.139-0.009-0.206-0.015 0.094-0.006 0.191-0.118 0.287 0.012 0.024 0.030 0.133 0.003 0.203-0.003 0.653-0.045 1.304-0.139 1.957-0.13 2.507 0.030 4.803 0.756 6.884 2.16 0.218 0.145 0.43 0.299 0.635 0.46 0.206 0.163 0.436 0.302 0.572 0.541 0.012 0.021 0.054 0.018 0.082 0.033 0.045 0.024 0.088 0.054 0.124 0.079-0.109 0.088-0.203 0.166-0.299 0.245-0.015 0.003-0.030 0.003-0.045 0.006-0.079 0-0.16 0.021-0.209-0.076-0.009-0.015-0.106 0.012-0.169 0.021-0.366-0.269-0.741-0.566-1.14-0.829-0.39-0.257-0.802-0.481-1.21-0.711-0.082-0.045-0.115-0.088-0.112-0.184 0.006-0.16-0.006-0.324-0.009-0.484-0.015 0-0.030 0-0.048 0 0 0.181 0 0.366 0 0.575-0.103-0.048-0.188-0.085-0.272-0.124-1.785-0.792-3.648-1.14-5.592-1.040-0.69 0.036-1.373 0.136-2.042 0.302-0.064 0.015-0.115 0.079-0.175 0.103-0.042 0.018-0.094 0.006-0.142 0.006-0.076 0.003-0.154-0.012-0.221 0.009-0.269 0.088-0.532 0.188-0.802 0.281 0.018 0.021 0.030 0.036 0.076 0.088-0.073-0.018-0.106-0.024-0.139-0.033-0.003-0.015-0.003-0.030-0.006-0.045-0.054 0.064-0.109 0.124-0.166 0.191-0.142-0.082-0.148-0.082-0.33 0.039 0.057 0.033 0.106 0.057 0.2 0.109-0.142 0-0.242-0.003-0.342 0-0.064 0-0.136-0.009-0.194 0.015-0.221 0.1-0.439 0.203-0.65 0.321-0.281 0.157-0.563 0.315-0.832 0.493-0.287 0.188-0.566 0.384-0.838 0.596-0.266 0.206-0.523 0.426-0.771 0.656s-0.475 0.478-0.717 0.714c-0.045 0.045-0.115 0.070-0.175 0.103-0.012-0.009-0.021-0.021-0.033-0.030-0.015 0.073-0.027 0.142-0.045 0.23-0.033-0.018-0.061-0.033-0.097-0.054-0.106 0.42-0.454 0.687-0.665 1.040s-0.439 0.699-0.665 1.059c-0.009-0.073-0.015-0.142-0.024-0.212 0.033 0.275-0.088 0.508-0.224 0.723-0.139 0.218-0.13 0.469-0.184 0.705-0.073 0.324-0.191 0.623-0.387 0.892-0.030 0.039-0.033 0.1-0.024 0.166 0.051-0.045 0.103-0.091 0.166-0.148 0.006 0.039 0.021 0.073 0.012 0.1-0.079 0.233-0.16 0.463-0.245 0.693-0.006 0.015-0.024 0.027-0.036 0.039 0-0.115 0-0.227 0-0.342-0.33 0.886-0.436 1.806-0.466 2.774 0.115-0.088 0.269-0.024 0.29-0.197 0.067-0.59 0.136-1.177 0.206-1.763 0.003-0.030 0.018-0.076 0.006-0.085-0.151-0.121-0.082-0.257-0.030-0.39z"></path>
    <path d="M20.794 18.598c0-0.245 0.003-0.233 0.251-0.302 0.342-0.097 0.681-0.218 1.019-0.327 0.188-0.061 0.372-0.121 0.56-0.178 0.133-0.042 0.251-0.015 0.348 0.091l-0.003-0.003c-0.085 0.033-0.166 0.067-0.251 0.097 0 0.009 0.003 0.021 0.003 0.030 0.091-0.012 0.181-0.021 0.269-0.033-0.021 0.030-0.042 0.061-0.054 0.079-0.1 0.024-0.2 0.045-0.287 0.067-0.088-0.012-0.178-0.051-0.254-0.030-0.23 0.061-0.457 0.145-0.693 0.224 0.054 0.172 0.106 0.342 0.16 0.517-0.067-0.027-0.13-0.054-0.203-0.085-0.015 0.027-0.033 0.057-0.057 0.1-0.027-0.061-0.045-0.106-0.070-0.166-2.892 0.944-5.777 1.887-8.681 2.837 0.033 0.106 0.064 0.197 0.097 0.302 0.351-0.115 0.684-0.224 1.016-0.333 0.599-0.197 1.195-0.393 1.794-0.584 0.076-0.024 0.163-0.012 0.248 0.015-0.221 0.079-0.42 0.23-0.647 0.178-0.064 0.042-0.109 0.094-0.163 0.112-0.693 0.23-1.385 0.457-2.078 0.684-0.039 0.012-0.076 0.027-0.13 0.048 0.030 0.097 0.060 0.188 0.097 0.296 0.898-0.293 1.784-0.584 2.692-0.88-0.511 0.384-1.116 0.469-1.673 0.674-0.293 0.106-0.593 0.194-0.889 0.296-0.030 0.009-0.048 0.048-0.073 0.076 0.036 0.009 0.079 0.036 0.109 0.027 0.408-0.13 0.814-0.26 1.219-0.399 0.091-0.030 0.154-0.036 0.221 0.051 0.024 0.033 0.106 0.051 0.151 0.036 0.318-0.097 0.632-0.206 0.95-0.302 0.076-0.024 0.166-0.003 0.248-0.003 0 0.015 0.003 0.030 0.003 0.048-0.393 0.13-0.783 0.257-1.177 0.387 0.106 0.245 0.169 0.275 0.405 0.197 1.358-0.445 2.716-0.889 4.074-1.334 0.257-0.085 0.514-0.166 0.771-0.254 0.263-0.088 0.263-0.088 0.248-0.408-0.124 0.039-0.242 0.076-0.36 0.115-1.004 0.33-2.008 0.656-3.012 0.986-0.209 0.070-0.417 0.139-0.629 0.2-0.094 0.027-0.191 0.033-0.287 0.045-0.009 0-0.024-0.024-0.054-0.057 1.4-0.457 2.78-0.91 4.162-1.364 0.203-0.067 0.203-0.067 0.227-0.287 0.293-0.097 0.593-0.197 0.898-0.296 0.015 0.036 0.024 0.067 0.030 0.082 0.157-0.094 0.315-0.184 0.481-0.281-0.033-0.142 0.1-0.172 0.209-0.251 0.048 0.148 0.094 0.284 0.145 0.439-0.094 0.033-0.175 0.061-0.26 0.091-0.378 0.124-0.756 0.248-1.134 0.366-0.103 0.033-0.139 0.085-0.145 0.191-0.027 0.439-0.064 0.874-0.097 1.31-0.003 0.039-0.012 0.079-0.021 0.133-0.124-0.006-0.245-0.009-0.363-0.018-0.363-0.027-0.723-0.051-1.086-0.085-0.106-0.009-0.16 0.021-0.209 0.118-0.2 0.405-0.408 0.808-0.62 1.228-0.064-0.094-0.118-0.175-0.169-0.251 0.145-0.284 0.287-0.566 0.445-0.874-0.088 0.021-0.151 0.036-0.215 0.051-0.012-0.009-0.024-0.018-0.036-0.027 0.030-0.036 0.051-0.1 0.088-0.109 0.184-0.042 0.312-0.139 0.381-0.321 0.015-0.042 0.109-0.085 0.163-0.082 0.457 0.027 0.91 0.064 1.385 0.1 0.018-0.227 0.036-0.445 0.057-0.684-1.739 0.569-3.457 1.131-5.199 1.7 0.154 0.181 0.293 0.345 0.445 0.517 0.194-0.163 0.375-0.318 0.56-0.475 0.163-0.142 0.333-0.278 0.49-0.426 0.070-0.064 0.133-0.085 0.212-0.027 0.148 0.106 0.296 0.106 0.466 0.033 0.212-0.088 0.433-0.142 0.687-0.224-0.209 0.254-0.493 0.269-0.765 0.39 0.278 0.121 0.538 0.239 0.617 0.569-0.094-0.033-0.184-0.061-0.269-0.1-0.23-0.112-0.463-0.224-0.687-0.348-0.091-0.048-0.145-0.042-0.224 0.027-0.308 0.275-0.626 0.541-0.938 0.808-0.169 0.145-0.178 0.145-0.321-0.018-0.272-0.318-0.547-0.632-0.817-0.953-0.064-0.076-0.115-0.091-0.203-0.061-0.399 0.136-0.802 0.266-1.204 0.396-0.060 0.021-0.124 0.036-0.2 0.061-0.094-0.287-0.188-0.563-0.272-0.838-0.048-0.163-0.145-0.318-0.097-0.508 0.021-0.085-0.091-0.127-0.227-0.085-0.266 0.085-0.532 0.169-0.799 0.254-0.054 0.018-0.112 0.033-0.181 0.024 0.018-0.015 0.051-0.033 0.051-0.048-0.006-0.188 0.148-0.184 0.263-0.224 0.95-0.315 1.902-0.626 2.852-0.935 0.073-0.024 0.148-0.082 0.227 0.018 0.042 0.054 0.299-0.057 0.333-0.124 0.015-0.033 0.039-0.085 0.067-0.088 0.26-0.051 0.523-0.097 0.783-0.142 0.003 0 0.009 0.003 0.015 0.003 0.033 0.124-0.015 0.172-0.169 0.188-0.112 0.012-0.23 0.021-0.336 0.057-0.526 0.169-1.046 0.348-1.57 0.52-0.142 0.048-0.29 0.079-0.432 0.124-0.206 0.064-0.405 0.139-0.611 0.2-0.124 0.036-0.136 0.1-0.060 0.209 0.315-0.103 0.656-0.166 0.941-0.327 0.227-0.127 0.472-0.175 0.702-0.272 0.121-0.051 0.266-0.033 0.396-0.067 0.145-0.036 0.284-0.1 0.426-0.145 0.278-0.091 0.56-0.178 0.841-0.269 0.030-0.009 0.106-0.009 0.027-0.067 0.033-0.006 0.064-0.018 0.097-0.021 0.024 0 0.051 0.024 0.070 0.018 0.266-0.1 0.532-0.209 0.802-0.302 0.139-0.048 0.287-0.073 0.43-0.115 0.275-0.088 0.547-0.184 0.826-0.269 0.302-0.094 0.605-0.178 0.907-0.269 0.042-0.012 0.079-0.051 0.118-0.076 0 0-0.006 0.003-0.006 0.003 0.239-0.082 0.478-0.163 0.717-0.245 0.064-0.015 0.127-0.033 0.191-0.048 0.393-0.115 0.789-0.227 1.183-0.342-0.024-0.076-0.042-0.127-0.054-0.166-0.172 0.064-0.336 0.13-0.502 0.184-0.042 0.015-0.094 0.006-0.142 0.009l0.003-0.003z"></path>
    <path d="M15.867 12.153c-0.121 0.033-0.242 0.057-0.363 0.097-1.44 0.469-2.876 0.941-4.316 1.412-0.045 0.015-0.094 0.024-0.148 0.036-0.042-0.115-0.033-0.181 0.094-0.224 0.632-0.203 1.261-0.411 1.893-0.617 0.048-0.015 0.109-0.003 0.154-0.003 0.042-0.030 0.079-0.073 0.127-0.088 0.448-0.148 0.898-0.293 1.346-0.439 1.567-0.511 3.133-1.025 4.697-1.54 0.901-0.296 1.803-0.599 2.71-0.88 0.175-0.054 0.342-0.13 0.52-0.178 0.197-0.054 0.39-0.127 0.611-0.2-1.228-1.355-2.695-2.29-4.404-2.84 0.018-0.076 0.030-0.142 0.051-0.224 0.057 0.015 0.118 0.030 0.178 0.048 1.688 0.566 3.133 1.5 4.328 2.822 0.076 0.082 0.136 0.106 0.245 0.070 0.312-0.109 0.626-0.209 0.941-0.309 0.139-0.042 0.281-0.070 0.433-0.085-0.094 0.054-0.188 0.109-0.281 0.166 0.009 0.015 0.015 0.027 0.024 0.042 0.178-0.1 0.402-0.1 0.581-0.275-0.067-0.006-0.097-0.009-0.142-0.012 0.064-0.036 0.115-0.067 0.178-0.106-0.082-0.097-0.154-0.184-0.23-0.272-0.009 0.006-0.021 0.012-0.030 0.021 0.054-0.003 0.112-0.006 0.203-0.009-0.112-0.142-0.206-0.26-0.305-0.384 0.039-0.082 0.079-0.178-0.085-0.212-0.021-0.006-0.057-0.076-0.048-0.088 0.048-0.061 0.103-0.115 0.163-0.166 0.015-0.015 0.051-0.006 0.079-0.027-0.16-0.009-0.321-0.018-0.481-0.027-0.003-0.012-0.009-0.024-0.012-0.039 0.033-0.021 0.067-0.039 0.106-0.064-0.133-0.103-0.142-0.197-0.033-0.402 0.417 0.472 0.82 0.932 1.231 1.397-0.045 0.030-0.067 0.045-0.091 0.060 0.009 0.009 0.015 0.021 0.018 0.018 1.095-0.345 2.19-0.69 3.285-1.034 0.203-0.064 0.203-0.067 0.266 0.133 0.073 0.221 0.145 0.439 0.218 0.659 0.070 0.206 0.070 0.206-0.157 0.287-0.076-0.227-0.151-0.451-0.236-0.696-2.958 1.204-6.052 1.96-9.046 3.012-0.006-0.018-0.012-0.036-0.018-0.051 0.209-0.079 0.42-0.157 0.629-0.236 0.076-0.027 0.148-0.057 0.221-0.091 0.106-0.048 0.212-0.1 0.293-0.139 0.1-0.015 0.184-0.030 0.305-0.051-0.057-0.018-0.076-0.024-0.109-0.036 0.054-0.027 0.097-0.045 0.139-0.067-0.006-0.018-0.012-0.036-0.021-0.054-1.606 0.523-3.212 1.050-4.848 1.585 0.057 0.051 0.085 0.073 0.109 0.097-0.106 0.039-0.209 0.082-0.315 0.121-0.061-0.012-0.121-0.024-0.178-0.036 0.006-0.012 0.015-0.027 0.039-0.070-0.136 0.048-0.248 0.091-0.36 0.133-0.051 0.015-0.103 0.033-0.157 0.051zM21.632 10.256c0.006 0.021 0.015 0.042 0.021 0.064 0.145-0.051 0.29-0.109 0.439-0.154 0.148-0.042 0.296-0.073 0.445-0.109 0.006-0.018 0.018-0.060 0.036-0.118-0.318 0.109-0.629 0.215-0.941 0.318z"></path>
    <path d="M8.986 25.887c0.006-0.051 0.012-0.103 0.021-0.197 0.076 0.154 0.060 0.245-0.042 0.299 0.045 0.024 0.091 0.048 0.151 0.082-0.009-0.082-0.021-0.169-0.033-0.272 0.036 0.003 0.073-0.003 0.097 0.012 0.251 0.163 0.493 0.342 0.75 0.496 0.133 0.079 0.191 0.191 0.227 0.327 0.030 0.109 0.073 0.212 0.1 0.321 0.009 0.039-0.012 0.088-0.030 0.184 0.112-0.076 0.194-0.133 0.263-0.178-0.064-0.142-0.118-0.266-0.172-0.393 0.009-0.006 0.018-0.015 0.027-0.021 0.115 0.057 0.233 0.109 0.345 0.172 0.030 0.018 0.045 0.073 0.051 0.112 0.027 0.175 0.048 0.351 0.091 0.526 0-0.073 0-0.145 0-0.218 0.009 0 0.015 0 0.024 0 0.015 0.118 0.027 0.233 0.042 0.357-0.203-0.067-0.429-0.082-0.566-0.203-0.221-0.191-0.505-0.257-0.726-0.433-0.024-0.021-0.033-0.064-0.045-0.097-0.030-0.103-0.057-0.203-0.085-0.305-0.018 0-0.033 0-0.051 0-0.030 0.070-0.057 0.142-0.091 0.221-0.015-0.048-0.030-0.097-0.051-0.157-0.024 0.039-0.042 0.070-0.082 0.133-0.451-0.339-0.895-0.674-1.337-1.010-0.118-0.091-0.233-0.188-0.342-0.29-0.127-0.121-0.293-0.215-0.296-0.426 0-0.030-0.039-0.061-0.085-0.124 0.009 0.091 0.015 0.136 0.018 0.184-0.006 0.006-0.012 0.012-0.018 0.015-0.021-0.036-0.054-0.067-0.064-0.106-0.018-0.094-0.024-0.191-0.036-0.284-0.018 0.003-0.039 0.006-0.057 0.009 0.015 0.082 0.030 0.16 0.045 0.242-0.009 0.006-0.015 0.012-0.024 0.018-0.088-0.1-0.172-0.203-0.26-0.299-0.079-0.088-0.16-0.175-0.248-0.254-0.133-0.118-0.178-0.272-0.2-0.442-0.024-0.178-0.061-0.354-0.091-0.529-0.015 0-0.030 0.003-0.048 0.003 0 0.079 0 0.154 0 0.233-0.015 0-0.027 0-0.042 0.003-0.006-0.118-0.018-0.236-0.018-0.357 0-0.021 0.042-0.054 0.073-0.064 0.56-0.184 1.119-0.366 1.679-0.547 0.009-0.003 0.021 0 0.033 0.003 0.042 0.118 0.018 0.191-0.118 0.23-0.284 0.082-0.563 0.178-0.862 0.278 0.13 0.157 0.242 0.293 0.36 0.436-0.024 0.039-0.051 0.076-0.085 0.124-0.097-0.112-0.191-0.218-0.275-0.327-0.157-0.2-0.154-0.203-0.408-0.088 0.23 0.315 0.457 0.629 0.671 0.922 0 0.003 0.003-0.030 0.006-0.079 0.191 0.184 0.375 0.363 0.553 0.544 0.033 0.033 0.042 0.1 0.048 0.154 0.018 0.154 0.030 0.312 0.042 0.469 0.091-0.057-0.021-0.284 0.203-0.224 0.003-0.030 0.006-0.067 0.009-0.106 0.018 0.006 0.033 0.009 0.042 0.018 0.263 0.209 0.535 0.411 0.789 0.635 0.070 0.054 0.088 0.172 0.127 0.266z"></path>
    <path d="M0.786 19.487c0.042-0.061 0.079-0.091 0.076-0.112-0.015-0.097-0.042-0.194-0.064-0.29-0.024-0.109-0.045-0.221-0.070-0.33 0.024-0.006 0.051-0.009 0.076-0.015 0.036 0.221 0.076 0.442 0.118 0.693 0.021-0.057 0.027-0.076 0.048-0.133 0.169 0.514 0.327 0.992 0.484 1.473 0.012 0.036 0.030 0.079 0.021 0.115-0.045 0.257-0.048 0.257 0.024 0.493 0.033-0.027 0.070-0.051 0.121-0.091 0.097 0.293 0.191 0.572 0.284 0.853 0.103 0.308 0.221 0.617 0.299 0.932 0.085 0.348 0.13 0.708 0.191 1.056-0.009-0.154-0.021-0.315-0.033-0.478 0.012-0.003 0.021-0.003 0.033-0.006 0.073 0.221 0.148 0.442 0.227 0.674 0.194-0.061 0.378-0.118 0.544-0.172 0.057 0.057 0.103 0.1 0.154 0.151-0.097 0.030-0.197 0.067-0.315 0.103 0.003-0.051 0.006-0.082 0.009-0.112-0.106 0.245-0.375 0.181-0.544 0.312-0.057-0.127-0.109-0.242-0.172-0.387-0.139 0.209-0.012 0.384-0.030 0.587-0.061-0.1-0.118-0.172-0.148-0.254-0.668-1.954-1.54-3.844-1.784-5.937 0.348 0.938 0.696 1.866 1.040 2.789 0-0.109 0.015-0.227-0.006-0.336-0.012-0.064-0.097-0.109-0.121-0.172-0.073-0.194-0.133-0.39-0.197-0.587-0.091-0.281-0.184-0.569-0.266-0.817z"></path>
    <path d="M24.088 21.535c-0.021 0.036-0.073 0.048-0.018 0.121 0.048 0.057 0.070 0.151-0.006 0.254-1.506 2.072-3.505 3.397-5.998 3.971-1.585 0.366-3.167 0.327-4.739-0.085-0.206-0.054-0.206-0.054-0.184-0.287 0.514 0.091 0.783 0.175 0.826 0.245 0.073-0.006 0.139-0.024 0.2-0.015 2.014 0.342 3.953 0.091 5.81-0.759 1.627-0.744 2.943-1.866 3.968-3.33 0.033-0.048 0.094-0.073 0.142-0.109v-0.006z"></path>
    <path d="M22.938 7.071c-0.148-0.103-0.299-0.2-0.445-0.305-0.765-0.547-1.588-0.995-2.462-1.337-0.956-0.372-1.945-0.617-2.967-0.72-0.774-0.079-1.549-0.079-2.323-0.006-0.919 0.088-1.809 0.299-2.68 0.596-0.067 0.024-0.145 0.018-0.221 0.027-0.042 0.033-0.091 0.088-0.148 0.112-1.074 0.426-2.069 0.995-2.967 1.724-0.281 0.227-0.55 0.472-0.832 0.714-0.012-0.012-0.033-0.030-0.054-0.051-0.036 0.088-0.070 0.172-0.118 0.287-0.045-0.073-0.070-0.109-0.097-0.154 1.494-1.506 3.267-2.538 5.32-3.079 3.623-0.956 7.359-0.048 10.051 2.078-0.012 0.030-0.021 0.061-0.033 0.088-0.009 0.009-0.015 0.018-0.024 0.027z"></path>
    <path d="M12.25 6.842c0-0.042 0-0.070 0-0.097-0.024 0.009-0.054 0.015-0.076 0.030-0.018 0.015-0.030 0.039-0.033 0.064-0.027 0.145-0.103 0.127-0.2 0.051 0 0.042 0 0.076 0 0.121 0.048-0.009 0.088-0.018 0.136-0.030-0.003 0.015 0 0.027-0.006 0.027-0.351 0.175-0.702 0.348-1.053 0.52-0.021 0.009-0.054-0.015-0.079-0.012-0.033 0.006-0.073 0.021-0.097 0.045-0.027 0.030-0.033 0.088-0.064 0.106-1.065 0.65-1.972 1.473-2.728 2.465-0.012 0.015-0.021 0.033-0.036 0.060-0.030-0.054-0.051-0.088-0.070-0.121 0.030 0.29-0.2 0.451-0.321 0.681-0.012-0.042-0.021-0.064-0.027-0.085-0.024 0.039-0.045 0.106-0.082 0.121-0.042 0.015-0.103-0.012-0.191-0.027 0.647-0.989 1.349-1.863 2.302-2.513 0 0-0.021-0.006-0.073-0.027 0.324-0.227 0.626-0.451 0.944-0.653 0.853-0.544 1.772-0.947 2.749-1.21 0.333-0.091 0.671-0.163 1.010-0.218 0.348-0.057 0.699-0.085 1.050-0.118 0.060-0.006 0.154 0.012 0.181 0.051 0.097 0.157 0.085 0.16-0.13 0.175-0.702 0.057-1.4 0.151-2.081 0.348-0.212 0.061-0.42 0.139-0.635 0.194-0.127 0.036-0.26 0.036-0.393 0.051z"></path>
    <path d="M17.751 24.792c0.091-0.175 0.175-0.318 0.242-0.469 0.024-0.057 0.027-0.145 0.003-0.203-0.064-0.151-0.148-0.296-0.236-0.466 0.169 0.024 0.321 0.036 0.466 0.073 0.118 0.030 0.2 0 0.278-0.088 0.1-0.112 0.212-0.215 0.339-0.342 0.027 0.163 0.061 0.308 0.070 0.454 0.006 0.133 0.064 0.209 0.184 0.257 0.139 0.057 0.272 0.13 0.43 0.209-0.169 0.085-0.327 0.148-0.472 0.236-0.057 0.036-0.112 0.109-0.127 0.175-0.036 0.16-0.051 0.327-0.079 0.52-0.13-0.133-0.245-0.239-0.348-0.36-0.076-0.088-0.154-0.109-0.263-0.085-0.151 0.033-0.299 0.054-0.487 0.088z"></path>
    <path d="M15.867 12.153c0.054-0.018 0.106-0.036 0.16-0.057 0.166-0.003 0.333-0.006 0.502-0.009 0.13 0.082 0.224 0.009 0.318-0.136 0.045-0.012 0.091-0.018 0.13-0.036 0.051-0.024 0.094-0.091 0.148-0.006 0.006 0.009 0.033 0.015 0.039 0.009 0.127-0.136 0.336-0.106 0.469-0.245-0.064 0.009-0.127 0.021-0.203 0.033 0.2-0.133 0.705-0.218 0.886-0.172 0.166-0.188 0.402-0.109 0.569-0.215 0.006 0.012 0.009 0.024 0.015 0.036-0.145 0.057-0.287 0.118-0.433 0.169-0.965 0.333-1.933 0.665-2.898 0.995-0.284 0.097-0.572 0.191-0.859 0.281-0.33 0.106-0.662 0.203-0.992 0.312-0.242 0.079-0.481 0.175-0.726 0.254-0.668 0.215-1.337 0.426-2.008 0.638-0.33 0.106-0.656 0.212-0.998 0.284 0.188-0.073 0.378-0.145 0.566-0.221 0.097-0.036 0.191-0.079 0.287-0.112 0.351-0.121 0.705-0.236 1.056-0.36 0.236-0.085 0.466-0.181 0.699-0.278 0.094-0.039 0.181-0.1 0.275-0.133 0.073-0.024 0.157-0.006 0.233-0.027 0.13-0.033 0.257-0.079 0.381-0.127 0.133-0.051 0.26-0.13 0.399-0.163 0.197-0.048 0.408-0.045 0.602-0.1 0.278-0.079 0.569-0.118 0.808-0.321 0.121-0.106 0.296-0.151 0.445-0.224 0.042-0.021 0.088-0.045 0.13-0.070z"></path>
    <path d="M7.283 10.861c0.088 0.009 0.163 0.015 0.257 0.024-0.59 0.932-0.992 1.954-1.249 3.064-0.012-0.060-0.006-0.112-0.024-0.127-0.184-0.127-0.136-0.296-0.076-0.457 0.218-0.578 0.42-1.161 0.671-1.727 0.115-0.272 0.23-0.55 0.42-0.777z"></path>
    <path d="M13.544 7.465c-0.030 0.061-0.060 0.121-0.097 0.197 0.221 0.021 0.042 0.127 0.039 0.212 0.027 0 0.045-0.003 0.060-0.003 0.030 0.003 0.070 0 0.091 0.018 0.015 0.015 0.021 0.070 0.009 0.079-0.027 0.021-0.070 0.036-0.106 0.036-0.054 0-0.112-0.009-0.163-0.030-0.127-0.048-0.209 0.003-0.281 0.1-0.060 0.079-0.133 0.145-0.209 0.227-0.109-0.215 0.033-0.529-0.299-0.587-0.003-0.015-0.006-0.021-0.006-0.024 0.064-0.070-0.067-0.194 0.070-0.248 0.088-0.036 0.163-0.088 0.166-0.206 0.003-0.109 0.027-0.218 0.042-0.33 0.018-0.012 0.033-0.024 0.051-0.039 0.060 0.079 0.118 0.16 0.181 0.233 0.057 0.067 0.109 0.139 0.224 0.115 0.036-0.009 0.094 0.067 0.133 0.112 0.039 0.039 0.060 0.085 0.094 0.139z"></path>
    <path d="M20.113 22.709c0.324 0.118 0.557 0.039 0.738-0.254-0.006 0.348 0.136 0.563 0.508 0.617-0.169 0.094-0.333 0.136-0.411 0.242-0.076 0.1-0.061 0.263-0.094 0.448-0.181-0.312-0.417-0.402-0.744-0.263 0.191-0.263 0.242-0.514 0.003-0.789z"></path>
    <path d="M21.898 19c-0.079 0.012-0.163 0.015-0.236 0.042-0.082 0.030-0.148 0.1-0.233 0.127-1.080 0.357-2.16 0.708-3.239 1.062-0.324 0.106-0.647 0.218-0.974 0.318-0.109 0.033-0.23 0.036-0.342 0.070-0.085 0.027-0.16 0.094-0.245 0.118-0.070 0.021-0.151 0.003-0.269 0.003 0.218-0.145 5.242-1.751 5.526-1.781 0.006 0.012 0.009 0.027 0.012 0.042z"></path>
    <path d="M15.622 24.136c0.333 0.166 0.569 0.070 0.75-0.23 0.036 0.181 0.030 0.342 0.103 0.445 0.073 0.097 0.227 0.133 0.387 0.218-0.33 0.091-0.517 0.266-0.451 0.62-0.012 0-0.024 0-0.039 0.003-0.057-0.054-0.124-0.106-0.175-0.169-0.079-0.1-0.163-0.151-0.293-0.109-0.079 0.027-0.163 0.027-0.254 0.039 0.064-0.139 0.163-0.263 0.16-0.381-0.003-0.133-0.106-0.26-0.188-0.436z"></path>
    <path d="M11.79 27.372c-0.003 0.079-0.009 0.154-0.015 0.26-0.039-0.045-0.057-0.067-0.082-0.094-0.015 0.054-0.027 0.106-0.042 0.154-0.009 0-0.015 0-0.024 0-0.012-0.133-0.024-0.266-0.036-0.399-0.024 0-0.051-0.003-0.076-0.003-0.027 0.133-0.057 0.266-0.091 0.433-0.127-0.048-0.287-0.109-0.445-0.175-0.018-0.009-0.039-0.036-0.039-0.057-0.018-0.206-0.030-0.411-0.042-0.617 0-0.012 0.012-0.024 0.036-0.070 0.076 0.166 0.139 0.312 0.203 0.454 0-0.024 0.003-0.061 0.006-0.094 0-0.039 0-0.079 0-0.121 0.206-0.124 0.357 0.054 0.532 0.097 0.142 0.036 0.278 0.103 0.42 0.142 0.109 0.030 0.16 0.085 0.139 0.203-0.015 0.082-0.015 0.169-0.045 0.254-0.048-0.127-0.097-0.251-0.145-0.378-0.018 0.006-0.039 0.009-0.057 0.015 0.012 0.094 0.024 0.191 0.036 0.284-0.003 0.006-0.009 0.009-0.012 0.015-0.030-0.064-0.057-0.127-0.1-0.224 0 0.157 0 0.287 0 0.417-0.006 0-0.015 0.003-0.021 0.003-0.027-0.169-0.051-0.339-0.079-0.505-0.012 0.006-0.018 0.006-0.021 0.006z"></path>
    <path d="M20.304 18.91c-0.064 0.015-0.127 0.033-0.191 0.048-0.166-0.054-0.33-0.051-0.493 0.057 0.030 0.009 0.051 0.015 0.085 0.024-0.061 0.021-0.118 0.036-0.166 0.064-0.051 0.027-0.094 0.070-0.139 0.103 0 0 0.006-0.003 0.006-0.003-0.254-0.018-0.508-0.036-0.762-0.054 0-0.018-0.003-0.039-0.003-0.057 0.181-0.057 0.363-0.115 0.544-0.172 0.333-0.109 0.665-0.212 0.995-0.327 0.097-0.033 0.184-0.094 0.281-0.133 0.109-0.045 0.206-0.054 0.245 0.097 0.006 0.021 0.061 0.033 0.094 0.048 0 0-0.003-0.003-0.003-0.003-0.16 0.067-0.324 0.133-0.445 0.184-0.030 0.061-0.039 0.094-0.048 0.124z"></path>
    <path d="M10.631 24.681c-0.414-0.308-0.823-0.611-1.228-0.916-0.064-0.048-0.124-0.103-0.184-0.157-0.209-0.184-0.209-0.184-0.2-0.463 0.557 0.433 1.128 0.874 1.7 1.316-0.015 0.042-0.045 0.112-0.088 0.221z"></path>
    <path d="M15.383 7.622c-0.151-0.015-0.266-0.057-0.357-0.027s-0.157 0.133-0.26 0.23c0.012-0.263-0.079-0.436-0.366-0.487 0.13-0.076 0.248-0.106 0.302-0.184 0.057-0.079 0.051-0.2 0.082-0.333 0.139 0.215 0.315 0.293 0.566 0.188-0.145 0.212-0.16 0.408 0.033 0.614z"></path>
    <path d="M11.911 8.762c-0.151-0.018-0.275-0.067-0.363-0.033-0.085 0.033-0.136 0.151-0.203 0.233-0.015-0.009-0.033-0.021-0.048-0.030-0.012-0.1-0.024-0.2-0.036-0.312-0.085-0.045-0.191-0.103-0.348-0.188 0.33-0.021 0.375-0.224 0.381-0.499 0.157 0.218 0.321 0.33 0.578 0.218-0.151 0.218-0.154 0.411 0.039 0.611z"></path>
    <path d="M18.559 20.443c0.983-0.324 1.966-0.644 2.946-0.968 0.009 0.012 0.021 0.027 0.030 0.039-0.054 0.045-0.103 0.115-0.166 0.136-0.811 0.269-1.624 0.535-2.438 0.792-0.115 0.036-0.242 0.027-0.366 0.039 0-0.012-0.003-0.027-0.006-0.039z"></path>
    <path d="M9.703 22.194c0.009-0.172 0.109-0.215 0.224-0.251 0.426-0.136 0.85-0.278 1.273-0.417 0.042-0.012 0.085-0.021 0.127-0.033 0.051 0.124 0.039 0.191-0.097 0.233-0.451 0.136-0.898 0.29-1.346 0.433-0.057 0.021-0.115 0.024-0.181 0.036z"></path>
    <path d="M18.332 20.655c-0.287 0.082-0.578 0.166-0.865 0.248-0.088 0.024-0.172 0.054-0.257 0.085-0.369 0.127-0.741 0.257-1.11 0.381-0.030 0.009-0.073-0.018-0.109-0.027 0.024-0.027 0.045-0.073 0.079-0.085 0.693-0.23 1.382-0.46 2.078-0.684 0.054-0.018 0.124 0.009 0.188 0.015-0.003 0.024-0.003 0.045-0.003 0.067z"></path>
    <path d="M15.664 6.255c0.021-0.042 0.048-0.076 0.042-0.088-0.094-0.145 0-0.163 0.109-0.154 0.148 0.009 0.293 0.042 0.442 0.045 0.169 0.006 0.339-0.009 0.508-0.009 0.045 0 0.088 0.009 0.139 0.015-0.009 0.073-0.015 0.142-0.021 0.191-0.399 0-0.799 0-1.219 0z"></path>
    <path d="M15.876 20.002c0.563-0.184 1.125-0.372 1.7-0.563-0.018 0.039-0.027 0.064-0.042 0.1 0.13-0.042 0.251-0.082 0.369-0.121 0.006 0.015 0.012 0.027 0.018 0.042-0.021 0.015-0.039 0.036-0.064 0.045-0.2 0.082-0.396 0.169-0.599 0.245-0.163 0.061-0.305 0.181-0.493 0.166-0.079-0.006-0.16 0.003-0.239-0.009-0.227-0.033-0.414 0.133-0.65 0.094z"></path>
    <path d="M23.876 7.894c0.003-0.003 0.012-0.015 0.021-0.027 0.009-0.009 0.015-0.021 0.021-0.036-0.012-0.009-0.018-0.021-0.027-0.021-0.191 0.003-0.281-0.151-0.402-0.257-0.018-0.015-0.015-0.057-0.021-0.088 0.036-0.006 0.088-0.033 0.106-0.018 0.163 0.148 0.321 0.302 0.481 0.457 0.061 0.057 0.121 0.109 0.175 0.172 0.024 0.027 0.033 0.070 0.057 0.133 0.233 0.097 0.363 0.351 0.55 0.55-0.139 0.067-0.139 0.064-0.224-0.033-0.239-0.275-0.484-0.547-0.738-0.832z"></path>
    <path d="M13.729 27.294c0.296 0.039 0.596 0.082 0.892 0.121 0.121 0.015 0.242 0.018 0.36 0.039 0.039 0.006 0.073 0.048 0.097 0.1 0.079 0 0.157 0 0.236 0-0.079 0.085-0.16 0.13-0.248 0.045-0.018-0.018-0.051-0.030-0.076-0.027-0.393 0.039-0.768-0.067-1.152-0.127-0.048-0.009-0.088-0.079-0.13-0.121 0.003-0.012 0.012-0.021 0.021-0.030z"></path>
    <path d="M12.313 26.928c0.348 0.091 0.696 0.181 1.046 0.272 0.064 0.015 0.127 0.039 0.191 0.042 0.1 0.009 0.115 0.061 0.088 0.16-0.082-0.012-0.163-0.021-0.242-0.042-0.315-0.082-0.632-0.163-0.944-0.26-0.064-0.018-0.112-0.091-0.166-0.139 0.009-0.009 0.018-0.021 0.027-0.033z"></path>
    <path d="M9.334 25.422c0.191 0.133 0.381 0.269 0.578 0.393 0.139 0.088 0.287 0.16 0.436 0.233 0.091 0.045 0.13 0.103 0.091 0.224-0.154-0.088-0.309-0.169-0.457-0.26-0.184-0.112-0.369-0.221-0.544-0.348-0.064-0.045-0.1-0.133-0.148-0.2 0.015-0.012 0.030-0.027 0.045-0.042z"></path>
    <path d="M23.964 7.105c0.015-0.003 0.030-0.003 0.045-0.006 0.079-0.009 0.157-0.033 0.233-0.021 0.045 0.006 0.121 0.073 0.118 0.106-0.015 0.154-0.054 0.305-0.082 0.457l0.003-0.003c-0.064-0.036-0.133-0.067-0.194-0.109-0.051-0.036-0.094-0.091-0.145-0.142 0.030-0.039 0.061-0.079 0.097-0.124-0.024-0.006-0.051-0.015-0.051-0.015-0.012-0.051-0.018-0.097-0.024-0.142z"></path>
    <path d="M5.166 23.501c-0.024 0.1-0.042 0.16-0.064 0.245-0.036-0.045-0.057-0.076-0.091-0.118-0.021 0.142-0.112 0.181-0.227 0.206-0.136 0.030-0.266 0.088-0.405 0.118-0.036 0.009-0.088-0.033-0.13-0.051 0.024-0.042 0.039-0.109 0.073-0.121 0.269-0.094 0.541-0.178 0.844-0.278z"></path>
    <path d="M11.781 25.255c-0.16-0.079-0.333-0.139-0.475-0.245-0.070-0.051-0.082-0.184-0.121-0.278 0.012-0.006 0.024-0.012 0.036-0.018 0.178 0.088 0.366 0.157 0.529 0.266 0.057 0.039 0.057 0.166 0.085 0.251-0.018 0.009-0.036 0.015-0.054 0.024z"></path>
    <path d="M12.431 25.264c0.042 0.012 0.085 0.027 0.136 0.042-0.018 0.042-0.036 0.079-0.051 0.112 0.127-0.082 0.239-0.115 0.342 0.024 0.009 0.012 0.042 0.024 0.051 0.018 0.079-0.042 0.139-0.024 0.157 0.061 0.003 0.015-0.082 0.051-0.133 0.085 0.060 0.024 0.118 0.051 0.178 0.076-0.009 0.018-0.015 0.036-0.024 0.051-0.203-0.070-0.411-0.124-0.605-0.215-0.054-0.027-0.064-0.151-0.094-0.233 0.015-0.003 0.030-0.012 0.042-0.021z"></path>
    <path d="M2.522 16.293c0.033 0.067 0.054 0.115 0.088 0.184-0.224 0.027-0.414 0.203-0.671 0.142-0.003 0.006-0.018 0.048-0.048 0.121-0.048-0.085-0.079-0.133-0.115-0.2 0.251-0.085 0.493-0.163 0.747-0.248z"></path>
    <path d="M7.952 22.781c0-0.073 0-0.127 0-0.191 0.178-0.057 0.363-0.118 0.523-0.172-0.012 0.13-0.021 0.254-0.033 0.381-0.133-0.178-0.302-0.064-0.49-0.018z"></path>
    <path d="M12.325 25.464c-0.067-0.057-0.003-0.224-0.172-0.206-0.006 0.039-0.012 0.079-0.018 0.136-0.076-0.030-0.151-0.051-0.218-0.088-0.118-0.064-0.085-0.172-0.073-0.287 0.157 0.064 0.315 0.106 0.448 0.191 0.057 0.036 0.057 0.157 0.085 0.239-0.015 0.006-0.033 0.009-0.051 0.015z"></path>
    <path d="M19.028 26.483c0.133-0.051 0.23-0.091 0.351-0.136-0.048-0.033-0.076-0.054-0.133-0.097 0.157-0.033 0.29-0.061 0.42-0.088 0.003 0.015 0.009 0.030 0.012 0.045-0.021 0.018-0.045 0.033-0.079 0.061 0.048 0.009 0.082 0.015 0.124 0.024-0.003 0.015-0.003 0.033-0.012 0.039-0.051 0.027-0.103 0.051-0.154 0.079-0.061 0.033-0.197-0.057-0.181 0.109 0 0.003-0.079 0.030-0.109 0.015-0.079-0.033-0.148-0.061-0.239-0.051z"></path>
    <path d="M8.466 24.913c-0.181-0.181-0.511-0.23-0.493-0.596 0.166 0.145 0.321 0.275 0.463 0.417 0.036 0.036 0.024 0.118 0.030 0.178z"></path>
    <path d="M26.825 19.645c0 0.045 0.015 0.097-0.003 0.133-0.054 0.127-0.054 0.281-0.191 0.366 0.085 0.169-0.076 0.16-0.163 0.209 0.121-0.236 0.097-0.541 0.357-0.708 0.003-0.003 0 0 0 0z"></path>
    <path d="M22.975 17.878c-0.012-0.057-0.024-0.118-0.036-0.184 0.070-0.009 0.142-0.109 0.236-0.006 0.012 0.012 0.091-0.030 0.136-0.051 0.076-0.033 0.151-0.070 0.239-0.085-0.115 0.257-0.363 0.254-0.578 0.321-0.003 0.003 0.003 0.006 0.003 0.006z"></path>
    <path d="M9.074 25.431c-0.169-0.2-0.478-0.236-0.511-0.532 0.015-0.012 0.033-0.024 0.048-0.036 0.045 0.073 0.088 0.142 0.13 0.209 0.021-0.003 0.070-0.027 0.097-0.012 0.221 0.121 0.272 0.197 0.236 0.372z"></path>
    <path d="M11.705 26.701c0.154 0.054 0.312 0.1 0.46 0.166 0.039 0.018 0.054 0.088 0.079 0.136-0.009 0.012-0.018 0.021-0.030 0.033-0.16-0.057-0.321-0.112-0.478-0.178-0.033-0.015-0.045-0.085-0.067-0.13 0.012-0.012 0.024-0.021 0.036-0.027z"></path>
    <path d="M10.864 13.565c0.054 0.133 0.045 0.212-0.097 0.239-0.082 0.015-0.16 0.048-0.251 0.079-0.015-0.060-0.027-0.112-0.042-0.184 0.13-0.045 0.257-0.088 0.39-0.133z"></path>
    <path d="M8.65 22.551c-0.024-0.048-0.051-0.097-0.079-0.151 0.021-0.009 0.036-0.018 0.054-0.024 0.103-0.036 0.206-0.073 0.321-0.109 0.003 0.036-0.006 0.076 0.009 0.094 0.064 0.076 0.006 0.106-0.048 0.124-0.079 0.024-0.163 0.039-0.257 0.067z"></path>
    <path d="M10.907 24.56c0.067 0.027 0.163 0.039 0.2 0.091 0.054 0.076 0.067 0.184 0.1 0.293-0.275-0.082-0.315-0.136-0.299-0.384z"></path>
    <path d="M24.091 21.538c0.027-0.085 0.051-0.169 0.076-0.254 0.091 0.045 0.154 0.076 0.224 0.109-0.048 0.085-0.1 0.169-0.148 0.251-0.054-0.039-0.106-0.076-0.157-0.112 0.003 0.003 0.006 0.006 0.006 0.006z"></path>
    <path d="M24.275 7.64c0.070-0.012 0.142-0.024 0.215-0.039-0.012 0.045-0.024 0.091-0.033 0.124 0.079 0.094 0.154 0.181 0.224 0.266-0.121 0.036-0.39-0.184-0.405-0.354 0.003 0 0 0.003 0 0.003z"></path>
    <path d="M22.938 7.071c0.006-0.009 0.015-0.015 0.021-0.024 0.227-0.051 0.296 0.166 0.445 0.254-0.184-0.021-0.357-0.064-0.466-0.23z"></path>
    <path d="M9.031 26.967c0.103 0.024 0.203 0.045 0.305 0.070 0.142 0.036 0.284 0.079 0.417 0.145-0.254-0.030-0.514-0.039-0.72-0.221l-0.003 0.006z"></path>
    <path d="M1.721 16.553c-0.006 0.073-0.009 0.115-0.012 0.175-0.172-0.139-0.163 0.061-0.257 0.142-0.033-0.070-0.064-0.133-0.094-0.191 0.088-0.030 0.212-0.076 0.363-0.127z"></path>
    <path d="M21.366 25.406c0.030-0.015 0.067-0.033 0.106-0.048s0.082-0.030 0.13-0.045c-0.018-0.024-0.030-0.042-0.048-0.067 0.172-0.042 0.166 0.127 0.278 0.197-0.115 0-0.188 0.006-0.263 0-0.070-0.006-0.136-0.024-0.203-0.036z"></path>
    <path d="M10.761 26.435c-0.109-0.076-0.29-0.064-0.26-0.269 0.227 0.045 0.269 0.088 0.26 0.269z"></path>
    <path d="M9.034 26.964c-0.148 0.051-0.233 0.027-0.408-0.124 0.169-0.070 0.281 0.054 0.405 0.127 0 0 0.003-0.003 0.003-0.003z"></path>
    <path d="M20.824 25.558c0.151-0.048 0.272-0.085 0.396-0.124-0.1 0.115-0.203 0.221-0.396 0.124z"></path>
    <path d="M7.637 8.012c-0.064 0.136-0.109 0.239-0.157 0.345-0.030-0.142-0.048-0.275 0.157-0.345z"></path>
    <path d="M16.844 11.95c-0.094 0.145-0.188 0.218-0.318 0.136 0-0.006 0-0.012 0-0.015 0.103-0.039 0.209-0.082 0.315-0.121 0-0.003 0.003 0 0.003 0z"></path>
    <path d="M18.226 26.341c0.109-0.012 0.218-0.024 0.327-0.036 0.003 0.024 0.003 0.048 0.006 0.073-0.109 0-0.218 0-0.324 0-0.003-0.012-0.006-0.024-0.009-0.036z"></path>
    <path d="M18.060 26.38c-0.006 0.030-0.009 0.054-0.012 0.079 0.048-0.015 0.094-0.027 0.136-0.039-0.097 0.073-0.203 0.112-0.348 0.051 0.088-0.036 0.148-0.061 0.224-0.091z"></path>
    <path d="M8.91 22.984c0.024 0.121 0.045 0.245 0.076 0.39-0.191-0.112-0.036-0.272-0.076-0.39z"></path>
    <path d="M13.716 7.135c-0.036 0.070-0.048 0.109-0.073 0.139-0.021 0.027-0.054 0.045-0.082 0.067-0.009-0.015-0.027-0.033-0.027-0.048 0.003-0.036 0.006-0.085 0.030-0.106 0.033-0.027 0.082-0.030 0.151-0.051z"></path>
    <path d="M3.989 24.076c0.036-0.088-0.051-0.203 0.115-0.215 0.018 0.094 0.070 0.197-0.115 0.215z"></path>
    <path d="M6.028 23.525c-0.021-0.073-0.045-0.145-0.064-0.221-0.003-0.021 0.018-0.045 0.027-0.070 0.018 0.021 0.051 0.039 0.054 0.061 0.012 0.073 0.009 0.148 0.015 0.221-0.009 0.003-0.021 0.006-0.033 0.009z"></path>
    <path d="M2.813 16.215c0.033 0.067 0.054 0.109 0.079 0.16-0.076 0.027-0.139 0.048-0.242 0.082 0.064-0.091 0.106-0.154 0.163-0.242z"></path>
    <path d="M20.519 25.733c0.097-0.054 0.178-0.209 0.336-0.082-0.127 0.033-0.233 0.057-0.336 0.082z"></path>
    <path d="M20.948 25.999c0 0-0.006-0.012-0.006-0.012 0.048-0.048 0.097-0.094 0.163-0.16-0.012-0.003 0.018 0.003 0.051 0.012 0.009 0.151-0.088 0.169-0.209 0.16z"></path>
    <path d="M18.571 27.088c0.009-0.024 0.015-0.048 0.024-0.073 0.067 0.012 0.136 0.024 0.206 0.039 0.003 0.009 0.003 0.018 0.006 0.024-0.109 0.024-0.218 0.061-0.33 0.067-0.1 0.006-0.206 0.106-0.305 0.024 0-0.018 0-0.036 0-0.051 0.127-0.024 0.254-0.048 0.381-0.073 0.009 0.012 0.015 0.027 0.018 0.042z"></path>
    <path d="M4.498 13.381c-0.051 0.133-0.121 0.269 0.033 0.39 0.012 0.009-0.003 0.054-0.006 0.085-0.070 0.587-0.139 1.177-0.206 1.763-0.018 0.175-0.172 0.112-0.29 0.197 0.027-0.968 0.136-1.887 0.466-2.774 0 0.115 0 0.23 0 0.342 0 0 0.003-0.003 0.003-0.003z"></path>
    <path d="M5.605 8.98c0.051-0.030 0.1-0.060 0.151-0.088 0.027-0.015 0.061-0.036 0.085-0.030 0.021 0.006 0.039 0.045 0.042 0.073 0.027 0.181 0.012 0.363-0.030 0.538-0.009 0.042-0.064 0.076-0.097 0.109-0.088 0.085-0.2 0.148-0.163 0.302 0.009 0.045-0.024 0.1-0.039 0.148-0.015 0-0.027-0.003-0.042-0.003-0.012-0.194-0.030-0.384-0.033-0.578-0.003-0.136-0.015-0.281 0.13-0.372 0.015-0.009 0-0.070 0-0.106 0 0-0.003 0.006-0.003 0.006z"></path>
    <path d="M20.304 18.91c0.009-0.033 0.021-0.064 0.042-0.13 0.121-0.051 0.281-0.118 0.445-0.184 0.048-0.003 0.097 0.006 0.142-0.009 0.166-0.057 0.327-0.121 0.502-0.184 0.012 0.039 0.030 0.091 0.054 0.166-0.399 0.115-0.792 0.23-1.186 0.342z"></path>
    <path d="M19.397 19.206c0.045-0.036 0.091-0.076 0.139-0.103s0.106-0.039 0.166-0.064c-0.033-0.009-0.054-0.015-0.085-0.024 0.163-0.106 0.324-0.112 0.493-0.057-0.236 0.085-0.475 0.166-0.714 0.248z"></path>
    <path d="M21.632 10.256c0.312-0.106 0.626-0.209 0.944-0.318-0.018 0.057-0.030 0.1-0.036 0.118-0.148 0.036-0.299 0.067-0.445 0.109-0.148 0.045-0.293 0.103-0.439 0.154-0.012-0.021-0.018-0.042-0.024-0.064z"></path>
    <path d="M16.526 12.071c0 0.006 0 0.012 0 0.015-0.166 0.003-0.333 0.006-0.502 0.009 0.112-0.042 0.224-0.082 0.36-0.133-0.024 0.042-0.033 0.060-0.039 0.070 0.064 0.015 0.121 0.027 0.181 0.039z"></path>
    <path d="M11.091 13.341c-0.215 0.079-0.432 0.157-0.656 0.239-0.018-0.051-0.036-0.1-0.057-0.154 2.819-0.91 5.623-1.815 8.423-2.719 0.076 0.109 0.057 0.172-0.057 0.206-0.030 0.009-0.057 0.018-0.085 0.027-0.947 0.305-1.896 0.608-2.843 0.916-0.042 0.012-0.079 0.048-0.115 0.073 0.009 0.012 0.015 0.024 0.024 0.039 0.254-0.045 0.508-0.088 0.762-0.136 0.027-0.006 0.051-0.045 0.064-0.076 0.039-0.091 0.248-0.166 0.342-0.133 0.057 0.021 0.133 0.036 0.188 0.018 0.901-0.284 1.8-0.578 2.701-0.868 0.163-0.051 0.357-0.070 0.381-0.309-0.051 0.012-0.103 0.024-0.154 0.039-0.263 0.085-0.526 0.172-0.789 0.257-0.139 0.042-0.242 0-0.218-0.1 0.039-0.166-0.036-0.299-0.079-0.442-0.088-0.281-0.181-0.563-0.275-0.85-0.042 0.009-0.073 0.015-0.1 0.021-0.408 0.13-0.814 0.257-1.219 0.396-0.115 0.039-0.188 0.033-0.269-0.070-0.245-0.302-0.502-0.593-0.756-0.886-0.148-0.172-0.154-0.172-0.327-0.027-0.299 0.254-0.602 0.505-0.898 0.765-0.079 0.067-0.136 0.088-0.236 0.033-0.233-0.13-0.475-0.245-0.714-0.363-0.060-0.030-0.127-0.039-0.197-0.060 0.067 0.321 0.327 0.414 0.581 0.544-0.254 0.115-0.529 0.124-0.732 0.369 0.254-0.082 0.472-0.139 0.681-0.218 0.154-0.060 0.29-0.067 0.423 0.036 0.076 0.057 0.139 0.048 0.212-0.018 0.106-0.1 0.221-0.191 0.333-0.284 0.23-0.194 0.457-0.387 0.696-0.587 0.145 0.172 0.281 0.33 0.43 0.502-1.697 0.547-3.366 1.083-5.054 1.627 0.021-0.236 0.039-0.445 0.054-0.656 0.045 0 0.073-0.003 0.097 0 0.414 0.033 0.832 0.070 1.246 0.097 0.051 0.003 0.142-0.027 0.157-0.067 0.070-0.188 0.2-0.29 0.393-0.327 0.027-0.006 0.045-0.070 0.067-0.103-0.012-0.006-0.024-0.015-0.036-0.021-0.060 0.012-0.121 0.027-0.206 0.045 0.154-0.296 0.293-0.569 0.436-0.841-0.051-0.076-0.106-0.154-0.166-0.245-0.191 0.369-0.375 0.729-0.56 1.086-0.115 0.221-0.115 0.221-0.372 0.2-0.1-0.009-0.2-0.015-0.302-0.024-0.327-0.024-0.65-0.048-0.983-0.076-0.009 0.060-0.021 0.109-0.024 0.16-0.033 0.417-0.070 0.832-0.094 1.249-0.006 0.106-0.042 0.148-0.139 0.175-0.184 0.051-0.366 0.115-0.547 0.172-0.266 0.088-0.532 0.172-0.811 0.263 0.048 0.151 0.094 0.284 0.142 0.439 0.079-0.064 0.197-0.118 0.191-0.163-0.015-0.16 0.109-0.136 0.184-0.178 0.045-0.021 0.085-0.051 0.124-0.082 0.054-0.039 0.109-0.079 0.166-0.118 0.012 0.033 0.018 0.060 0.030 0.097 0.272-0.088 0.541-0.172 0.808-0.263 0.033-0.012 0.079-0.060 0.076-0.088-0.015-0.136 0.070-0.163 0.172-0.197 1.313-0.42 2.625-0.847 3.938-1.27 0-0.018 0-0.036 0-0.054-0.051-0.006-0.106-0.030-0.151-0.018-0.221 0.064-0.439 0.139-0.659 0.209-0.799 0.257-1.6 0.514-2.399 0.774-0.284 0.091-0.569 0.184-0.856 0.278-0.030-0.305-0.030-0.309 0.23-0.393 0.632-0.206 1.261-0.408 1.893-0.611 0.968-0.312 1.936-0.62 2.901-0.938 0.106-0.033 0.169-0.018 0.227 0.070 0.030 0.045 0.064 0.085 0.109 0.142-0.402 0.13-0.783 0.254-1.164 0.378 0.003 0.015 0.006 0.030 0.006 0.045 0.079 0 0.163 0.018 0.236-0.003 0.302-0.091 0.602-0.194 0.907-0.287 0.045-0.015 0.127-0.015 0.145 0.012 0.082 0.124 0.175 0.1 0.284 0.054 0.085-0.033 0.172-0.057 0.257-0.085 0.293-0.094 0.584-0.191 0.877-0.281 0.030-0.009 0.067 0.012 0.1 0.018-0.021 0.027-0.039 0.057-0.067 0.079-0.018 0.015-0.048 0.018-0.070 0.027-0.224 0.091-0.451 0.181-0.674 0.272-0.012 0.006-0.027 0.012-0.042 0.015-0.073 0.006-0.148-0.006-0.215 0.015-0.327 0.1-0.65 0.209-0.977 0.312-0.191 0.060-0.191 0.060-0.305 0.224 0.805-0.26 1.603-0.517 2.408-0.777 0.036 0.109 0.064 0.194 0.097 0.29-0.753 0.245-1.497 0.484-2.241 0.726 0.003 0.021 0.003 0.039 0.006 0.060 0.054 0.003 0.112 0.021 0.16 0.006 0.46-0.145 0.919-0.293 1.379-0.442 0.242-0.079 0.484-0.154 0.735-0.236 0.033 0.106 0.061 0.188 0.094 0.29-2.822 0.907-5.629 1.812-8.442 2.719-0.027-0.057-0.045-0.1-0.073-0.16-0.021 0.045-0.033 0.073-0.042 0.094-0.070-0.021-0.127-0.039-0.203-0.064 0.054 0.175 0.103 0.33 0.151 0.484-0.411 0.139-0.811 0.272-1.219 0.411 0.124 0.16 0.263 0.109 0.387 0.070 0.499-0.154 0.998-0.318 1.494-0.475 0.121-0.039 0.263-0.060 0.221-0.248 0-0.024 0.030-0.054 0.045-0.079 0.036 0.067 0.073 0.136 0.109 0.203 0.65-0.212 1.288-0.417 1.927-0.623 0-0.012-0.003-0.027-0.003-0.039-0.106-0.018-0.224-0.073-0.318-0.048-0.321 0.085-0.632 0.2-0.95 0.296-0.257 0.076-0.511 0.142-0.765 0.212z"></path>
    <path d="M15.319 11.378c-0.006-0.024-0.012-0.051-0.018-0.076-0.13 0.033-0.263 0.060-0.393 0.097-0.085 0.024-0.166 0.067-0.251 0.094-0.042 0.012-0.088 0.006-0.13 0.021-1.37 0.439-2.74 0.88-4.107 1.319-0.027 0.009-0.060 0.015-0.085 0.030-0.018 0.012-0.039 0.045-0.033 0.054 0.012 0.021 0.042 0.048 0.060 0.045 0.064-0.009 0.127-0.027 0.191-0.048 1.273-0.411 2.547-0.82 3.817-1.231 0.315-0.097 0.632-0.2 0.95-0.305z"></path>
    <path d="M10.326 12.488c0.009 0.018 0.018 0.033 0.030 0.051 0.956-0.309 1.912-0.62 2.867-0.929-0.003-0.012-0.009-0.024-0.012-0.036-0.115 0.009-0.233 0-0.342 0.033-0.789 0.248-1.579 0.502-2.368 0.762-0.060 0.018-0.115 0.076-0.175 0.118z"></path>
    <path d="M13.462 11.4c0 0.024-0.003 0.051-0.003 0.076 0.064 0.003 0.13 0.021 0.188 0.003 0.665-0.212 1.331-0.429 1.993-0.647 0.033-0.012 0.057-0.051 0.088-0.079-0.042-0.009-0.091-0.039-0.127-0.027-0.206 0.064-0.411 0.133-0.614 0.203-0.224 0.076-0.448 0.16-0.674 0.23-0.281 0.088-0.566 0.16-0.85 0.242z"></path>
    <path d="M11.091 13.341c-0.015 0.024-0.042 0.054-0.039 0.076 0.045 0.191-0.097 0.212-0.221 0.248-0.499 0.16-0.995 0.321-1.494 0.475-0.124 0.039-0.263 0.091-0.387-0.070 0.408-0.136 0.808-0.272 1.219-0.411-0.048-0.157-0.097-0.309-0.151-0.484 0.073 0.024 0.133 0.042 0.203 0.064 0.009-0.018 0.021-0.045 0.042-0.094 0.027 0.060 0.048 0.103 0.073 0.16 2.81-0.904 5.62-1.809 8.442-2.719-0.033-0.103-0.061-0.184-0.094-0.29-0.251 0.079-0.493 0.157-0.735 0.236-0.46 0.148-0.919 0.296-1.379 0.442-0.048 0.015-0.106-0.003-0.16-0.006-0.003-0.021-0.003-0.039-0.006-0.060 0.744-0.239 1.485-0.481 2.241-0.726-0.033-0.097-0.061-0.181-0.097-0.29-0.805 0.26-1.603 0.517-2.408 0.777 0.118-0.163 0.118-0.163 0.305-0.224 0.327-0.106 0.65-0.212 0.977-0.312 0.067-0.021 0.145-0.009 0.215-0.015 0.015 0 0.027-0.009 0.042-0.015 0.224-0.091 0.451-0.181 0.674-0.272 0.024-0.009 0.051-0.012 0.070-0.027 0.027-0.021 0.045-0.051 0.067-0.079-0.033-0.006-0.073-0.027-0.1-0.018-0.293 0.091-0.584 0.188-0.877 0.281-0.085 0.027-0.175 0.048-0.257 0.085-0.109 0.045-0.203 0.070-0.284-0.054-0.015-0.024-0.1-0.024-0.145-0.012-0.302 0.094-0.602 0.197-0.907 0.287-0.073 0.021-0.157 0.003-0.236 0.003-0.003-0.015-0.006-0.030-0.006-0.045 0.381-0.124 0.765-0.248 1.164-0.378-0.045-0.057-0.082-0.097-0.109-0.142-0.057-0.088-0.121-0.106-0.227-0.070-0.965 0.318-1.933 0.626-2.901 0.938-0.632 0.203-1.264 0.408-1.893 0.611-0.26 0.085-0.26 0.085-0.23 0.393 0.287-0.094 0.572-0.184 0.856-0.278 0.799-0.257 1.6-0.514 2.399-0.774 0.218-0.070 0.439-0.145 0.659-0.209 0.045-0.012 0.1 0.012 0.151 0.018 0 0.018 0 0.036 0 0.054-1.313 0.423-2.622 0.847-3.938 1.27-0.103 0.033-0.188 0.060-0.172 0.197 0.003 0.027-0.042 0.079-0.076 0.088-0.266 0.091-0.535 0.175-0.808 0.263-0.012-0.036-0.021-0.064-0.030-0.097-0.057 0.042-0.112 0.082-0.166 0.118-0.042 0.027-0.082 0.057-0.124 0.082-0.079 0.039-0.2 0.018-0.184 0.178 0.003 0.045-0.115 0.1-0.191 0.163-0.048-0.151-0.094-0.287-0.142-0.439 0.278-0.091 0.544-0.178 0.811-0.263 0.181-0.060 0.363-0.124 0.547-0.172 0.097-0.027 0.133-0.070 0.139-0.175 0.024-0.417 0.060-0.835 0.094-1.249 0.003-0.048 0.015-0.097 0.024-0.16 0.333 0.024 0.659 0.051 0.983 0.076 0.1 0.009 0.2 0.015 0.302 0.024 0.257 0.018 0.257 0.018 0.372-0.2 0.184-0.357 0.369-0.717 0.56-1.086 0.060 0.091 0.115 0.172 0.166 0.245-0.142 0.275-0.281 0.544-0.436 0.841 0.088-0.018 0.145-0.033 0.206-0.045 0.012 0.006 0.024 0.015 0.036 0.021-0.021 0.036-0.039 0.1-0.067 0.103-0.194 0.039-0.321 0.139-0.393 0.327-0.015 0.036-0.106 0.070-0.157 0.067-0.417-0.027-0.832-0.064-1.246-0.097-0.024-0.003-0.048 0-0.097 0-0.018 0.212-0.036 0.417-0.054 0.656 1.691-0.544 3.357-1.083 5.054-1.627-0.148-0.175-0.284-0.333-0.43-0.502-0.236 0.2-0.466 0.393-0.696 0.587-0.112 0.094-0.227 0.184-0.333 0.284-0.073 0.070-0.136 0.076-0.212 0.018-0.133-0.1-0.269-0.097-0.423-0.036-0.209 0.082-0.426 0.139-0.681 0.218 0.203-0.248 0.478-0.254 0.732-0.369-0.251-0.13-0.514-0.224-0.581-0.544 0.070 0.021 0.136 0.030 0.197 0.060 0.239 0.118 0.481 0.233 0.714 0.363 0.1 0.054 0.157 0.033 0.236-0.033 0.296-0.257 0.596-0.511 0.898-0.765 0.172-0.145 0.178-0.145 0.327 0.027 0.254 0.293 0.511 0.584 0.756 0.886 0.082 0.103 0.154 0.109 0.269 0.070 0.405-0.139 0.814-0.266 1.219-0.396 0.027-0.009 0.057-0.012 0.1-0.021 0.094 0.287 0.188 0.566 0.275 0.85 0.042 0.142 0.118 0.275 0.079 0.442-0.024 0.1 0.079 0.145 0.218 0.1 0.263-0.085 0.526-0.172 0.789-0.257 0.051-0.015 0.103-0.027 0.154-0.039-0.024 0.239-0.218 0.254-0.381 0.309-0.901 0.29-1.8 0.581-2.701 0.868-0.054 0.018-0.13 0.003-0.188-0.018-0.094-0.033-0.302 0.042-0.342 0.133-0.012 0.030-0.039 0.070-0.064 0.076-0.254 0.048-0.508 0.094-0.762 0.136-0.009-0.012-0.015-0.024-0.024-0.039 0.039-0.024 0.073-0.057 0.115-0.073 0.947-0.305 1.896-0.611 2.843-0.916 0.030-0.009 0.057-0.021 0.085-0.027 0.112-0.030 0.13-0.094 0.057-0.206-2.801 0.904-5.605 1.809-8.423 2.719 0.021 0.054 0.039 0.103 0.057 0.154 0.218-0.079 0.436-0.157 0.65-0.236v0z"></path>
    <path d="M15.319 11.378c-0.318 0.103-0.635 0.209-0.956 0.312-1.273 0.411-2.544 0.823-3.817 1.231-0.060 0.021-0.124 0.039-0.191 0.048-0.018 0.003-0.048-0.024-0.060-0.045-0.006-0.009 0.018-0.042 0.033-0.054 0.024-0.015 0.054-0.021 0.085-0.030 1.37-0.442 2.737-0.88 4.107-1.319 0.042-0.012 0.088-0.006 0.13-0.021 0.085-0.027 0.166-0.070 0.251-0.094 0.13-0.036 0.263-0.067 0.393-0.097 0.012 0.021 0.018 0.045 0.024 0.070z"></path>
    <path d="M11.091 13.341c0.254-0.070 0.511-0.136 0.762-0.215 0.318-0.097 0.629-0.212 0.95-0.296 0.097-0.024 0.212 0.030 0.318 0.048 0 0.012 0.003 0.027 0.003 0.039-0.638 0.206-1.276 0.411-1.927 0.623-0.033-0.064-0.070-0.133-0.106-0.2 0 0 0 0 0 0z"></path>
    <path d="M10.326 12.488c0.060-0.042 0.112-0.1 0.178-0.121 0.786-0.257 1.576-0.514 2.368-0.762 0.106-0.033 0.227-0.024 0.342-0.033 0.003 0.012 0.009 0.024 0.012 0.036-0.956 0.309-1.912 0.62-2.867 0.929-0.012-0.015-0.021-0.030-0.033-0.048z"></path>
    <path d="M13.462 11.4c0.284-0.079 0.572-0.154 0.853-0.239 0.227-0.070 0.448-0.154 0.674-0.23 0.206-0.070 0.408-0.142 0.614-0.203 0.036-0.012 0.085 0.018 0.127 0.027-0.030 0.027-0.054 0.067-0.088 0.079-0.665 0.218-1.328 0.436-1.993 0.647-0.057 0.018-0.124 0-0.188-0.003-0.003-0.030-0.003-0.054 0-0.079z"></path>
    <path d="M15.549 15.286c-0.076-0.26-0.076-0.26 0.163-0.336 0.454-0.145 0.907-0.293 1.361-0.442 0.051-0.018 0.106-0.030 0.157-0.045 0.085 0.245 0.079 0.257-0.151 0.33-0.508 0.163-1.013 0.327-1.53 0.493z"></path>
    <path d="M15.437 14.421c-0.051-0.257-0.051-0.257 0.166-0.327 0.505-0.166 1.013-0.33 1.536-0.502 0.015 0.091 0.027 0.166 0.039 0.263-0.581 0.188-1.155 0.375-1.742 0.566z"></path>
    <path d="M14.067 17.497c0.036 0.251 0.076 0.484 0.103 0.717 0.003 0.039-0.030 0.109-0.064 0.124-0.451 0.2-0.901 0.393-1.355 0.587-0.009 0.003-0.018 0-0.042-0.003-0.045-0.251-0.094-0.505-0.136-0.762-0.006-0.030 0.018-0.085 0.042-0.094 0.475-0.194 0.953-0.375 1.452-0.569z"></path>
    <path d="M10.426 19.194c0 0.405-0.124 0.587-0.511 0.714-0.457 0.154-0.919 0.299-1.376 0.451-0.36 0.118-0.717 0.239-1.077 0.348-0.309 0.094-0.46-0.006-0.508-0.321-0.003-0.021-0.003-0.039-0.006-0.061-0.036-0.305-0.070-0.611-0.112-0.913-0.015-0.109 0.006-0.157 0.118-0.194 0.859-0.272 1.715-0.553 2.571-0.832 0.43-0.139 0.859-0.278 1.304-0.423-0.121-0.989-0.239-1.969-0.357-2.958-0.070 0.021-0.112 0.033-0.154 0.048-1.183 0.384-2.365 0.765-3.545 1.152-0.526 0.172-1.050 0.348-1.576 0.52 0 0.009 0 0.021 0 0.030 0.030 0.215 0.061 0.426 0.094 0.641 0.012 0.076 0.021 0.148 0.033 0.245 1.385-0.451 2.758-0.895 4.156-1.346 0.045 0.369 0.088 0.726 0.136 1.095-0.965 0.315-1.927 0.626-2.898 0.941-0.024-0.163-0.045-0.318-0.070-0.49-0.315 0.103-0.617 0.212-0.923 0.293-0.151 0.042-0.175 0.115-0.157 0.254 0.115 0.889 0.218 1.778 0.33 2.668 0.027 0.224 0.079 0.448 0.263 0.593 0.115 0.088 0.266 0.127 0.402 0.188 0.051 0 0.1 0 0.151 0 0.169-0.042 0.342-0.076 0.508-0.13 1.059-0.339 2.117-0.681 3.173-1.031 0.209-0.070 0.411-0.169 0.596-0.284 0.315-0.197 0.478-0.493 0.502-0.868 0.021-0.375 0.051-0.75 0.076-1.134-0.396 0.027-0.753 0.051-1.134 0.079-0.009 0.245-0.009 0.484-0.009 0.726z"></path>
    <path d="M25.467 10.16c-0.765 0.248-1.503 0.487-2.244 0.729-1.149 0.372-2.296 0.747-3.445 1.116-0.106 0.033-0.148 0.076-0.127 0.188s0.027 0.23 0.042 0.345c0.178 1.491 0.36 2.979 0.541 4.47 0.027 0.224 0.057 0.445 0.088 0.677 0.363-0.118 0.705-0.23 1.043-0.342-0.012-0.133-0.024-0.248-0.036-0.372 1.24-0.402 2.471-0.802 3.717-1.207 0.021 0.133 0.039 0.242 0.061 0.366 0.36-0.118 0.702-0.23 1.043-0.342-0.23-1.878-0.457-3.741-0.684-5.629zM21.223 16.139c-0.042-0.339-0.082-0.656-0.121-0.977-0.097-0.805-0.194-1.609-0.293-2.414-0.012-0.091-0.021-0.157 0.097-0.194 1.183-0.378 2.365-0.765 3.548-1.146 0.015-0.006 0.030-0.006 0.073-0.012 0.142 1.177 0.284 2.347 0.43 3.533-1.246 0.402-2.48 0.802-3.732 1.21z"></path>
    <path d="M18.226 15.344c-0.333-0.030-0.629-0.057-0.907-0.082-0.136 0.436-0.269 0.853-0.402 1.273-0.021 0.003-0.042 0.006-0.064 0.009-0.23-0.302-0.46-0.602-0.693-0.91-0.26 0.218-0.517 0.432-0.802 0.671 0.315 0.384 0.62 0.759 0.953 1.164-0.33 0.321-0.671 0.653-1.016 0.986-0.012-0.009-0.024-0.018-0.036-0.027-0.057-0.805-0.115-1.612-0.172-2.426-0.136 0.042-0.254 0.076-0.384 0.118-0.039-0.853-0.079-1.679-0.118-2.529-0.817 0.266-1.603 0.52-2.395 0.777 0.036 0.293 0.070 0.569 0.106 0.856 0.499-0.16 0.977-0.315 1.473-0.475 0.021 0.547 0.039 1.071 0.057 1.594 0 0.027-0.027 0.070-0.051 0.079-0.097 0.036-0.197 0.064-0.309 0.1-0.024-0.496-0.048-0.971-0.073-1.464-0.257 0.085-0.493 0.166-0.735 0.236-0.094 0.027-0.112 0.073-0.109 0.16 0.024 0.402 0.042 0.805 0.067 1.207 0.018 0.33 0.039 0.662 0.057 1.010 0.535-0.172 1.059-0.342 1.609-0.52 0.027 0.426 0.051 0.826 0.085 1.228 0.015 0.181-0.060 0.302-0.218 0.375-0.076 0.036-0.157 0.064-0.239 0.091-0.251 0.079-0.505 0.154-0.756 0.23 0.094 0.272 0.181 0.532 0.278 0.814 0.396-0.151 0.78-0.281 1.152-0.448 0.305-0.136 0.526-0.369 0.611-0.708 0.003-0.012 0.015-0.021 0.030-0.036 0.16 0.178 0.318 0.354 0.493 0.547 0.42-0.417 0.838-0.829 1.246-1.246 0.079-0.082 0.136-0.1 0.242-0.061 0.451 0.169 0.922 0.245 1.394 0.296 0.139-0.327 0.272-0.641 0.411-0.971-0.481-0.033-0.944-0.079-1.358-0.269 0.191-0.553 0.378-1.095 0.572-1.651z"></path>
    <path d="M15.44 16.042c0.393-0.39 0.829-0.817 1.255-1.252 0.076-0.079 0.133-0.094 0.23-0.057 0.399 0.148 0.802 0.29 1.213 0.439 0.163-0.315 0.327-0.626 0.499-0.953-0.387-0.13-0.756-0.251-1.131-0.378 0.248-0.354 0.49-0.702 0.741-1.059-0.287-0.115-0.547-0.218-0.799-0.318-0.239 0.342-0.475 0.668-0.699 1.001-0.067 0.097-0.127 0.109-0.233 0.070-0.375-0.133-0.753-0.251-1.146-0.381-0.178 0.29-0.354 0.572-0.532 0.862 0.369 0.13 0.72 0.254 1.11 0.393-0.405 0.366-0.78 0.705-1.143 1.031 0.2 0.194 0.405 0.387 0.635 0.602z"></path>
    <path d="M24.239 12.891c-0.033-0.272-0.070-0.544-0.106-0.829-0.067 0.018-0.112 0.030-0.16 0.045-0.832 0.269-1.664 0.544-2.498 0.808-0.139 0.042-0.178 0.1-0.157 0.242 0.076 0.575 0.142 1.149 0.212 1.724 0.024 0.197 0.051 0.396 0.079 0.605 0.070-0.021 0.121-0.036 0.172-0.051 0.823-0.266 1.645-0.541 2.471-0.795 0.169-0.051 0.188-0.13 0.169-0.278-0.064-0.49-0.121-0.98-0.181-1.47zM23.323 14.064c-0.29 0.1-0.581 0.191-0.892 0.293-0.033-0.281-0.067-0.547-0.091-0.817-0.003-0.027 0.045-0.073 0.079-0.085 0.278-0.097 0.563-0.184 0.871-0.284 0.033 0.281 0.067 0.544 0.094 0.808 0 0.027-0.036 0.076-0.061 0.085z"></path>
    <path d="M23.286 13.245c0.033 0.281 0.067 0.544 0.094 0.808 0.003 0.027-0.030 0.073-0.057 0.082-0.29 0.1-0.581 0.191-0.892 0.293-0.033-0.281-0.067-0.547-0.091-0.817-0.003-0.027 0.045-0.073 0.079-0.085 0.278-0.094 0.56-0.181 0.868-0.281z"></path>
    </svg>